<svg width="22" height="22" viewBox="0 0 22 22" fill="none" xmlns="http://www.w3.org/2000/svg">
<path d="M9.90554 0.0491123C8.85685 0.140303 7.05583 0.65325 6.09833 1.1434C3.41961 2.48846 1.12845 5.30396 0.398928 8.10807C-0.216608 10.4904 0.0341659 13.3629 1.04866 15.5515L1.40202 16.338L0.706696 18.6064C0.319136 19.8488 -3.05176e-05 20.9431 -3.05176e-05 21.0343C-3.05176e-05 21.3307 0.455922 21.798 0.752291 21.798C0.900476 21.798 2.05176 21.5131 3.30562 21.1711L5.58539 20.5442L6.34911 20.8861C7.48899 21.3991 8.40089 21.6499 9.70036 21.8094C11.9345 22.0602 13.8039 21.7524 15.7873 20.7836C18.5002 19.4499 20.5064 17.1473 21.4981 14.252C22.1251 12.4054 22.1707 9.86349 21.6007 8.11947C19.8795 2.77343 15.2174 -0.441036 9.90554 0.0491123ZM12.5387 1.74754C16.1863 2.32887 19.1728 4.9848 20.1987 8.54123C20.4152 9.28215 20.4608 9.70391 20.4608 11.0832C20.4608 12.4966 20.4266 12.8614 20.1873 13.5909C19.1728 16.851 16.6878 19.3131 13.4848 20.225C12.7552 20.4302 12.3221 20.4758 11.0568 20.4758C9.72316 20.4758 9.38119 20.4302 8.51488 20.168C7.96774 19.997 7.15842 19.6779 6.73667 19.4613L5.95015 19.0737L3.92116 19.6323C2.80408 19.94 1.88077 20.1794 1.86937 20.168C1.85798 20.1566 2.10875 19.2675 2.40512 18.2074L2.96366 16.2696L2.50771 15.2665C0.923273 11.8697 1.26524 8.27905 3.43101 5.31536C4.67348 3.60554 6.99884 2.19209 9.24441 1.74754C9.96253 1.59935 11.6724 1.59935 12.5387 1.74754Z" fill="#878A8C"/>
<path d="M5.98435 9.9319C5.30042 10.2169 5.08385 11.1858 5.58539 11.7101C6.28072 12.451 7.52319 11.9723 7.52319 10.9692C7.52319 10.1713 6.72527 9.63553 5.98435 9.9319Z" fill="#878A8C"/>
<path d="M10.5439 9.9319C9.85995 10.2169 9.64337 11.1858 10.1449 11.7101C10.8402 12.451 12.0827 11.9723 12.0827 10.9692C12.0827 10.1713 11.2848 9.63553 10.5439 9.9319Z" fill="#878A8C"/>
<path d="M14.6734 9.51387C13.9895 9.79884 13.7729 10.7677 14.2745 11.2921C14.9698 12.033 16.2123 11.5543 16.2123 10.5512C16.2123 9.75324 15.4144 9.2175 14.6734 9.51387Z" fill="#878A8C"/>
</svg>
