<svg width="29" height="31" viewBox="0 0 29 31" fill="none" xmlns="http://www.w3.org/2000/svg">
<path fill-rule="evenodd" clip-rule="evenodd" d="M14.2161 0.0177354C13.6817 0.126802 13.1253 0.49196 12.9318 0.860661C12.9063 0.909171 12.8458 1.01973 12.7974 1.10636C12.7489 1.19298 12.6696 1.33473 12.6213 1.42135C12.5729 1.50798 12.5128 1.62137 12.4876 1.67335C12.4626 1.72532 12.3863 1.86707 12.318 1.98834C12.2497 2.10962 12.1326 2.32224 12.0577 2.46083C11.9828 2.59943 11.8821 2.7837 11.8339 2.87033C11.7857 2.95695 11.7174 3.08452 11.6822 3.15382C11.647 3.22312 11.6046 3.30108 11.5879 3.32707C11.5712 3.35306 11.4702 3.53733 11.3634 3.73656C11.0323 4.35466 11.0113 4.37695 10.8403 4.28938C10.7563 4.2463 10.3879 4.0714 9.74318 3.76846C9.58725 3.69522 9.36046 3.58797 9.23919 3.53024C9.11791 3.47252 8.84859 3.34566 8.6407 3.24832C8.4328 3.15099 8.24144 3.05791 8.21545 3.04153C8.18947 3.02507 8.14694 3.00294 8.12095 2.99223C8.0541 2.96467 7.69351 2.80111 7.50671 2.71362C6.49637 2.24026 5.52374 2.51872 5.03991 3.42007C4.82383 3.82264 4.80343 4.65729 4.98825 5.53857C5.01266 5.6548 5.04747 5.90995 5.06566 6.10556C5.08393 6.30117 5.11953 6.57467 5.14488 6.71327C5.17024 6.85186 5.2119 7.15662 5.23741 7.3905C5.26293 7.62439 5.30663 7.94174 5.33459 8.0957C5.40318 8.47393 5.35947 8.50062 4.45008 8.6356C4.26636 8.66293 4.08493 8.6971 4.04681 8.71159C4.0087 8.72608 3.81773 8.76136 3.62251 8.78995C3.42722 8.81861 3.23389 8.85476 3.19294 8.87035C3.15199 8.88594 3.00016 8.91461 2.85566 8.93406C2.71108 8.95351 2.47231 8.99572 2.32505 9.02785C2.17779 9.05998 1.92973 9.10817 1.77381 9.13495C0.573128 9.34119 0.0118857 9.91416 0.0115707 10.9342C0.0114132 11.6165 0.0792945 11.7397 0.9827 12.6966C1.22721 12.9556 1.5478 13.2956 1.69506 13.4521C2.23441 14.0256 2.44774 14.2495 2.80699 14.6196C3.30075 15.1284 3.34351 14.9853 2.40703 15.9584C2.26536 16.1056 2.02943 16.354 1.88288 16.5102C1.73625 16.6665 1.40243 17.0208 1.14098 17.2977C0.52958 17.9452 0.371767 18.1178 0.313178 18.2037C0.286955 18.2422 0.257188 18.2807 0.247029 18.2893C0.153318 18.3692 0.022753 18.7795 0.00534955 19.0491C-0.068123 20.1843 0.617463 20.9041 1.92398 21.0632C2.0666 21.0807 2.25418 21.1147 2.3408 21.1391C2.42742 21.1633 2.61878 21.1992 2.76604 21.2188C2.9133 21.2383 3.15427 21.2805 3.30153 21.3126C3.59716 21.3771 3.98255 21.4468 4.52395 21.5336C5.3779 21.6706 5.40184 21.6861 5.33459 22.0571C5.30663 22.211 5.26293 22.5284 5.23741 22.7623C5.2119 22.9961 5.17024 23.3009 5.14488 23.4395C5.11953 23.5781 5.08393 23.8516 5.06566 24.0472C5.04747 24.2428 5.01259 24.498 4.98817 24.6142C4.63475 26.2952 4.99109 27.2482 6.11397 27.6255C6.31013 27.6914 6.93279 27.6959 7.05478 27.6322C7.10077 27.6082 7.1929 27.5717 7.25952 27.5511C7.32622 27.5305 7.50829 27.4524 7.66421 27.3775C7.82013 27.3026 8.08945 27.1747 8.2627 27.0934C8.43595 27.012 8.67692 26.8981 8.79819 26.8401C8.99672 26.7454 9.18926 26.6542 10.0267 26.2585C10.1653 26.193 10.4308 26.067 10.6167 25.9786C11.0526 25.7712 11.0103 25.7491 11.3237 26.3463C11.4416 26.5709 11.4997 26.6785 11.7098 27.0619C11.7668 27.1659 11.8976 27.4068 12.0004 27.5974C12.1034 27.788 12.2012 27.9652 12.2179 27.9912C12.2346 28.0172 12.2761 28.0951 12.3103 28.1644C12.3444 28.2337 12.4128 28.3613 12.4623 28.4479C12.5118 28.5345 12.61 28.7117 12.6807 28.8416C13.0463 29.5149 13.1552 29.6643 13.4274 29.8655C13.5562 29.9607 13.6747 30.0386 13.6909 30.0386C13.707 30.0386 13.8012 30.0757 13.9001 30.121C14.1847 30.2513 14.7918 30.243 15.1072 30.1045C15.2293 30.051 15.339 30.0071 15.351 30.0071C15.3823 30.0071 15.6832 29.76 15.7694 29.6635C15.8881 29.5306 16.0342 29.2929 16.3241 28.7608C16.4745 28.4848 16.6112 28.2376 16.6279 28.2117C16.6445 28.1857 16.6856 28.1077 16.7192 28.0384C16.7528 27.9691 16.8017 27.877 16.8277 27.8337C16.8799 27.747 17.0774 27.3889 17.288 26.9989C17.3629 26.8603 17.4607 26.68 17.5054 26.5981C17.55 26.5163 17.6482 26.332 17.7236 26.1886C17.9399 25.7772 17.9321 25.7795 18.384 25.994C18.5518 26.0736 18.8237 26.203 18.9883 26.2815C19.7769 26.6578 20.2185 26.8671 21.398 27.4241C22.4891 27.9394 23.6926 27.5283 23.9924 26.5378C24.0099 26.4796 24.0459 26.3752 24.0721 26.3059C24.1346 26.1412 24.1351 25.6593 24.0732 25.3295C24.0472 25.1909 24.005 24.8861 23.9795 24.6522C23.9541 24.4183 23.9124 24.1136 23.8871 23.975C23.8617 23.8364 23.8261 23.5629 23.8079 23.3673C23.7897 23.1717 23.7549 22.9165 23.7304 22.8003C23.7061 22.6841 23.67 22.4124 23.6502 22.1965C23.6304 21.9806 23.6085 21.7948 23.6016 21.7836C23.5628 21.7208 23.9922 21.5962 24.4643 21.5335C24.6088 21.5142 24.7606 21.4857 24.8016 21.4701C24.8425 21.4545 25.0361 21.4191 25.2317 21.3913C25.4273 21.3636 25.6355 21.3258 25.6944 21.3074C25.7532 21.2889 25.9587 21.2488 26.1511 21.2181C26.3435 21.1875 26.6072 21.1411 26.7371 21.1151C26.8671 21.0891 27.0655 21.0523 27.1781 21.0334C28.5476 20.8035 29.2825 19.803 28.8986 18.691C28.8233 18.4729 28.7687 18.3768 28.5471 18.0728C28.5117 18.0243 28.3558 17.852 28.2006 17.6899C28.0454 17.5277 27.89 17.3648 27.8554 17.328C27.8207 17.2911 27.6372 17.099 27.4475 16.901C25.5491 14.92 25.6813 15.1179 26.0207 14.7637C26.1464 14.6325 26.4759 14.2853 26.7531 13.9922C27.0302 13.699 27.2994 13.4149 27.3514 13.3608C28.8553 11.7963 28.9842 11.6044 28.9827 10.9342C28.9805 9.98827 28.3366 9.32898 27.2254 9.13471C27.0868 9.11053 26.8387 9.06258 26.6741 9.02824C26.5096 8.99391 26.2647 8.95185 26.1302 8.93484C25.9955 8.91776 25.8112 8.88303 25.7207 8.85759C25.63 8.83223 25.4709 8.80223 25.3669 8.79105C25.263 8.77987 25.0645 8.74443 24.9259 8.71222C24.7873 8.68001 24.596 8.64497 24.5007 8.63426C24.087 8.58796 23.596 8.44794 23.608 8.37982C23.6107 8.36407 23.6289 8.18823 23.6483 7.98899C23.6678 7.78976 23.7037 7.51902 23.7284 7.38728C23.753 7.25561 23.7885 6.99337 23.8072 6.80453C23.826 6.61577 23.8615 6.35354 23.886 6.22179C23.9105 6.09013 23.9463 5.82797 23.9655 5.63921C23.9847 5.45045 24.028 5.13514 24.0616 4.93843C24.2121 4.05802 24.0694 3.46614 23.5963 3.00908C23.14 2.56817 22.3894 2.38027 21.8465 2.57108C21.7479 2.60573 21.6525 2.63408 21.6343 2.63408C21.6162 2.63408 21.3785 2.74173 21.1059 2.87324C20.8334 3.00483 20.5184 3.15532 20.4058 3.20777C20.2931 3.26021 20.0522 3.37393 19.8703 3.46039C19.2513 3.75483 18.9729 3.88682 18.5945 4.06534C18.3866 4.16346 18.1762 4.26434 18.1269 4.28962C17.9872 4.36128 17.9014 4.29726 17.7444 4.00431C17.67 3.86571 17.565 3.67435 17.5108 3.57907C17.4566 3.48378 17.3843 3.34912 17.3502 3.27982C17.316 3.21052 17.2745 3.13256 17.2578 3.10657C17.2411 3.08059 17.1433 2.9034 17.0403 2.71283C16.8428 2.34689 16.6976 2.08048 16.5684 1.8466C16.5253 1.76863 16.4414 1.61271 16.3818 1.5001C15.9428 0.669932 15.8017 0.492747 15.3816 0.244847C15.0735 0.0630945 14.5214 -0.0444761 14.2161 0.0177354ZM14.5533 2.27971C14.598 2.32736 14.6976 2.48682 14.7747 2.63408C14.9852 3.0357 15.178 3.39432 15.2406 3.50032C15.2713 3.55229 15.3524 3.70113 15.4209 3.83106C15.4893 3.961 15.5807 4.1311 15.6239 4.20906C15.6671 4.28702 15.7715 4.47838 15.856 4.6343C15.9405 4.79022 16.0487 4.98867 16.0968 5.07529C16.1447 5.16192 16.2015 5.26823 16.2229 5.31154C16.348 5.56495 16.7549 6.0276 16.9084 6.09091C16.9696 6.11619 17.0408 6.15509 17.0668 6.17754C17.4487 6.50647 18.1235 6.47615 18.9253 6.09406C19.489 5.82537 19.8192 5.66937 21.209 5.01505C21.4169 4.91716 21.6421 4.80763 21.7094 4.77164C22.0951 4.56547 22.1444 4.67478 21.9976 5.40974C21.972 5.53763 21.9363 5.80884 21.9182 6.01248C21.9001 6.21612 21.8654 6.47836 21.841 6.59522C21.8166 6.71208 21.7874 6.92825 21.7761 7.07551C21.7647 7.22277 21.7251 7.51335 21.688 7.72125C21.6388 7.99703 21.6203 8.23123 21.6195 8.58748L21.6185 9.07573L21.7516 9.34646C21.9064 9.66154 22.4054 10.194 22.5459 10.194C22.5742 10.194 22.6536 10.2229 22.7221 10.2582C22.8753 10.337 23.382 10.4599 23.8267 10.5259C24.0092 10.5531 24.1898 10.5871 24.2279 10.6016C24.266 10.6161 24.457 10.6513 24.6522 10.6799C24.8475 10.7086 25.0424 10.7454 25.0852 10.7617C25.1282 10.778 25.2926 10.807 25.4508 10.8262C25.6089 10.8454 25.8036 10.8811 25.8834 10.9054C25.9631 10.9297 26.1512 10.9647 26.3013 10.9833C26.9154 11.059 27.0257 10.8906 24.9436 13.0572C23.9978 14.0415 23.8712 14.2171 23.7561 14.704C23.6596 15.1124 23.7221 15.6626 23.8937 15.9162C24.1221 16.2537 24.1755 16.3279 24.2322 16.3863C24.3127 16.4693 25.2792 17.4862 25.6347 17.862C26.2783 18.5423 26.5064 18.7798 26.5875 18.8541C26.6352 18.8977 26.6741 18.9468 26.6741 18.9633C26.6741 18.9796 26.6973 19.0187 26.7256 19.0499C26.7899 19.121 26.7255 19.1513 26.4379 19.1851C26.334 19.1973 26.1709 19.2269 26.0757 19.2508C25.9804 19.2748 25.749 19.317 25.5616 19.3447C25.3741 19.3724 25.1876 19.4076 25.1472 19.423C25.1067 19.4384 24.9553 19.4669 24.8108 19.4862C24.6662 19.5056 24.4345 19.5477 24.2959 19.5798C24.1573 19.6118 23.9589 19.6472 23.8549 19.6584C23.751 19.6696 23.5951 19.6985 23.5085 19.7226C23.4218 19.7466 23.2639 19.7804 23.1574 19.7974C23.0508 19.8144 22.9015 19.8566 22.8255 19.8912C22.7495 19.9259 22.6452 19.9642 22.5939 19.9764C22.4549 20.0094 22.0105 20.3952 21.8658 20.6084C21.6086 20.9873 21.537 21.6493 21.6762 22.3583C21.7057 22.5086 21.744 22.785 21.7613 22.9725C21.7786 23.1601 21.814 23.4294 21.8401 23.571C21.8661 23.7127 21.9017 23.982 21.9194 24.1695C21.9369 24.3571 21.9792 24.6717 22.0133 24.8689C22.1298 25.5433 22.1065 25.6041 21.7901 25.4515C21.6957 25.4061 21.4484 25.2865 21.2405 25.1859C21.0326 25.0852 20.6357 24.8942 20.3585 24.7614C20.0813 24.6286 19.6561 24.4236 19.4135 24.306C18.297 23.7642 18.0863 23.7005 17.6447 23.771C17.4479 23.8024 17.0895 23.9527 16.8247 24.1148C16.712 24.1839 16.3119 24.6765 16.2025 24.8809C16.1632 24.9544 16.0695 25.1279 15.9942 25.2665C15.9188 25.4051 15.824 25.5822 15.7834 25.6602C15.7429 25.7382 15.6708 25.8728 15.6233 25.9594C15.5759 26.0461 15.4678 26.2445 15.3832 26.4004C15.2986 26.5564 15.1899 26.7548 15.1417 26.8414C15.0934 26.9281 15.036 27.0344 15.014 27.0777C14.7129 27.6699 14.5319 27.9439 14.4417 27.9439C14.4183 27.9439 14.2167 27.5951 14.0413 27.2509C14.0059 27.1816 13.9381 27.0541 13.8905 26.9674C13.8429 26.8808 13.735 26.6824 13.6508 26.5264C13.5665 26.3705 13.4622 26.1792 13.4189 26.1012C13.3757 26.0232 13.2871 25.8591 13.2221 25.7364C12.514 24.4011 12.235 24.0503 11.7591 23.8971C11.6898 23.8748 11.6173 23.844 11.598 23.8287C11.4686 23.7266 10.7657 23.7383 10.5622 23.8458C10.5102 23.8733 10.4485 23.8959 10.4251 23.8961C10.4016 23.8962 10.3165 23.931 10.2361 23.9736C10.1556 24.0162 9.97627 24.1029 9.83768 24.1665C9.5578 24.2948 9.13374 24.4939 8.70369 24.6991C8.54777 24.7735 8.26428 24.9077 8.0737 24.9974C7.88313 25.0871 7.58231 25.2313 7.40513 25.318C7.01516 25.5088 6.90696 25.5148 6.91051 25.3452C6.9146 25.1448 6.98831 24.485 7.0495 24.101C7.08257 23.8931 7.12368 23.5883 7.14085 23.4237C7.15801 23.2592 7.19298 22.9898 7.21865 22.8252C7.45876 21.285 7.39914 20.8784 6.85554 20.3461C6.54378 20.0409 6.35769 19.9352 5.94749 19.8305C5.65352 19.7555 5.24797 19.6718 5.04566 19.6442C4.9221 19.6273 4.78445 19.5997 4.7398 19.5827C4.69515 19.5658 4.49859 19.5285 4.30298 19.4999C4.10737 19.4713 3.92522 19.4364 3.89837 19.4221C3.87144 19.4079 3.69425 19.3733 3.50463 19.3453C3.31492 19.3173 3.09395 19.275 3.01347 19.2513C2.93299 19.2276 2.78416 19.1986 2.68273 19.1869C2.14109 19.1245 2.13196 19.0708 2.58335 18.6043C3.71559 17.4343 4.6946 16.4034 4.7487 16.3242C4.77366 16.2875 4.80272 16.2505 4.81335 16.2419C4.8239 16.2332 4.87832 16.1574 4.93431 16.0733C5.50847 15.2117 5.34798 14.4355 4.39024 13.4414C4.23321 13.2785 4.06933 13.107 4.02602 13.0606C3.98271 13.014 3.6485 12.6654 3.28334 12.2858C2.23268 11.1937 2.26205 11.2267 2.26205 11.1334C2.26205 11.042 2.23473 11.0516 2.76604 10.9566C3.0215 10.911 3.43454 10.8307 3.77403 10.7607C3.93861 10.7268 4.17832 10.6843 4.30676 10.6664C4.4352 10.6484 4.61238 10.6134 4.7005 10.5884C4.78862 10.5635 4.98061 10.5273 5.12716 10.5079C5.27372 10.4886 5.41546 10.4612 5.44216 10.4473C5.46886 10.4334 5.59706 10.4048 5.72699 10.384C5.85693 10.3631 6.02703 10.3193 6.10499 10.2867C6.18295 10.2541 6.30651 10.2124 6.37951 10.194C6.47889 10.169 6.57937 10.0971 6.77939 9.90771C7.39379 9.32615 7.466 8.90193 7.21897 7.3275C7.19314 7.16292 7.15794 6.8936 7.14069 6.72901C7.12344 6.56443 7.08202 6.25967 7.04863 6.05178C7.01524 5.84388 6.97343 5.52495 6.95571 5.34304C6.93807 5.16113 6.91484 4.94567 6.90413 4.86425C6.87704 4.6569 6.96414 4.63556 7.26149 4.77668C7.37906 4.83243 7.62405 4.9489 7.80596 5.03537C7.98787 5.12191 8.27136 5.25626 8.43595 5.3339C8.60053 5.41163 8.86277 5.53644 9.01869 5.61133C9.17461 5.68622 9.42976 5.80695 9.58568 5.87955C9.7416 5.95216 9.98257 6.06532 10.1212 6.13108C10.2598 6.19691 10.4299 6.26802 10.4992 6.2892C10.5685 6.31039 10.6432 6.34204 10.6652 6.35953C10.8353 6.49466 11.5951 6.38008 11.9003 6.17336C11.9607 6.13249 12.026 6.09902 12.0456 6.09902C12.1556 6.09902 12.6604 5.50172 12.7998 5.20664C12.8258 5.15176 12.868 5.07135 12.8937 5.02804C12.9712 4.89724 13.3835 4.13708 13.4318 4.03581C13.4567 3.98384 13.4978 3.90587 13.5233 3.86256C13.5488 3.81925 13.6386 3.65624 13.7228 3.50032C13.807 3.3444 13.9301 3.1176 13.9963 2.99633C14.1738 2.67117 14.2951 2.4443 14.3625 2.31121C14.434 2.17002 14.4483 2.16765 14.5533 2.27971Z" fill="#868D8D"/>
</svg>
