<svg width="19" height="19" viewBox="0 0 19 19" fill="none" xmlns="http://www.w3.org/2000/svg">
<path fill-rule="evenodd" clip-rule="evenodd" d="M9.13922 0.02484C9.08841 0.0414928 8.99203 0.0834787 8.92504 0.118105C8.72879 0.219579 5.73506 2.80492 5.68425 2.91677C5.44291 3.4481 6.04349 3.93764 6.50609 3.58665C6.56789 3.53976 7.12352 3.06853 7.74076 2.53951L8.86305 1.57761L8.88145 7.61423C8.899 13.353 8.90315 13.6558 8.96641 13.7523C9.17974 14.0779 9.68885 14.0779 9.90218 13.7523C9.96544 13.6558 9.96959 13.353 9.98714 7.61423L10.0055 1.57761L11.1278 2.53951C11.7451 3.06853 12.3033 3.54193 12.3683 3.59151C12.8256 3.94028 13.4244 3.44518 13.1843 2.91677C13.1274 2.79157 10.1259 0.211701 9.90586 0.0989049C9.73475 0.0112064 9.30683 -0.030119 9.13922 0.02484ZM0.606609 7.78227C0.371441 7.89181 0.195667 8.06753 0.0861736 8.30275L-1.52588e-05 8.48777V12.9473V17.4068L0.0864567 17.5925C0.134811 17.6964 0.249258 17.8454 0.346156 17.9307C0.67907 18.2237 -0.150834 18.1992 9.43949 18.1992C19.1732 18.1992 18.2371 18.2304 18.5645 17.8955C18.8948 17.5577 18.8676 18 18.8681 12.9473L18.8686 8.48777L18.7824 8.30275C18.6729 8.06753 18.4972 7.89181 18.262 7.78227L18.0769 7.69612L16.0314 7.69589C14.0686 7.6957 13.9812 7.69858 13.8682 7.7675C13.5087 7.98663 13.5378 8.55485 13.9165 8.71308C14.0154 8.7544 14.3994 8.76422 15.9197 8.76422H17.8005V12.9473V17.1304H9.4343H1.06808V12.9473V8.76422H2.9489C4.46916 8.76422 4.85317 8.7544 4.95205 8.71308C5.33082 8.55485 5.35988 7.98663 5.0004 7.7675C4.88742 7.69858 4.79996 7.6957 2.83714 7.69589L0.791677 7.69612L0.606609 7.78227Z" fill="#878A8C"/>
</svg>
