<svg width="21" height="21" viewBox="0 0 21 21" fill="none" xmlns="http://www.w3.org/2000/svg">
<path fill-rule="evenodd" clip-rule="evenodd" d="M9.00157 0.0067151C5.3963 0.148562 2.07641 2.74919 1.19084 6.12524C1.14719 6.2917 1.08523 6.52936 1.05313 6.65344C0.810855 7.58942 0.806475 9.3674 1.0439 10.3623C1.21457 11.0771 1.44323 11.7406 1.75185 12.4163C2.62563 14.3293 4.72012 16.1121 6.83524 16.7431C8.18975 17.1472 9.74648 17.2605 10.8812 17.0375C11.0214 17.0099 11.2149 16.9715 11.3113 16.9522C11.7832 16.8573 12.5011 16.6085 13.1433 16.3173C13.4957 16.1576 14.2043 15.7203 14.594 15.4222C14.7962 15.2675 14.9822 15.141 15.0074 15.141C15.0326 15.141 16.172 16.2592 17.5395 17.6259C18.9069 18.9926 20.0417 20.1108 20.0613 20.1108C20.1457 20.1108 20.8686 19.3078 20.8686 19.214C20.8686 19.1757 19.9464 18.234 18.3837 16.6767C17.017 15.3146 15.8988 14.1778 15.8988 14.1503C15.8988 14.1228 16.0549 13.8879 16.2456 13.6283C16.4364 13.3687 16.6514 13.0473 16.7234 12.9141C16.7955 12.781 16.9051 12.5805 16.9669 12.4687C17.0698 12.2826 17.1754 12.0369 17.4135 11.4296C17.9082 10.1681 18.0298 8.11946 17.6925 6.73054C17.597 6.33741 17.4232 5.74295 17.3502 5.56008C16.9024 4.43749 16.6592 4.0028 16.0302 3.1999C14.3827 1.09721 11.7448 -0.101203 9.00157 0.0067151ZM10.3063 1.3504C16.2849 2.0969 18.8052 9.37386 14.5781 13.6847C13.7125 14.5675 12.1689 15.431 11.0883 15.6372C10.4798 15.7532 10.2999 15.7788 9.87391 15.8099C6.40317 16.0631 2.98037 13.4976 2.32975 10.1552C2.17198 9.34487 2.12825 8.78465 2.17142 8.12646C2.1989 7.70634 2.22924 7.48517 2.32983 6.96947C3.01478 3.45779 6.65373 0.894352 10.3063 1.3504Z" fill="#878A8C"/>
</svg>
