<svg width="22" height="30" viewBox="0 0 22 30" fill="none" xmlns="http://www.w3.org/2000/svg">
<path fill-rule="evenodd" clip-rule="evenodd" d="M7.88712 0.107801C7.80092 0.153423 7.41217 0.415235 7.09863 0.638947C7.02059 0.694573 6.82902 0.826544 6.67292 0.93212C6.51683 1.0377 6.32526 1.1691 6.24721 1.22409C6.16916 1.27915 5.98 1.40963 5.82689 1.51407C5.56614 1.69202 5.45042 1.77553 4.89104 2.1896C4.63284 2.38075 4.63916 2.38131 4.38827 2.14362C3.72969 1.51967 2.75872 1.21642 2.04686 1.41225C1.70749 1.50562 1.62902 1.53266 1.44902 1.61837C0.846137 1.90544 0.352028 2.48306 0.174932 3.10772C0.148396 3.20138 0.108521 3.343 0.0863128 3.42239C-0.167269 4.33043 0.532175 5.62325 1.48839 6.01398C2.00138 6.2235 2.81271 6.23947 3.00833 6.04385C3.01563 6.03654 2.82151 6.0298 2.57687 6.02881C0.944973 6.02256 -0.0294808 4.58125 0.540547 3.01697C0.998329 1.7607 2.68911 1.32228 3.79497 2.17321C4.50172 2.71706 4.83562 3.83427 4.51535 4.58352C4.34215 4.9888 4.2099 5.21747 4.05075 5.38705C3.89068 5.55762 3.99725 5.58181 4.23218 5.4282C4.91211 4.98376 5.27304 3.92721 5.00066 3.17867C4.95801 3.0616 4.90253 2.89728 4.8772 2.81355L4.83122 2.66129L4.92899 2.58104C5.03918 2.49065 5.34733 2.29936 6.13369 1.83321C6.6671 1.51698 7.33306 1.09495 7.55272 0.933894C7.77998 0.767299 7.8757 0.729197 7.948 0.776522C8.08366 0.865425 8.47794 1.76112 8.84292 2.80972C9.00284 3.26913 9.01121 3.24976 8.61062 3.34725C8.35129 3.41033 7.88819 3.54379 7.66625 3.61935C7.21301 3.77374 7.19073 3.78311 6.60197 4.06706C4.66271 5.00235 3.26475 6.52278 3.09503 7.88122C3.07601 8.03313 2.91843 8.17269 2.76439 8.17397C2.71764 8.17439 2.32407 8.35837 2.10362 8.48289C1.25078 8.96466 0.588794 9.95167 0.473994 10.9124C0.420425 11.3608 0.462925 12.0849 0.552538 12.2525C0.57056 12.2861 0.585247 12.3342 0.585247 12.3596C0.585247 12.5255 1.01791 13.2892 1.23474 13.506C1.4427 13.714 1.48612 13.7939 1.5221 14.0343C1.56091 14.2944 1.64307 14.6692 1.69309 14.8148C1.93149 15.5084 2.14172 15.9526 2.4576 16.4301C2.58581 16.6238 2.7055 16.7983 2.7236 16.8178C2.74162 16.8372 2.80079 16.9086 2.85507 16.9763C3.03642 17.2025 3.60496 17.7535 3.84904 17.9395C4.11567 18.1428 4.46589 18.3908 4.48625 18.3908C4.49342 18.3908 4.56693 18.4308 4.64951 18.4797C4.90388 18.6304 5.26822 18.8136 5.58026 18.9476C5.74416 19.018 5.9038 19.0869 5.93502 19.1007C6.10658 19.1767 6.49653 19.3238 6.64454 19.3684C6.7382 19.3966 6.86591 19.4365 6.92835 19.457C6.99079 19.4774 7.09615 19.5082 7.16249 19.5254C7.33767 19.5707 7.33058 19.6641 7.13766 19.8524C6.70237 20.2772 6.12609 21.208 5.90763 21.839C5.80064 22.148 5.64497 22.6997 5.6073 22.9033C5.58849 23.0048 5.56054 23.1261 5.54514 23.1729C5.51534 23.2636 5.48086 23.4533 5.38266 24.0669C5.26857 24.78 5.26034 24.8748 5.25828 25.5001C5.25601 26.2036 5.28163 26.3309 5.47398 26.571C5.54025 26.6537 5.60055 26.7868 5.66377 26.9901C5.81455 27.4749 6.07544 27.9551 6.18804 27.9551C6.20797 27.9551 6.25381 27.9806 6.28978 28.0118C6.32575 28.0431 6.37634 28.0686 6.40224 28.0686C6.42807 28.0686 6.47397 28.0873 6.50434 28.1103C6.53464 28.1332 6.5777 28.1523 6.60012 28.1528C6.63702 28.1537 6.82646 28.2321 6.94843 28.2971C6.97503 28.3113 7.04875 28.3313 7.11218 28.3414C7.17569 28.3516 7.23444 28.3709 7.24281 28.3846C7.26892 28.4267 7.45162 28.4116 7.53243 28.3605C7.57479 28.3337 7.66561 28.2698 7.73422 28.2186C7.89436 28.0989 7.91132 28.1003 8.16014 28.2552C8.50015 28.4668 9.05776 28.7199 9.42586 28.8298C9.88577 28.9671 11.7536 28.9879 12.0511 28.8591C12.0901 28.8422 12.2689 28.8196 12.4484 28.8087C12.6279 28.7979 12.8027 28.7739 12.8368 28.7552C12.8709 28.7366 12.9503 28.7214 13.0132 28.7214C13.076 28.7214 13.1823 28.7032 13.2492 28.6809C13.3161 28.6587 13.4449 28.6316 13.5355 28.6207C13.7237 28.5981 13.748 28.5342 13.6079 28.43C13.5331 28.3744 13.5316 28.3744 13.2531 28.4335C12.4549 28.6031 10.7448 28.6762 10.6151 28.5463C10.5674 28.4986 10.7184 27.7569 10.8885 27.203C11.3746 25.62 11.5055 23.311 11.2143 21.4559C11.1911 21.3076 11.1794 21.1379 11.1885 21.0788C11.1987 21.0122 11.1916 20.9554 11.1699 20.9291C11.114 20.8619 11.1559 20.8494 11.42 20.8547C11.6538 20.8594 11.7332 20.8507 12.1504 20.7746C12.4164 20.7261 12.6089 20.6511 12.8425 20.5048C13.2113 20.274 13.3131 20.1765 13.4398 19.9334C13.4742 19.8673 13.5286 19.8084 13.5637 19.7989C13.6965 19.7633 13.6764 19.7314 13.856 20.2639C13.8955 20.381 13.9398 20.4889 13.9544 20.5037C13.969 20.5185 13.981 20.5613 13.981 20.5986C13.981 20.636 13.9993 20.7005 14.0216 20.742C14.1024 20.8917 14.208 21.1411 14.208 21.1822C14.208 21.3541 14.3065 21.3315 14.5486 21.104C14.65 21.0087 14.7696 20.9052 14.8142 20.874C14.8589 20.8428 14.91 20.8043 14.9278 20.7883C14.9903 20.7322 15.2822 20.5477 15.3085 20.5477C15.3231 20.5477 15.3912 20.5062 15.4597 20.4555C15.5938 20.3563 15.6941 20.3036 15.9392 20.2036C16.1655 20.1112 16.2245 20.0609 16.1866 19.9925C16.1493 19.9253 15.7751 19.4359 15.6563 19.2989C15.6088 19.2443 15.5765 19.1826 15.5843 19.1618C15.5922 19.141 15.5987 19.1142 15.5987 19.1021C15.5987 19.0901 15.7232 19.0251 15.8754 18.9577C16.5955 18.6387 17.483 18.0183 18.0042 17.4694C18.2423 17.2187 18.7773 16.5482 18.7773 16.5005C18.7773 16.489 18.7951 16.4594 18.8167 16.4347C18.8384 16.4101 18.8905 16.3197 18.9326 16.2338C18.9746 16.148 19.0188 16.0586 19.0308 16.0352C19.5093 15.101 19.7126 13.6452 19.4985 12.6854C19.4458 12.4486 19.3711 12.1682 19.2873 11.8916C19.1906 11.5728 19.1892 11.536 19.2664 11.3441C19.9209 9.71824 19.1961 7.88434 17.6045 7.13921C17.4861 7.08379 17.3706 7.03845 17.3476 7.03845C17.2868 7.03845 17.1297 6.87158 17.0814 6.7555C16.6834 5.79978 16.4109 5.51866 15.6224 5.24997C15.3184 5.14645 14.8243 4.92714 14.6479 4.81745C14.4952 4.72251 14.1111 4.469 13.8912 4.31802C13.6842 4.17583 13.5409 4.08558 13.0728 3.80248C12.5397 3.48007 11.3317 3.21188 10.2965 3.18612C9.55144 3.1676 9.65524 3.23316 9.43082 2.63944C9.34533 2.4131 9.22435 2.11297 9.16199 1.97249C9.02335 1.66016 8.76785 1.1112 8.72875 1.04174C8.713 1.01371 8.66099 0.918568 8.61324 0.830304C8.56549 0.74204 8.45793 0.567001 8.37428 0.441346C8.10721 0.0403963 8.06684 0.012725 7.88712 0.107801ZM10.9241 3.59119C12.0756 3.71571 12.9776 4.04159 13.6357 4.57096C14.1672 4.99845 14.6586 5.24401 15.5631 5.5342C15.9399 5.65503 16.0421 5.73933 16.0971 5.97418C16.2454 6.60728 15.8987 7.6275 15.5319 7.63771C15.4671 7.63956 15.4361 7.6468 15.4629 7.65382C15.492 7.66148 15.5192 7.70696 15.5305 7.76678C15.5487 7.86398 15.5522 7.86632 15.652 7.84865C16.0329 7.78125 16.0092 7.77536 16.6886 8.10586C17.1236 8.31736 17.784 8.97104 17.784 9.19007C17.784 9.20639 17.8 9.23662 17.8195 9.25719C17.8755 9.31644 18.2217 10.0577 18.3539 10.4016C18.4199 10.5733 18.4965 10.7648 18.524 10.8273C18.5779 10.9494 18.7794 11.521 18.8342 11.7071C18.8526 11.7695 18.8923 11.9036 18.9225 12.0051C19.2802 13.2096 19.3231 14.0778 19.0645 14.8857C19.0496 14.9326 19.0032 15.0858 18.9615 15.2263C18.9199 15.3668 18.8747 15.5073 18.8612 15.5385C18.8477 15.5697 18.8031 15.677 18.7623 15.7768C18.6978 15.9343 18.6202 16.082 18.4851 16.3043C18.0333 17.0481 17.1564 17.8852 16.3532 18.3397C16.09 18.4886 15.4737 18.7801 15.2865 18.8443C15.185 18.8791 15.0765 18.9186 15.0452 18.9321C14.7611 19.0554 13.9044 19.2774 13.4202 19.3532C13.3225 19.3685 13.2331 19.3868 13.2216 19.3939C13.197 19.4088 12.361 19.5283 11.7673 19.6016C11.1809 19.674 9.72315 19.6744 9.19881 19.6022C8.99589 19.5742 8.74685 19.54 8.64539 19.526C8.21946 19.4673 7.91508 19.4069 7.41082 19.2809C7.16937 19.2207 6.35037 18.957 6.26332 18.9116C6.22323 18.8907 6.17732 18.8735 6.16129 18.8734C6.07536 18.8729 5.27418 18.5098 4.82817 18.2692C3.39991 17.4989 2.31782 16.1761 1.86316 14.6445C1.69238 14.0693 1.72864 13.9742 2.05487 14.1422C2.3914 14.3156 2.74815 14.4177 3.0096 14.4155L3.23885 14.4136L3.11114 14.3754C2.11618 14.0775 1.50656 13.6048 1.09993 12.8159C0.140946 10.9551 1.22892 8.82197 3.3098 8.48325C3.93524 8.38143 3.92495 8.37718 4.53017 8.99517C5.05749 9.53369 5.28028 9.67517 5.76247 9.77791C6.16462 9.86355 7.03754 9.82282 7.38244 9.70234C7.42927 9.68595 7.53144 9.65566 7.60949 9.63501C7.82596 9.57768 8.70662 9.21384 9.15624 8.99602C9.79445 8.68681 9.73982 8.65772 8.98837 8.90662C8.71392 8.99751 8.31688 9.12657 8.10615 9.19341C7.89542 9.26024 7.67214 9.33595 7.60998 9.36156C7.52193 9.39796 7.40891 9.40754 7.09913 9.40513C6.20138 9.3981 5.46674 8.8986 5.07147 8.0266C4.90813 7.66624 4.96319 7.5789 5.23969 7.75982C5.42445 7.88072 5.56529 7.9531 5.80057 8.04803C6.6168 8.37753 7.44027 8.41216 8.48929 8.16098C8.58295 8.13856 8.76175 8.09585 8.88662 8.06612C9.0115 8.03639 9.34639 7.93351 9.63084 7.83744C10.2332 7.63403 10.2257 7.63502 10.2764 7.75507L10.3155 7.84731L10.346 7.76742C10.3628 7.7235 10.3766 7.67674 10.3766 7.66354C10.3766 7.5083 11.538 7.41138 11.7888 7.54562C11.8604 7.58393 11.9943 7.58819 11.9943 7.55208C11.9943 7.53803 11.9592 7.51192 11.9163 7.49411C11.8733 7.4763 11.7871 7.43508 11.7247 7.40258C11.484 7.27714 11.0014 7.21158 10.7163 7.26564C10.2674 7.35079 10.3657 7.0767 10.8733 6.8278C11.4553 6.54243 11.7387 6.47084 12.2865 6.47084C12.8413 6.47084 12.867 6.49468 12.7606 6.91074C12.7294 7.03278 12.7038 7.22485 12.7038 7.33752C12.7038 7.58649 12.6786 7.61466 12.4373 7.63445C12.2691 7.64829 12.1506 7.76337 12.1379 7.92535C12.1354 7.9565 12.2778 7.95139 12.5072 7.91201C12.6982 7.87931 12.715 7.88087 12.82 7.94125C12.9077 7.99176 12.9309 7.99638 12.9309 7.96331C12.9309 7.86121 13.043 7.83312 13.4501 7.83312C13.8093 7.83312 13.8424 7.82879 13.8337 7.78345C13.8231 7.72867 13.3666 7.63899 13.0834 7.63601C12.88 7.63381 12.8635 7.60529 12.8802 7.28636C12.8951 7.00177 12.9531 6.84355 13.1008 6.6837C13.1442 6.63687 13.1881 6.55038 13.1985 6.49149C13.2583 6.15468 13.8437 5.90209 14.174 6.07067C14.4898 6.23173 14.5995 6.49787 14.6727 7.27969C14.716 7.74336 14.7836 7.77125 14.9163 7.38009C15.141 6.71704 14.8545 6.01611 14.0128 5.16894C12.5313 3.67796 11.0703 3.84165 9.09643 5.71974C8.44211 6.34235 8.03108 6.65212 7.50937 6.91592C7.06351 7.14134 6.50569 7.33007 6.09495 7.39449C5.68108 7.45934 5.65611 7.47346 5.67938 7.62877L5.69847 7.75599L5.61808 7.73953C5.57388 7.73052 5.3872 7.63289 5.20322 7.5227C4.82888 7.29835 4.82881 7.29835 4.78298 7.38399C4.61326 7.701 5.18563 8.72896 5.71947 9.06598C5.7834 9.10635 5.83569 9.15112 5.83569 9.16545C5.83569 9.17978 5.86329 9.20036 5.89706 9.21107C6.06231 9.26351 5.85605 9.28678 5.66909 9.23683C5.38706 9.16134 5.22784 9.04278 4.74282 8.54689C4.25623 8.04945 4.12937 7.96594 3.8049 7.92947C3.53578 7.89924 3.51258 7.84085 3.6327 7.49702C3.95412 6.57713 4.27297 6.23109 5.35903 5.62389C6.00739 5.26132 6.99944 4.9739 8.2814 4.77708C8.52321 4.73997 8.58699 4.72046 8.59749 4.68037C8.65333 4.46694 6.1129 4.96985 5.57352 5.27899C5.54642 5.29453 5.48987 5.30723 5.44779 5.30723H5.37138L5.46873 5.21932C5.62908 5.07443 5.88614 4.9006 6.2614 4.68306C7.78892 3.79766 9.38243 3.42452 10.9241 3.59119ZM12.5681 4.51803C12.8017 4.59593 12.9902 4.72166 12.9161 4.75011C12.8933 4.75884 12.8076 4.77424 12.7255 4.78438C11.8362 4.89415 11.0073 5.50866 10.5517 6.39599C10.4345 6.62402 10.3885 6.73301 10.3608 6.84738C10.3343 6.95693 10.2197 7.04101 9.56776 7.42919C8.84703 7.85838 8.4641 7.98999 7.63801 8.09259C6.89252 8.18518 6.36641 8.09379 6.07785 7.82162C5.91778 7.67071 5.94361 7.6363 6.27559 7.55782C7.48887 7.27118 8.17632 6.87229 9.3681 5.76324C9.96154 5.21109 10.2581 4.99327 10.8322 4.6881C11.3657 4.40451 12.0318 4.3393 12.5681 4.51803ZM13.293 5.07635C13.5691 5.13709 13.7432 5.24515 14.0059 5.51866C14.2478 5.77069 14.2424 5.81808 13.9712 5.81808C13.6049 5.81808 13.402 5.91259 13.0797 6.23351C12.8696 6.4426 12.7724 6.49056 12.7133 6.41429C12.6639 6.35058 11.8164 6.33511 11.6302 6.39457C11.5573 6.41784 11.453 6.44515 11.3983 6.45537C11.2263 6.48744 10.9476 6.60586 10.7761 6.71981C10.5233 6.88775 10.6327 6.52356 10.9747 6.05932C11.5414 5.2897 12.4711 4.89549 13.293 5.07635ZM16.5936 6.34653C16.9617 6.95196 17.3304 8.04306 17.1951 8.12671C17.1792 8.13651 17.0467 8.08897 16.9004 8.02114C16.7542 7.95324 16.5643 7.87562 16.4785 7.84873C16.0052 7.70029 15.9849 7.68036 16.0846 7.46417C16.2309 7.14659 16.2846 6.89776 16.3006 6.46311L16.3159 6.04385L16.404 6.11175C16.4524 6.14907 16.5377 6.25472 16.5936 6.34653ZM10.2347 7.27401C10.2347 7.33596 10.1711 7.37902 10.08 7.37888L9.99347 7.37874L10.0786 7.30892C10.1731 7.23159 10.2347 7.21775 10.2347 7.27401ZM17.5769 7.47006C17.9829 7.64538 18.5332 8.16964 18.7918 8.62778C18.8947 8.80998 18.916 8.86029 19.0451 9.22555C19.2367 9.76755 19.1978 10.8131 18.9861 10.8131C18.9643 10.8131 18.9353 10.7844 18.9217 10.7492C18.393 9.38065 18.0544 8.72158 17.6716 8.31559C17.4841 8.11664 17.4249 7.98573 17.4002 7.71484C17.374 7.4272 17.3987 7.39307 17.5769 7.47006ZM11.8457 8.02348C11.8809 8.03029 11.932 8.03001 11.9592 8.02291C11.9863 8.01582 11.9574 8.01021 11.895 8.01057C11.8325 8.01085 11.8103 8.01667 11.8457 8.02348ZM9.69547 8.68454C9.69547 8.71704 9.73592 8.71704 9.83738 8.68454C9.90067 8.66425 9.89691 8.66148 9.8019 8.659C9.74337 8.65744 9.69547 8.66893 9.69547 8.68454ZM16.2913 10.3021C15.915 10.4787 15.6372 11.2893 15.8723 11.5249L15.9329 11.5857L15.9521 11.4051C15.9834 11.1097 16.0296 10.8903 16.0826 10.7847C16.2973 10.3567 16.7845 10.4412 17.0648 10.955C17.0946 11.0096 17.1516 11.1054 17.1915 11.1679C17.2315 11.2303 17.2731 11.3382 17.2841 11.4077C17.2951 11.4771 17.3194 11.5526 17.3383 11.5752C17.3973 11.6463 17.3844 12.5372 17.3227 12.6437C17.2956 12.6905 17.2734 12.7497 17.2733 12.7752C17.2725 12.9851 16.8526 13.1058 16.6472 12.9551C16.5244 12.8651 16.2582 12.5578 16.2054 12.445C16.1834 12.3982 16.1539 12.3407 16.1398 12.3173C16.1258 12.2939 16.0981 12.2315 16.0785 12.1786C16.0336 12.0582 15.9921 12.1361 15.9916 12.3415C15.9897 13.1083 16.9133 13.6571 17.3564 13.1523C17.7394 12.7161 17.7401 11.5581 17.3577 10.955C17.3429 10.9316 17.3133 10.8741 17.2919 10.8273C17.1254 10.4624 16.5704 10.1711 16.2913 10.3021ZM8.56024 11.228C8.05627 11.3596 7.58799 11.8285 7.54662 12.243C7.52711 12.4387 7.5843 12.4596 7.64454 12.2787C8.04598 11.074 9.94437 11.1695 10.2501 12.4098C10.2607 12.4529 10.2808 12.4951 10.2946 12.5037C10.3282 12.5244 10.3272 12.9621 10.2937 12.9829C10.2793 12.9917 10.2585 13.0404 10.2476 13.091C10.1963 13.3279 9.89868 13.7358 9.67972 13.8694C9.3852 14.0489 9.33078 14.0626 8.92919 14.0589L8.54605 14.0553L8.35065 13.9506C8.03775 13.7829 7.70492 13.3991 7.64099 13.132C7.62091 13.0482 7.5518 13.0022 7.50944 13.0445C7.46638 13.0876 7.53506 13.4539 7.61729 13.6197C8.21442 14.8244 10.0723 14.5591 10.4783 13.2113C10.8274 12.0523 9.73386 10.9215 8.56024 11.228ZM16.0332 15.1603C15.9581 15.2255 15.7817 15.3532 15.6412 15.4441C15.5008 15.5351 15.3191 15.6681 15.2375 15.7398C14.8634 16.0684 14.409 16.3035 13.9087 16.4275C12.8782 16.6829 11.8684 16.5927 10.8065 16.1505C10.5397 16.0393 10.4652 16.034 10.5385 16.1312C10.6286 16.2509 10.9048 16.4096 11.4125 16.6335C12.9213 17.2988 15.493 16.6519 16.1042 15.4534C16.2923 15.0845 16.2625 14.9614 16.0332 15.1603ZM12.6896 19.9229C12.6896 19.9761 12.3675 20.1352 12.1306 20.1989C11.893 20.2628 11.1283 20.2644 10.9584 20.2014C10.8005 20.1427 10.7748 20.0092 10.921 20.007C11.1154 20.0042 11.7932 19.9496 12.1078 19.9115C12.5169 19.8619 12.6896 19.8654 12.6896 19.9229ZM6.44588 26.8333C6.82256 26.9156 6.98653 26.9322 7.42643 26.9328C7.97439 26.9335 7.97269 26.9321 7.84881 27.2739C7.44197 28.3969 6.5098 28.2893 6.0494 27.0661C5.92842 26.7447 5.95879 26.7269 6.44588 26.8333Z" fill="#252521"/>
<path fill-rule="evenodd" clip-rule="evenodd" d="M13.5482 19.805C13.5209 19.8159 13.4714 19.8756 13.4382 19.9378C13.3374 20.1268 13.2119 20.2663 13.0461 20.3738C12.5449 20.6988 12.4998 20.7158 11.824 20.8327C11.7382 20.8475 11.5563 20.8574 11.42 20.8547C11.156 20.8494 11.114 20.8618 11.1699 20.9291C11.1916 20.9554 11.1987 21.0122 11.1885 21.0788C11.1794 21.1379 11.1911 21.3076 11.2144 21.4559C11.5055 23.311 11.3746 25.62 10.8885 27.203C10.7184 27.7569 10.5674 28.4986 10.6151 28.5463C10.7456 28.6771 12.4423 28.6034 13.2667 28.4313C13.5013 28.3823 13.5709 28.3769 13.6144 28.404C13.6853 28.4483 13.6846 28.4039 13.6134 28.3394C13.5072 28.2433 13.0728 27.4304 13.0728 27.3277C13.0728 27.3107 13.0552 27.2565 13.0337 27.2072C12.9667 27.0542 12.9045 26.8677 12.8759 26.7347C12.8609 26.6644 12.8358 26.5495 12.8203 26.4793C12.7163 26.0071 12.7038 25.8782 12.7038 25.2775C12.7038 24.6605 12.7328 24.376 12.8315 24.0243C12.8534 23.9463 12.879 23.8441 12.8884 23.7973C13.0216 23.1323 13.7324 21.8979 14.2399 21.4498C14.3971 21.3109 14.4096 21.2929 14.3392 21.3064C14.2536 21.3227 14.2092 21.2837 14.2085 21.1916C14.208 21.1425 14.1084 20.9029 14.0216 20.7419C13.9993 20.7005 13.981 20.636 13.981 20.5986C13.981 20.5612 13.969 20.5185 13.9544 20.5037C13.9398 20.4889 13.8956 20.3809 13.856 20.2639C13.6774 19.7343 13.6878 19.7497 13.5482 19.805ZM18.082 21.6008C17.6999 21.6381 17.4056 21.6861 17.3079 21.7269C17.2538 21.7495 17.1794 21.768 17.1427 21.768C17.0115 21.768 16.3409 22.0973 16.0946 22.2827C14.8093 23.2501 14.3135 24.711 14.7234 26.3232C14.7551 26.448 14.791 26.563 14.8031 26.5786C14.8152 26.5942 14.8402 26.6541 14.8588 26.7119C14.9927 27.1278 15.328 27.6114 15.7563 28.0064C16.0469 28.2743 16.4455 28.5336 16.7907 28.6792C16.8921 28.722 17.0154 28.7745 17.0645 28.7959C17.1138 28.8173 17.1753 28.8349 17.2013 28.8349C17.2272 28.8349 17.2763 28.8497 17.3102 28.8678C17.7285 29.0918 18.9608 29.0198 19.6429 28.7316C19.7678 28.6789 19.8786 28.6358 19.889 28.636C20.0178 28.6375 20.7067 28.1257 21.0213 27.7948C21.3384 27.4612 21.7169 26.8091 21.8178 26.4225C21.832 26.3679 21.862 26.2593 21.8843 26.1813C21.9809 25.844 22.0243 25.3804 21.9863 25.0914C21.9666 24.9415 21.9411 24.736 21.9297 24.6345C21.9182 24.533 21.8956 24.4245 21.8793 24.3933C21.8632 24.362 21.8416 24.2902 21.8314 24.2336C21.787 23.9878 21.4547 23.345 21.2023 23.0168C20.6243 22.2653 19.7017 21.7431 18.749 21.6281C18.377 21.5832 18.2958 21.58 18.082 21.6008Z" fill="#2CC93C"/>
<path fill-rule="evenodd" clip-rule="evenodd" d="M8.18725 0.13417C8.40848 0.356462 8.75508 0.953594 9.05656 1.63189C9.0843 1.69433 9.12999 1.7965 9.15809 1.85894C9.22847 2.01532 9.42238 2.48807 9.54229 2.79551C9.69023 3.17503 9.60423 3.1392 10.405 3.15459C10.7874 3.1619 11.0109 3.15913 10.9017 3.14842C10.7924 3.13771 10.4842 3.12735 10.2167 3.12543C9.65106 3.12132 9.71066 3.15623 9.55613 2.73874C9.50412 2.59826 9.43012 2.41307 9.39173 2.32722C9.35335 2.24137 9.31135 2.14559 9.29843 2.11437C9.28545 2.08315 9.24926 2.00013 9.2179 1.92989C9.18654 1.85965 9.12119 1.70739 9.07259 1.59159C8.98277 1.37711 8.78176 0.984529 8.55954 0.589256C8.40415 0.312969 8.22536 0.0857808 8.1119 0.020647C8.04592 -0.0172414 8.06458 0.0108556 8.18725 0.13417ZM7.57749 0.217326C7.40778 0.33688 7.1029 0.548458 6.89997 0.687524C6.55302 0.925284 6.09559 1.24052 5.38863 1.72917C5.22082 1.8451 5.07722 1.9477 5.06941 1.95707C5.0162 2.02128 4.68493 2.24208 4.64186 2.24208C4.61277 2.24208 4.54692 2.20064 4.4957 2.15006C3.5067 1.17397 2.19806 1.00936 1.11434 1.7247C0.543461 2.10153 0.100154 2.78791 0.0287049 3.40569C0.0223902 3.46033 0.0494229 3.38419 0.0888012 3.23661C0.257525 2.60394 0.679192 2.01354 1.16706 1.7269C1.2451 1.68106 1.32812 1.63175 1.35153 1.61742C2.2241 1.08166 3.62994 1.3085 4.41566 2.11188C4.61717 2.31786 4.66009 2.3175 4.9339 2.10727C5.24523 1.86816 5.71231 1.53859 6.54521 0.970197C6.74033 0.83702 6.95744 0.687808 7.02769 0.638567C7.09793 0.589327 7.2448 0.48744 7.35407 0.41216C7.46333 0.33688 7.57189 0.258974 7.5953 0.239108C7.61872 0.21917 7.71372 0.157229 7.80645 0.101461C7.89926 0.045622 7.9551 0 7.93062 0C7.90614 0 7.74721 0.0977718 7.57749 0.217326ZM7.82263 0.815734C7.78545 0.830279 6.97227 1.36249 6.7663 1.50695C6.72401 1.53668 6.68321 1.56094 6.67555 1.56094C6.66796 1.56094 6.54287 1.63573 6.3977 1.72711C6.25247 1.8185 6.01236 1.96111 5.86408 2.04405C5.71579 2.12693 5.43687 2.29707 5.24431 2.42201L4.89409 2.6492L4.90871 2.75073C4.91673 2.80657 4.97107 2.98637 5.02954 3.15027C5.29958 3.90739 5.04373 4.80039 4.40041 5.3463C3.99456 5.69063 3.56935 5.79053 3.90786 5.46195C5.48001 3.93599 4.04912 1.28962 1.9532 1.84702C0.204666 2.31204 -0.137181 4.71667 1.40829 5.68084C1.87388 5.97124 2.67883 6.09378 3.13704 5.94385C3.40091 5.85758 3.45199 5.92782 3.20856 6.04212C2.19671 6.51722 0.95853 6.08931 0.350827 5.05461C0.210058 4.81494 0.183096 4.74789 0.0873112 4.39902C0.0509129 4.26634 0.0203326 4.18879 0.0193393 4.22675C0.0159336 4.36397 0.196932 4.86794 0.325284 5.07831C0.969669 6.13486 2.22921 6.56532 3.23814 6.07384C3.49627 5.94811 3.61674 5.75725 3.38516 5.84097C3.33365 5.85956 3.259 5.87482 3.21913 5.87482C3.17925 5.87482 3.09234 5.89398 3.026 5.91739C2.94497 5.94598 2.79576 5.95996 2.57183 5.95996C2.33954 5.95996 2.20735 5.94705 2.1364 5.91739C2.08035 5.89398 2.00741 5.87482 1.97428 5.87482C1.90893 5.87482 1.41014 5.64415 1.3472 5.58484C1.32599 5.56483 1.26064 5.51538 1.20211 5.475C0.991948 5.33012 0.692602 4.87887 0.566875 4.51722C0.459029 4.20717 0.45321 3.32779 0.55829 3.22264C0.573119 3.20781 0.585252 3.17567 0.585252 3.15126C0.585252 2.98523 1.1965 2.18532 1.32336 2.18532C1.33663 2.18532 1.36437 2.16872 1.38495 2.14835C1.50011 2.03497 1.94072 1.88094 2.25085 1.84574C3.27617 1.72924 4.17705 2.3412 4.46355 3.34893C4.57403 3.73761 4.50676 4.51148 4.34145 4.753C4.32037 4.78379 4.30313 4.82572 4.30313 4.84616C4.30313 4.90384 4.05267 5.23526 3.85457 5.43981C3.66847 5.63188 3.64257 5.71149 3.76085 5.7283C3.84571 5.74037 4.21118 5.56149 4.33166 5.44897C4.49839 5.29323 4.50435 5.36141 4.33861 5.52822C3.96881 5.9005 3.57538 6.42356 3.38232 6.79975C3.23864 7.07972 3.25822 7.0976 3.40637 6.82174C3.82506 6.04198 4.4957 5.33388 5.40998 4.70638C5.65647 4.53716 6.20926 4.20035 6.24047 4.20035C6.24764 4.20035 6.34151 4.15232 6.44907 4.09357C7.01917 3.78216 8.3486 3.30558 8.69555 3.28834C8.76565 3.28479 8.76679 3.28323 8.70698 3.27188C8.58742 3.24903 7.59133 3.53277 7.2973 3.67332C7.25048 3.69574 7.05252 3.78195 6.8574 3.86489C6.29759 4.10294 5.45667 4.60343 4.92574 5.01467C4.6625 5.21851 4.6618 5.19389 4.91786 4.73959C5.23345 4.17949 5.25666 3.29614 4.96668 2.88143C4.91566 2.80842 4.91602 2.64991 4.96724 2.63026C4.9891 2.62182 5.15193 2.52035 5.3291 2.40463C5.50626 2.28891 5.68549 2.17631 5.72742 2.15431C5.96163 2.03157 6.25467 1.86086 6.43708 1.74095C6.55117 1.66595 6.68925 1.58052 6.74388 1.55108C6.79851 1.52156 6.9881 1.40002 7.16519 1.28089C7.91125 0.778981 7.89202 0.786573 7.991 0.954303C8.02435 1.01092 8.05862 1.05037 8.06699 1.04193C8.09778 1.01114 7.9297 0.789979 7.88081 0.796932C7.87209 0.798138 7.8459 0.806581 7.82263 0.815734ZM8.07785 1.08826C8.07785 1.10146 8.09636 1.14616 8.11907 1.18759C8.16732 1.27557 8.49738 2.06484 8.58969 2.31303C8.67384 2.53909 8.76594 2.75301 8.74855 2.68198C8.72642 2.59116 8.55961 2.12494 8.50491 2.00084C8.47738 1.93841 8.39294 1.74045 8.31724 1.56094C8.18583 1.24953 8.07813 1.03675 8.07785 1.08826ZM8.76168 2.78493C8.76019 2.81033 8.77807 2.87703 8.80148 2.93301C8.85321 3.05689 8.85704 3.2254 8.80858 3.24499C8.78183 3.25577 8.78162 3.25989 8.80759 3.26152C8.89273 3.26705 8.90153 3.15658 8.83263 2.94642C8.79517 2.83219 8.76324 2.75953 8.76168 2.78493ZM11.2848 3.22228C11.5255 3.27188 11.622 3.27081 11.4409 3.22058C11.3628 3.19887 11.2543 3.18184 11.1997 3.18269C11.1249 3.18383 11.146 3.19362 11.2848 3.22228ZM11.6963 3.29217C12.0252 3.3539 12.54 3.51361 12.8032 3.63551C13.0044 3.72867 13.0065 3.7293 12.9593 3.68191C12.8542 3.57619 11.8602 3.25854 11.6623 3.26734C11.5985 3.27017 11.6052 3.27507 11.6963 3.29217ZM-3.05176e-05 3.8314C-3.05176e-05 4.01091 0.00458139 4.08435 0.0102575 3.99459C0.0158627 3.90484 0.0158627 3.75797 0.0102575 3.66821C0.00458139 3.57846 -3.05176e-05 3.6519 -3.05176e-05 3.8314ZM9.60615 3.66105C9.39308 3.67325 9.17597 3.69681 9.12368 3.71348C9.07131 3.73016 8.94552 3.75158 8.84406 3.76116C8.74259 3.77067 8.61488 3.79557 8.56025 3.81643C8.50562 3.83729 8.37152 3.88192 8.26225 3.91562C8.15298 3.94925 8.03804 3.98764 8.00682 4.00091C7.9756 4.01418 7.85428 4.05433 7.73721 4.09009C7.62013 4.12578 7.49916 4.17162 7.46837 4.19191C7.43758 4.21213 7.39288 4.22916 7.36904 4.22973C7.3452 4.23022 7.2746 4.25534 7.21216 4.2855C7.14972 4.31565 7.07629 4.34077 7.04897 4.34126C7.02166 4.34183 6.99931 4.35404 6.99931 4.36844C6.99931 4.38284 6.84286 4.47316 6.65164 4.56923C6.46043 4.66523 6.25289 4.77506 6.19045 4.81324C6.12802 4.85148 6.05777 4.891 6.03436 4.90115C6.01095 4.91122 5.96135 4.94294 5.9241 4.97146L5.85641 5.0234H5.95631C6.0113 5.0234 6.09282 5.00431 6.13752 4.98097C6.18222 4.95769 6.24842 4.93854 6.28454 4.9384C6.32072 4.93832 6.37819 4.92335 6.41225 4.90512C6.44631 4.88681 6.55089 4.85581 6.64455 4.83608C6.8127 4.80068 6.93467 4.77045 7.21216 4.69546C7.40316 4.64387 7.68733 4.60116 8.06359 4.56753C8.23529 4.5522 8.43963 4.52794 8.51768 4.51361C8.83398 4.45557 9.09948 4.49566 9.09948 4.60144C9.09948 4.68041 8.88045 4.76634 8.59721 4.79855C8.46929 4.81309 8.33434 4.83651 8.29737 4.85056C8.26041 4.8646 8.1544 4.88454 8.06174 4.8949C7.89869 4.91307 7.66384 4.95996 7.33987 5.039C7.25402 5.05994 7.088 5.09868 6.97092 5.12507C6.85385 5.15146 6.68456 5.1968 6.59474 5.22589C6.50498 5.25505 6.41381 5.27882 6.39224 5.27882C6.37067 5.27882 6.31646 5.29791 6.27177 5.32125C6.22707 5.34452 6.15689 5.36368 6.11588 5.36382C6.07487 5.36389 6.02585 5.38263 6.0069 5.40547C5.98796 5.42825 5.94489 5.45521 5.91119 5.46528C5.78986 5.50175 5.12312 5.84552 4.9688 5.95123C4.88203 6.01069 4.7187 6.11676 4.60581 6.18701C4.4163 6.30493 4.27475 6.42072 4.27475 6.45776C4.27475 6.4662 4.25049 6.50771 4.2209 6.55C3.86188 7.06234 3.60674 7.64173 3.67989 7.77846C3.696 7.80854 3.759 7.83139 3.85805 7.84302C4.03266 7.86353 4.19124 7.92277 4.24502 7.98755C4.26517 8.01189 4.29405 8.03176 4.30916 8.03176C4.34407 8.03176 4.46668 8.14237 4.66889 8.35643C5.13554 8.8504 5.47725 9.13946 5.53103 9.08568C5.54564 9.07106 5.48548 8.98961 5.38728 8.89113C5.21976 8.72311 4.95589 8.38368 4.95589 8.33621C4.95589 8.32266 4.93673 8.29236 4.91332 8.26895C4.8899 8.24553 4.87075 8.20332 4.87075 8.17508C4.87075 8.14691 4.85166 8.10803 4.82839 8.08866C4.63689 7.9298 4.6078 7.33224 4.78681 7.23646C4.8418 7.20701 5.17726 7.37077 5.20656 7.44137C5.21181 7.45392 5.22728 7.46414 5.24105 7.46414C5.25481 7.46414 5.32065 7.50132 5.38728 7.5468C5.52798 7.64273 5.53919 7.64024 5.56402 7.50785C5.58438 7.39922 5.59765 7.39326 5.9776 7.32252C6.48334 7.22837 7.18314 7.02452 7.28311 6.94222C7.30653 6.92292 7.38316 6.88262 7.4534 6.85254C7.52364 6.82252 7.6322 6.76441 7.69463 6.7234C7.75707 6.68246 7.86485 6.61839 7.9341 6.58114C8.09842 6.49274 8.09353 6.49636 8.28531 6.32451C8.37606 6.2432 8.51101 6.1311 8.58522 6.0754C8.65944 6.0197 8.78495 5.91029 8.86413 5.83225C9.68824 5.01999 10.4495 4.45138 10.8094 4.37922C10.8524 4.37057 10.8875 4.35283 10.8875 4.33977C10.8875 4.32672 10.9417 4.30153 11.0081 4.28379C11.0744 4.26606 11.1415 4.24179 11.1571 4.22987C11.3886 4.05256 12.5532 4.06562 12.8308 4.2486C12.8616 4.26889 12.9099 4.2855 12.9381 4.2855C12.9664 4.2855 12.9968 4.30465 13.0057 4.32807C13.0157 4.35411 13.0568 4.36986 13.1113 4.36872L13.2005 4.36681L13.1296 4.33374C13.0905 4.31558 13.0417 4.2845 13.0211 4.26471C13.0005 4.24491 12.9605 4.22873 12.9323 4.22873C12.9041 4.22873 12.8652 4.20958 12.8457 4.18616C12.8263 4.16275 12.7893 4.14359 12.7634 4.14359C12.7376 4.14359 12.6909 4.12571 12.6598 4.10386C12.6286 4.08201 12.4565 4.01709 12.2774 3.95947C12.0983 3.90193 11.9134 3.83829 11.8666 3.81806C11.8198 3.79777 11.6729 3.76726 11.5402 3.75016C11.4075 3.73306 11.2224 3.70724 11.1287 3.69276C10.873 3.65324 10.0444 3.636 9.60615 3.66105ZM13.222 3.84183C13.3431 3.91222 13.7076 4.14622 14.0319 4.36184C14.7321 4.82728 14.7106 4.81345 14.8182 4.86326C14.865 4.8849 14.9864 4.94201 15.0878 4.99005C15.309 5.09484 15.8899 5.30919 15.9069 5.29223C15.9231 5.27598 15.7129 5.188 15.471 5.10989C15.1108 4.9936 14.6046 4.71944 14.0519 4.34126C13.4887 3.956 13.1786 3.76421 13.0675 3.7325C13.0314 3.72221 13.101 3.77138 13.222 3.84183ZM11.6254 4.48821C11.2195 4.52844 10.3486 4.96231 10.1195 5.23831C10.101 5.26059 10.0741 5.27882 10.0597 5.27882C10.0274 5.27882 10.0035 5.29869 9.71925 5.56235C9.59317 5.67928 9.46283 5.79386 9.42955 5.81692C9.39627 5.84005 9.27147 5.95265 9.1522 6.0671C9.03286 6.18154 8.86045 6.33324 8.76906 6.40419C8.6776 6.47514 8.59643 6.54198 8.58863 6.55262C8.55691 6.59612 8.31248 6.78009 8.21968 6.8304C8.16505 6.85999 8.06288 6.92122 7.99263 6.96656C7.57494 7.23575 6.5433 7.63443 6.26431 7.63443C6.15803 7.63443 6.09793 7.70197 6.14923 7.76377C6.46773 8.14755 7.93949 8.11647 8.88663 7.70602C8.93345 7.68572 9.0005 7.66047 9.03563 7.64989C9.07075 7.63925 9.09948 7.61867 9.09948 7.60413C9.09948 7.58958 9.1163 7.57766 9.1368 7.57766C9.15731 7.57766 9.25629 7.52268 9.35675 7.45549C9.58962 7.29975 10.0821 7.01005 10.114 7.01005C10.1701 7.01005 10.3135 6.81919 10.3275 6.72596C10.3422 6.62797 10.5346 6.18637 10.5746 6.15863C10.5859 6.15082 10.6003 6.12939 10.6065 6.11102C10.6127 6.09271 10.6523 6.03524 10.6943 5.9833C10.7363 5.93144 10.8336 5.80919 10.9105 5.7117C10.9873 5.61414 11.1184 5.48004 11.2019 5.4137C11.2852 5.34729 11.3923 5.25754 11.4398 5.21419C11.6159 5.0532 12.3542 4.73959 12.557 4.73959C12.6776 4.73959 12.6872 4.636 12.569 4.60996C12.5261 4.60045 12.4207 4.57292 12.3349 4.54873C12.1247 4.48955 11.8491 4.466 11.6254 4.48821ZM11.9632 4.62245C12.0424 4.64458 11.9799 4.73945 11.8858 4.73973C11.8597 4.73987 11.804 4.75782 11.7621 4.77968C11.7202 4.80153 11.6476 4.82778 11.6009 4.83807C11.5541 4.84836 11.5006 4.87511 11.482 4.89753C11.4634 4.91995 11.431 4.93825 11.4099 4.93825C11.3294 4.93825 11.1342 5.06497 11.0065 5.20021C10.9332 5.27783 10.8296 5.38149 10.7761 5.43066C10.7226 5.47983 10.5744 5.62223 10.4466 5.74711C10.2076 5.98082 10.1687 6.01559 10.028 6.12102C9.98269 6.15494 9.89748 6.22731 9.83859 6.2818C9.73961 6.3734 9.11637 6.81138 9.08508 6.81138C9.07742 6.81138 9.00902 6.85608 8.93296 6.91072C8.8569 6.96535 8.78431 7.01005 8.77161 7.01005C8.75019 7.01005 8.54613 7.09796 8.4458 7.15039C8.42189 7.16288 8.35804 7.1826 8.3039 7.19417C8.24976 7.20581 8.18988 7.2278 8.17079 7.2432C8.11907 7.28485 7.93786 7.31997 7.9204 7.29173C7.91203 7.27825 7.94722 7.24823 7.99859 7.22503C8.04996 7.2019 8.15582 7.14464 8.23387 7.09789C8.31192 7.05113 8.42686 6.98692 8.4893 6.9552C8.83618 6.7791 9.15624 6.57157 9.15624 6.52275C9.15624 6.50977 9.16859 6.4992 9.1837 6.4992C9.30879 6.4992 9.9993 5.88865 10.4192 5.40675C10.4972 5.31714 10.5807 5.22298 10.6046 5.19751C10.6968 5.0991 10.8591 4.88497 10.8591 4.86163C10.8591 4.84822 10.8942 4.82203 10.9371 4.80359C10.9801 4.78514 11.0343 4.75867 11.0578 4.74477C11.1744 4.67559 11.3102 4.62684 11.4125 4.61755C11.6064 4.59988 11.8918 4.60244 11.9632 4.62245ZM12.4482 5.16487C12.3622 5.17864 12.2536 5.20986 12.207 5.23419C12.1603 5.25853 12.1076 5.27854 12.0898 5.27868C12.0721 5.27875 12.021 5.29791 11.9763 5.32125C11.9316 5.34452 11.8737 5.36368 11.8477 5.36382C11.8217 5.36389 11.7962 5.3751 11.7909 5.3888C11.7857 5.40242 11.6817 5.49253 11.5599 5.5891C11.177 5.89234 10.7677 6.41065 10.7762 6.58157C10.7779 6.61598 10.7822 6.61747 10.794 6.58789C10.9548 6.18275 12.0561 5.93761 12.7364 6.15543C12.9552 6.22553 12.9686 6.22241 13.1347 6.06454C13.329 5.88007 13.7069 5.70453 13.9097 5.70453C14.0547 5.70453 14.0473 5.67793 13.8484 5.48387C13.5321 5.17516 13.0582 5.06724 12.4482 5.16487ZM16.1521 5.41775C16.4822 5.57781 16.6631 5.80876 17.0349 6.54453C17.2199 6.91072 17.3445 7.0617 17.4087 6.99749C17.418 6.9882 17.3869 6.96613 17.3398 6.94832C17.2675 6.92108 17.226 6.85864 17.0765 6.55333C16.6971 5.77861 16.2747 5.3055 15.9642 5.30742C15.9427 5.30756 16.0272 5.35722 16.1521 5.41775ZM14.7756 5.37787C14.7756 5.38546 14.8308 5.46528 14.8981 5.55525C15.2004 5.9589 15.5135 6.63535 15.5135 6.88496C15.5135 7.05737 15.3062 7.30904 15.1039 7.38219C15.024 7.41107 15.0027 7.43399 15.0026 7.4911L15.0025 7.56347L15.3432 7.55468C15.5629 7.54907 15.6838 7.53509 15.6838 7.5153C15.6838 7.49841 15.7223 7.422 15.7694 7.34551C15.9993 6.97195 16.1105 6.33636 16.0073 5.98643C15.9372 5.74867 15.9495 5.75675 15.3596 5.56093C15.1725 5.49877 14.9905 5.4291 14.9553 5.40597C14.8948 5.36631 14.7756 5.34765 14.7756 5.37787ZM13.6764 6.15572C13.3301 6.28414 13.2805 6.38773 13.4984 6.52751C13.764 6.69793 13.8542 6.86715 13.8333 7.15607C13.8079 7.50671 13.7216 7.50678 13.3708 7.15656C13.0841 6.87034 13.0288 6.84934 13.0013 7.01608C12.9903 7.08299 12.9698 7.15195 12.9559 7.16927C12.9266 7.20559 12.9083 7.50771 12.9337 7.53318C12.9431 7.54254 13.0772 7.55759 13.2317 7.56645C13.3863 7.57539 13.5702 7.59959 13.6404 7.62024C13.7106 7.64088 13.8223 7.66543 13.8885 7.6748C14.0316 7.69502 14.2469 7.80918 14.2595 7.87162C14.2675 7.91107 14.2006 7.91398 13.6439 7.89844L13.0194 7.88098L13.0012 7.95328C12.9902 7.99699 13.0008 8.05999 13.0279 8.11243C13.123 8.29641 13.0672 8.34387 12.9407 8.1865C12.7046 7.89241 12.7022 7.89219 11.8382 8.08795C11.7602 8.10569 11.6133 8.13818 11.5118 8.16018C11.2548 8.21602 11.0255 8.27349 10.9584 8.29889C10.9272 8.31067 10.8506 8.33962 10.7881 8.36317C10.678 8.40468 10.5898 8.44299 10.3167 8.56794C10.2448 8.60079 10.174 8.62775 10.1596 8.62775C10.1451 8.62775 10.0316 8.67075 9.90727 8.72325C9.62275 8.84352 9.02754 9.10171 8.91501 9.15365C8.61368 9.29271 8.36023 9.40531 8.26225 9.4437C8.19981 9.46818 8.13595 9.49755 8.12035 9.50898C8.07409 9.54303 7.36818 9.75646 7.18378 9.79222C7.09012 9.81038 6.96241 9.83621 6.89997 9.84962C6.47376 9.94129 5.70273 9.85501 5.29646 9.67011C4.96192 9.51792 4.86564 9.43405 4.1867 8.70339C3.99747 8.49976 3.90538 8.47563 3.46476 8.5143C1.56403 8.68132 0.352955 10.5575 0.966335 12.3848C1.29803 13.3728 1.97555 13.9829 3.08276 14.2906C3.53536 14.4163 3.51606 14.4053 3.38203 14.4613C3.16861 14.5505 2.49826 14.4221 2.08454 14.2129C1.82712 14.0827 1.79491 14.0922 1.82429 14.2897C1.84295 14.4152 2.10589 15.2332 2.14293 15.2812C2.15584 15.2978 2.1811 15.3553 2.1992 15.409C2.32826 15.7918 2.86983 16.5885 3.33052 17.073C4.26978 18.0611 5.99491 18.9348 7.7514 19.3121C7.84505 19.3322 7.97915 19.3621 8.04939 19.3787C10.7029 20.0015 14.9057 19.3492 16.7481 18.0284C16.8418 17.9612 16.9654 17.8752 17.0228 17.8372C17.793 17.3279 18.6627 16.1176 18.9296 15.1837C19.2671 14.0024 19.2592 13.3771 18.8899 12.0476C18.812 11.7669 18.5299 10.9575 18.3806 10.586C18.3524 10.5158 18.3064 10.4008 18.2785 10.3306C17.9737 9.56276 17.5918 8.89496 17.2747 8.57489C16.8242 8.12016 16.0133 7.77413 15.7024 7.90404C15.6464 7.92746 15.5741 7.94661 15.5419 7.94661C15.4825 7.94661 15.4743 7.9342 15.4451 7.8006C15.417 7.67153 14.932 7.61279 14.7937 7.72163C14.6789 7.81195 14.6191 7.78541 14.6283 7.64833C14.6324 7.58604 14.6162 7.40738 14.5924 7.25129C14.5685 7.09519 14.5482 6.91001 14.5475 6.83976C14.5419 6.35417 14.0926 6.00133 13.6764 6.15572ZM16.3978 6.55333C16.3962 6.67679 16.3755 6.83324 16.352 6.901C16.3283 6.96876 16.3084 7.04978 16.3076 7.081C16.3069 7.11222 16.2816 7.18885 16.2514 7.25129C16.2213 7.31372 16.1962 7.3856 16.1957 7.411C16.1951 7.4364 16.1755 7.47308 16.1521 7.49252C16.0896 7.54439 16.0967 7.66281 16.1623 7.66281C16.3018 7.66281 17.0159 7.943 17.0413 8.0077C17.0644 8.06631 17.1029 8.02353 17.1026 7.93952C17.1024 7.8382 17.0056 7.40965 16.9649 7.32983C16.9507 7.30223 16.9114 7.20304 16.8774 7.10938C16.8144 6.93569 16.704 6.69509 16.6756 6.66948C16.6669 6.66168 16.6309 6.59782 16.5955 6.52758C16.5354 6.40845 16.4651 6.32891 16.4199 6.32891C16.4094 6.32891 16.3994 6.42988 16.3978 6.55333ZM11.9092 6.58491C11.6225 6.63989 11.2282 6.75668 11.0954 6.82593C11.0513 6.84899 11.0036 6.86786 10.9896 6.868C10.8807 6.86871 10.5337 7.09824 10.5532 7.15664C10.5651 7.19225 10.5529 7.19169 10.8023 7.16884C11.2503 7.12776 11.6986 7.24079 12.0817 7.49146C12.2032 7.571 12.2238 7.57532 12.4009 7.55879L12.5903 7.54105V7.37595C12.5903 7.28513 12.6182 7.10058 12.6523 6.96585C12.7282 6.66614 12.7175 6.64301 12.4742 6.57916C12.2515 6.52076 12.2432 6.52084 11.9092 6.58491ZM17.6001 7.08888C19.1658 7.79683 19.9353 9.6154 19.356 11.2388C19.3031 11.3871 19.2598 11.5332 19.2598 11.5635C19.2598 11.652 19.4717 12.3866 19.4821 12.334C19.4873 12.3077 19.4768 12.2454 19.459 12.1954C19.3864 11.9929 19.2853 11.5615 19.2978 11.5084C19.3051 11.4772 19.3493 11.3431 19.396 11.2104C19.9542 9.62243 19.2006 7.80315 17.693 7.09895C17.5882 7.05007 17.4861 7.0104 17.4659 7.01083C17.4458 7.01126 17.5061 7.04638 17.6001 7.08888ZM3.23069 7.12449C3.21175 7.15479 3.19678 7.19573 3.19742 7.21546C3.19806 7.23518 3.21821 7.21503 3.24219 7.17075C3.29207 7.07873 3.2827 7.04113 3.23069 7.12449ZM3.14349 7.35878C3.09198 7.48897 3.0343 7.71141 3.01074 7.87077C2.99563 7.97329 2.97527 8.01373 2.93021 8.03126C2.71842 8.11356 2.59099 8.17196 2.62129 8.17274C2.64059 8.17323 2.73857 8.14074 2.83904 8.10058L3.0216 8.0275L3.0553 7.82387C3.07389 7.71183 3.11448 7.54595 3.14555 7.4552C3.20565 7.27952 3.20402 7.20566 3.14349 7.35878ZM7.87911 7.34728C7.87911 7.38006 7.74004 7.40653 7.72195 7.37723C7.70996 7.35786 7.73508 7.34842 7.85782 7.32607C7.86953 7.32401 7.87911 7.33352 7.87911 7.34728ZM7.68044 7.43576C7.68044 7.45137 7.64532 7.46286 7.6024 7.4613L7.52435 7.45847L7.5953 7.43576C7.63433 7.42327 7.66945 7.41178 7.67335 7.41022C7.67725 7.40866 7.68044 7.42015 7.68044 7.43576ZM17.4297 7.52019C17.3567 7.63833 17.514 8.06454 17.7148 8.29258C17.9082 8.51224 18.1422 8.85941 18.2753 9.12442C18.5302 9.63144 18.7138 10.0526 18.8507 10.4441C19.0149 10.9138 19.1037 10.7792 19.1031 10.061C19.1024 9.14357 18.7815 8.44732 18.0958 7.87538C17.7367 7.57589 17.4799 7.43895 17.4297 7.52019ZM10.703 7.60186C10.4778 7.67607 10.4802 7.67239 10.5 7.90653C10.5172 8.10973 10.4877 8.20204 10.4056 8.20204C10.3649 8.20204 10.2347 7.95435 10.2347 7.8768C10.2347 7.83614 10.2162 7.79584 10.1935 7.78711C10.1525 7.77136 9.65021 7.90568 9.59615 7.94683C9.58054 7.95875 9.52306 7.9767 9.46843 7.98684C9.36669 8.00565 9.12354 8.07149 8.97177 8.12137C7.93878 8.46087 6.93062 8.51416 6.16207 8.26987C5.92339 8.19402 5.84655 8.16146 5.40998 7.95108C5.06161 7.78328 5.04905 7.79492 5.22146 8.12662C5.7392 9.12278 6.90884 9.61044 7.81241 9.20693C7.86166 9.18494 7.92551 9.16692 7.95432 9.16685C7.9832 9.1667 8.03875 9.1501 8.07778 9.12988C8.1168 9.10966 8.24451 9.06297 8.36158 9.02622C8.47865 8.98947 8.58721 8.95058 8.60282 8.93994C8.61843 8.9293 8.72698 8.89162 8.84406 8.85622C8.96113 8.82088 9.13042 8.76774 9.22024 8.73822C9.31 8.70871 9.40117 8.68451 9.42274 8.68451C9.44431 8.68451 9.49852 8.66543 9.54322 8.64209C9.58792 8.61881 9.65887 8.59966 9.70087 8.59951C9.74287 8.59944 9.78431 8.58795 9.79297 8.57404C9.80155 8.56007 9.95878 8.50096 10.1423 8.44257C10.3258 8.38424 10.5099 8.31904 10.5513 8.29768C10.5927 8.27626 10.6566 8.25873 10.6932 8.25866C10.7298 8.25852 10.7966 8.23922 10.8416 8.21581C10.8865 8.19232 10.9735 8.16515 11.0348 8.15528C11.096 8.14549 11.1928 8.11371 11.2498 8.08462C11.3069 8.05552 11.3773 8.03176 11.4062 8.03176C11.4351 8.03176 11.4867 8.01664 11.5208 7.99813C11.5549 7.97968 11.6785 7.93179 11.7955 7.8917C12.1192 7.78087 12.0907 7.72248 11.6513 7.59519C11.4376 7.53332 10.8995 7.53708 10.703 7.60186ZM17.7379 7.66706C18.2163 7.99131 18.5111 8.30726 18.734 8.73439C18.7769 8.81648 18.8223 8.89006 18.835 8.89794C18.8477 8.90581 18.8669 8.95356 18.8777 9.00415C18.8886 9.05467 18.9086 9.11001 18.9223 9.12704C19.0399 9.2737 19.1099 10.4343 19.0088 10.5593L18.9538 10.6272L18.9241 10.5286C18.8842 10.3964 18.8102 10.1877 18.7783 10.1177C18.7641 10.0865 18.744 10.0291 18.7338 9.99003C18.6605 9.71346 18.0497 8.59377 17.8513 8.37233C17.5688 8.05716 17.5444 8.01111 17.5159 7.74085C17.4915 7.50934 17.5008 7.50629 17.7379 7.66706ZM15.2652 7.77924C15.3409 7.79889 15.3716 7.82238 15.3716 7.86055C15.3716 8.00636 15.5639 8.03843 15.7772 7.92817C15.8748 7.87772 16.3257 7.99209 16.5352 8.12037C16.5587 8.13471 16.6163 8.16422 16.6634 8.18601C17.0173 8.34976 17.3279 8.64847 17.6245 9.11023C17.8154 9.40744 17.8696 9.50983 17.9922 9.80555C18.0311 9.89921 18.1033 10.0652 18.1527 10.1745C18.2022 10.2838 18.2614 10.4179 18.2844 10.4725C18.3073 10.5271 18.34 10.5971 18.3573 10.628C18.3745 10.6588 18.4048 10.7418 18.4247 10.8124C18.4842 11.0237 18.7172 11.7033 18.7484 11.7564C18.7643 11.7835 18.7773 11.8262 18.7773 11.8514C18.7773 11.8766 18.7956 11.9374 18.818 11.9866C18.8861 12.1364 19.0181 12.6766 19.0792 13.0552C19.1251 13.3397 19.1144 14.1047 19.0604 14.4032C18.9726 14.8878 18.8932 15.2051 18.8177 15.3724C18.7955 15.4217 18.7773 15.4715 18.7773 15.4833C18.7773 15.5087 18.671 15.74 18.5224 16.0379C18.3979 16.2876 18.2598 16.4929 17.9827 16.8404C17.8877 16.9595 17.6472 17.2157 17.5025 17.3519C17.4179 17.4316 17.3261 17.5183 17.2984 17.5448C17.0715 17.7613 16.291 18.2959 16.0515 18.3989C15.9976 18.422 15.8385 18.4945 15.698 18.56C15.5575 18.6254 15.4107 18.6919 15.3716 18.7077C15.3326 18.7235 15.2534 18.7608 15.1957 18.7906C15.138 18.8204 15.0637 18.8448 15.0306 18.8448C14.9976 18.8448 14.9455 18.8582 14.9148 18.8747C14.8227 18.9239 14.2331 19.0796 13.6404 19.2112C13.2703 19.2932 12.8223 19.3729 12.3491 19.4405C11.4151 19.5741 9.36867 19.5755 8.68796 19.443C8.60991 19.4278 8.45666 19.4007 8.34739 19.3829C7.89486 19.309 7.50094 19.2089 6.63036 18.9465C6.25012 18.8318 5.15129 18.3561 4.86798 18.1833C4.81179 18.1491 4.65214 18.0518 4.51322 17.9671C3.99385 17.6504 3.37373 17.098 2.99769 16.6169C2.90006 16.4921 2.80903 16.3856 2.7954 16.3805C2.78171 16.3752 2.77057 16.3548 2.77057 16.3352C2.77057 16.3155 2.74503 16.2762 2.71381 16.248C2.68259 16.2197 2.65705 16.1875 2.65705 16.1763C2.65705 16.1651 2.58546 16.0297 2.4979 15.8756C2.41035 15.7214 2.3008 15.5122 2.2544 15.4108C2.20799 15.3093 2.15833 15.2007 2.14407 15.1695C2.10306 15.0799 1.94377 14.5589 1.91227 14.4116C1.8665 14.1973 1.89027 14.1748 2.06758 14.2648C2.23354 14.3491 2.60618 14.4742 2.69139 14.4742C2.72154 14.4742 2.85217 14.495 2.98172 14.5205C3.28142 14.5793 3.57815 14.5561 3.62419 14.4701C3.66882 14.3866 3.61525 14.3407 3.42822 14.3022C3.11589 14.2379 2.6794 14.1304 2.633 14.1063C2.60724 14.0929 2.50947 14.0459 2.41581 14.0019C2.28008 13.9381 1.9344 13.7002 1.67898 13.4949C1.53721 13.381 1.13846 12.7345 1.03133 12.445C0.84153 11.9321 0.808467 11.1952 0.951648 10.6673C1.03558 10.3576 1.09419 10.1794 1.11775 10.1617C1.12924 10.1531 1.16919 10.0892 1.20651 10.02C1.24383 9.95065 1.28512 9.88041 1.29825 9.86395C1.31137 9.84742 1.39708 9.73815 1.48868 9.62108C2.01664 8.94647 2.9085 8.51785 3.72133 8.54807L3.97675 8.55758L4.20245 8.79846C4.85507 9.49471 5.01265 9.61803 5.48093 9.79931C6.23799 10.0923 7.37769 9.92454 8.64539 9.33337C9.08451 9.12853 9.11275 9.11583 9.24139 9.06524C9.31163 9.03764 9.42019 8.99358 9.48262 8.9674C9.54506 8.94115 9.74302 8.85934 9.92253 8.78562C10.102 8.71183 10.2883 8.63251 10.3364 8.60931C10.3846 8.5861 10.4676 8.55574 10.5209 8.54176C10.5742 8.52778 10.7711 8.46442 10.9584 8.40092C11.1457 8.33742 11.4174 8.25426 11.5622 8.21602C11.707 8.17778 11.8498 8.1335 11.8796 8.11754C11.9095 8.10157 11.9789 8.08852 12.0341 8.08852C12.0891 8.08852 12.1893 8.06986 12.2566 8.04701C12.3685 8.00898 12.7207 7.97939 12.7423 8.00621C12.7473 8.01246 12.7905 8.07504 12.8383 8.14528C13.0396 8.44108 13.2738 8.55737 13.2442 8.34685C13.2412 8.325 13.1885 8.23929 13.1272 8.15635L13.0158 8.0055L13.0787 7.9718C13.1256 7.94676 13.2688 7.94434 13.6394 7.96265C13.9131 7.97613 14.2487 7.98762 14.385 7.98819L14.633 7.98919L14.7682 7.85282C14.9151 7.70467 14.9551 7.69871 15.2652 7.77924ZM2.28632 8.2962C1.86459 8.51196 1.47527 8.81641 1.19111 9.1528C1.05623 9.31244 0.755536 9.74227 0.755536 9.77547C0.755536 9.7837 0.719848 9.86416 0.676141 9.95427C0.592702 10.1267 0.507488 10.3823 0.422985 10.7137C0.313151 11.1451 0.379349 12.1659 0.532464 12.4014C0.553536 12.4338 0.555878 12.4269 0.541687 12.374C0.0822736 10.6682 0.786046 9.0871 2.35905 8.29137C2.48393 8.22815 2.57254 8.17586 2.55594 8.17508C2.53934 8.1743 2.41801 8.22879 2.28632 8.2962ZM16.119 10.3004C15.7942 10.5173 15.6086 11.0864 15.7065 11.5652C15.7225 11.6432 15.7762 11.9114 15.8259 12.1612C15.9085 12.5764 16.0024 12.8471 16.1095 12.9787C16.4148 13.3542 16.5382 13.4241 16.8957 13.4241C17.8738 13.4241 18.0877 11.7599 17.2554 10.6264C16.9321 10.1863 16.4829 10.0574 16.119 10.3004ZM16.8211 10.3031C17.4333 10.6147 17.8695 11.849 17.6564 12.6669C17.3493 13.8457 16.0609 13.529 15.9074 12.2369C15.8913 12.1016 15.8461 11.8843 15.8069 11.7541C15.5207 10.8038 16.1201 9.94632 16.8211 10.3031ZM8.58863 11.1128C8.50278 11.1336 8.37506 11.1831 8.30482 11.2227C8.23458 11.2622 8.14653 11.308 8.10914 11.3243C7.94346 11.3967 7.71798 11.6113 7.6322 11.778C7.6041 11.8327 7.56713 11.8901 7.55011 11.9057C7.32526 12.1116 7.29787 13.1797 7.50711 13.5856C7.53776 13.645 7.58104 13.732 7.60332 13.7789C7.98894 14.5891 9.36364 14.7225 10.0861 14.0199C10.979 13.1516 10.7917 11.8301 9.69434 11.2555C9.34945 11.0749 8.95403 11.0239 8.58863 11.1128ZM9.48262 11.2159C10.6677 11.6814 10.9779 13.1162 10.0762 13.9611C9.17973 14.8011 7.86017 14.5137 7.48057 13.3957C7.42417 13.2296 7.41913 12.419 7.47326 12.2179C7.69258 11.4036 8.69172 10.9054 9.48262 11.2159ZM1.41539 12.0227C1.30988 12.1546 1.33387 12.233 1.49344 12.2776C1.59263 12.3053 1.59277 12.3055 1.58298 12.4541C1.57255 12.6134 1.63584 12.7597 1.70388 12.7336C1.7842 12.7028 1.81982 12.7682 1.81982 12.9466C1.81982 13.1762 1.90751 13.2193 2.16095 13.1142C2.35685 13.033 2.37324 13.0459 2.37324 13.282C2.37324 13.5036 2.39211 13.5215 2.60866 13.5045L2.728 13.4951L2.73659 13.6597C2.74184 13.7613 2.75915 13.8297 2.78178 13.8384C2.84188 13.8615 3.11611 13.7391 3.24971 13.6296C3.37955 13.5232 3.44979 13.54 3.45263 13.6778C3.45682 13.8847 3.68805 13.8475 4.03763 13.5837C4.32946 13.3636 4.31874 13.2775 4.01904 13.4345C3.68259 13.6108 3.63803 13.4882 3.88622 13.0693C4.10206 12.7051 3.73218 12.7379 3.36664 13.1153C3.24723 13.2386 3.14094 13.3309 3.13037 13.3203C3.09191 13.2818 3.1127 13.1636 3.18209 13.0268C3.27674 12.84 3.27405 12.7997 3.16691 12.7997C3.08056 12.7997 3.0277 12.8456 2.77611 13.1393C2.59312 13.3529 2.53643 13.0812 2.71019 12.8236C2.9178 12.5161 2.68883 12.4953 2.31627 12.788C2.09 12.9658 1.9532 12.8878 2.1198 12.6759C2.15208 12.6348 2.17443 12.5725 2.16947 12.5373C2.15968 12.4684 2.15364 12.4676 1.89843 12.5031C1.72538 12.5271 1.69338 12.4924 1.74709 12.3389C1.78391 12.2337 1.70274 12.1308 1.60703 12.1612C1.54601 12.1805 1.50131 12.1286 1.48882 12.0237L1.47925 11.9429L1.41539 12.0227ZM19.4881 12.4469C19.4874 12.4792 19.5053 12.5686 19.5279 12.6455C19.8224 13.6492 19.5307 15.3033 18.855 16.4608C18.5812 16.93 17.9392 17.6492 17.4288 18.0588C17.3354 18.1337 17.2398 18.2104 17.2164 18.2292C16.9517 18.4415 15.834 19.071 15.7203 19.0717C15.7013 19.0718 15.6717 19.0983 15.6544 19.1305C15.6194 19.196 15.6056 19.1728 15.8643 19.4828C16.2814 19.9827 16.3064 20.0584 16.0886 20.1647C15.9251 20.2445 15.9078 20.2713 16.0558 20.2155C16.2023 20.1603 16.2798 20.1008 16.2798 20.0439C16.2798 19.9867 15.9947 19.5654 15.8552 19.4165C15.6361 19.1826 15.6396 19.1547 15.9042 19.0322C16.3034 18.8472 16.9226 18.4941 17.0878 18.357C17.1039 18.3437 17.2083 18.266 17.3199 18.1844C17.5977 17.9811 18.1009 17.5085 18.2852 17.2779C18.3689 17.1732 18.4705 17.0519 18.5108 17.0083C18.6661 16.841 18.927 16.4207 19.1324 16.0068C19.3154 15.6379 19.5494 14.8465 19.6023 14.4176C19.6168 14.3005 19.641 14.1152 19.6561 14.0059C19.6964 13.7152 19.6914 13.2809 19.6449 13.0469C19.6226 12.9343 19.5963 12.7902 19.5865 12.7265C19.5634 12.5771 19.4898 12.3678 19.4881 12.4469ZM0.558006 12.4833C0.555239 12.5759 0.823579 13.114 0.952215 13.2735C1.01267 13.3485 1.13797 13.5039 1.23063 13.6186C1.37913 13.8025 1.40297 13.8497 1.4315 14.0159C1.49351 14.3776 1.52636 14.517 1.55623 14.5451C1.57716 14.5649 1.58057 14.552 1.5673 14.5026C1.5568 14.4635 1.52898 14.3231 1.50543 14.1904C1.44193 13.8324 1.41844 13.7788 1.23425 13.5713C0.972578 13.2766 0.776538 12.9663 0.630164 12.6153C0.591141 12.5216 0.558645 12.4622 0.558006 12.4833ZM1.5812 14.6587C1.58057 14.7055 1.6054 14.7949 1.6364 14.8573C1.69395 14.9731 1.69012 14.9358 1.62037 14.7012C1.58709 14.5893 1.58227 14.5841 1.5812 14.6587ZM16.1535 14.9323C16.1085 14.9677 16.0262 15.0383 15.9705 15.0893C15.9149 15.1402 15.7817 15.2366 15.6745 15.3034C15.5673 15.3702 15.4029 15.4888 15.309 15.5668C15.0036 15.8209 14.5587 16.1203 14.4865 16.1203C14.4685 16.1203 14.4336 16.1376 14.4089 16.1588C14.3843 16.1799 14.3066 16.2127 14.2364 16.2314C14.1662 16.2501 14.0129 16.2913 13.8958 16.3231C13.4472 16.4447 12.8496 16.4857 12.3005 16.4326C11.9166 16.3956 11.2761 16.2556 11.0719 16.1641C10.8775 16.077 10.6668 15.9738 10.5473 15.9073C10.2098 15.7194 10.2049 15.9602 10.5401 16.2633C10.6889 16.3979 11.0805 16.6311 11.1577 16.6311C11.1723 16.6311 11.293 16.6739 11.4261 16.7262C11.9944 16.9496 12.1909 16.9833 12.9025 16.9802C13.4337 16.9779 13.8906 16.9303 14.0824 16.8574C14.1223 16.8422 14.1809 16.8298 14.2127 16.8298C14.2444 16.8298 14.3106 16.8115 14.3599 16.7891C14.409 16.7666 14.494 16.7355 14.5486 16.7198C15.2643 16.5148 16.0002 15.955 16.1947 15.4675C16.2104 15.4285 16.2372 15.3722 16.2546 15.3423C16.3735 15.1373 16.2954 14.8206 16.1535 14.9323ZM16.2678 15.0261C16.3353 15.2952 15.8879 15.9433 15.4233 16.2494C15.2001 16.3964 14.7325 16.6311 14.6628 16.6311C14.6374 16.6311 14.6046 16.6419 14.5897 16.6551C14.4143 16.8113 13.127 16.9754 12.5097 16.9202C11.5475 16.8341 10.3766 16.3109 10.3766 15.9669C10.3766 15.9027 10.3981 15.9078 10.679 16.0382C11.0108 16.1923 11.0166 16.1947 11.2139 16.2589C12.6855 16.7385 14.2871 16.5209 15.1872 15.719C15.2652 15.6495 15.4572 15.5088 15.6139 15.4064C15.7705 15.304 15.9174 15.2022 15.9402 15.1802C16.1601 14.9685 16.2435 14.9293 16.2678 15.0261ZM1.69437 15.02C1.68948 15.1259 1.91823 15.6655 2.10951 15.9994C2.1921 16.1437 2.25972 16.2684 2.25972 16.2766C2.25972 16.2933 2.46356 16.6092 2.48861 16.6311C2.49748 16.6389 2.56133 16.7218 2.63058 16.8152C2.69976 16.9087 2.78803 17.0236 2.82669 17.0707C2.91851 17.1824 3.49797 17.7616 3.60844 17.8521C3.87515 18.0707 3.98229 18.1489 4.31732 18.3694C4.83832 18.7124 6.21131 19.362 6.39714 19.3534C6.43581 19.3516 6.43708 19.3482 6.40331 19.3367C5.46944 19.0173 4.30739 18.3872 3.66457 17.8515C3.47803 17.696 2.98279 17.2031 2.85181 17.0427C2.7754 16.949 2.69636 16.8532 2.6762 16.8298C2.37182 16.4763 1.90574 15.5994 1.71076 15.0134C1.69962 14.98 1.69608 14.9814 1.69437 15.02ZM6.49335 19.3821C6.55664 19.423 6.94446 19.5539 7.00328 19.5541C7.22025 19.5551 7.19811 19.6761 6.92807 19.9659C6.8408 20.0595 6.70855 20.2256 6.63419 20.3348C6.55983 20.4441 6.45518 20.5979 6.40154 20.6767C6.27489 20.8626 6.24714 20.9116 6.11439 21.1849C6.0533 21.3106 5.98484 21.4472 5.96213 21.4886C5.93943 21.5301 5.92112 21.5812 5.92147 21.6022C5.92183 21.6232 6.00243 21.4793 6.10063 21.2825C6.36159 20.7595 6.75516 20.1783 7.06607 19.8569C7.27822 19.6376 7.27495 19.5944 7.04188 19.5326C6.92594 19.5018 6.60488 19.4054 6.50264 19.3707C6.4539 19.3541 6.45255 19.3557 6.49335 19.3821ZM12.3288 19.9514C12.1971 19.9911 11.6936 20.0368 11.3885 20.0368C11.1816 20.0368 11.081 20.0485 11.0419 20.0771C10.8031 20.2517 12.064 20.1905 12.4149 20.0104C12.4411 19.9969 12.4945 19.9727 12.5336 19.9565C12.6259 19.9183 12.453 19.9139 12.3288 19.9514ZM15.5419 20.4342C15.5029 20.4647 15.4818 20.4899 15.4949 20.4903C15.508 20.4906 15.5512 20.4654 15.5909 20.4342C15.6306 20.4029 15.6518 20.3777 15.638 20.378C15.6242 20.3784 15.5809 20.4036 15.5419 20.4342ZM15.2907 20.5915C15.0686 20.7267 15.0419 20.7695 15.2581 20.644C15.4765 20.5171 15.4694 20.522 15.4544 20.5092C15.4479 20.5037 15.3743 20.5407 15.2907 20.5915ZM14.8821 20.8765C14.7923 20.948 14.7189 21.0125 14.7189 21.0199C14.7189 21.0274 14.7955 20.9745 14.8892 20.9024C15.036 20.7894 15.0819 20.7457 15.0523 20.7466C15.0484 20.7467 14.9718 20.8052 14.8821 20.8765ZM14.5047 21.2075L14.3925 21.3281L14.5198 21.2146C14.5897 21.1522 14.6525 21.0979 14.6593 21.094C14.6661 21.0901 14.6593 21.0869 14.6442 21.0869C14.6292 21.0869 14.5664 21.1412 14.5047 21.2075ZM5.85726 21.7574C5.77162 21.9578 5.67272 22.2615 5.61362 22.5059C5.4908 23.0139 5.46164 23.1575 5.47398 23.193C5.48108 23.2131 5.50279 23.153 5.52237 23.0594C5.62738 22.5571 5.80746 21.9268 5.89026 21.7721C5.90913 21.7369 5.91999 21.6945 5.91438 21.6778C5.90885 21.6611 5.88309 21.6969 5.85726 21.7574ZM5.4461 23.3574C5.4461 23.4276 5.45163 23.4563 5.45837 23.4212C5.46518 23.3861 5.46518 23.3286 5.45837 23.2935C5.45163 23.2584 5.4461 23.2871 5.4461 23.3574ZM5.38643 23.5896C5.37032 23.6414 5.34896 23.754 5.33903 23.8398C5.3291 23.9257 5.30923 24.0343 5.29497 24.0811C5.24268 24.2529 5.15456 25.1847 5.15477 25.5639C5.15505 26.0802 5.21167 26.3253 5.39118 26.5873C5.4627 26.6918 5.53401 26.8347 5.54955 26.905C5.62192 27.2316 5.84605 27.7156 6.00016 27.8779C6.078 27.96 6.31412 28.1104 6.33392 28.0906C6.34009 28.0845 6.27843 28.0415 6.19684 27.9952C5.9693 27.866 5.72692 27.4411 5.59112 26.9333C5.56402 26.8319 5.50626 26.6978 5.46284 26.6354C5.26538 26.3514 5.18464 26.0501 5.18343 25.5929C5.1823 25.1565 5.32825 23.9246 5.41552 23.6339C5.43311 23.5753 5.44035 23.5202 5.43162 23.5114C5.42282 23.5027 5.40246 23.5378 5.38643 23.5896ZM6.05401 26.8584C6.0218 26.9423 6.17804 27.2961 6.3755 27.587C6.69535 28.0579 7.15086 28.1514 7.47731 27.8132C7.62744 27.6576 7.82455 27.2567 7.83157 27.0926L7.83654 26.9759L7.56607 26.986C7.26729 26.9971 6.73054 26.95 6.48845 26.8914C6.20599 26.823 6.07147 26.8129 6.05401 26.8584ZM6.46007 26.927C6.75679 27.0002 7.00839 27.0301 7.38245 27.0365C7.8696 27.0449 7.86918 27.0442 7.62907 27.5264C7.29063 28.2061 6.62411 28.0701 6.23749 27.2425C6.046 26.8324 6.05039 26.8261 6.46007 26.927ZM6.64071 28.2248C6.74423 28.2788 6.77049 28.2792 6.6996 28.2256C6.66931 28.2027 6.62539 28.1836 6.60197 28.1832C6.57856 28.1828 6.59601 28.2015 6.64071 28.2248ZM6.88181 28.3246C6.94985 28.3555 7.02009 28.3805 7.0379 28.3801C7.05571 28.3798 7.01456 28.3542 6.94652 28.3234C6.87847 28.2925 6.80823 28.2675 6.79042 28.2679C6.77261 28.2682 6.81377 28.2938 6.88181 28.3246ZM7.79688 28.3063C7.70308 28.4194 7.26601 28.4963 7.21216 28.4091C7.20251 28.3935 7.17938 28.3812 7.16079 28.3817C7.10226 28.3832 7.2343 28.4659 7.2956 28.4661C7.32774 28.4662 7.44985 28.4998 7.56692 28.5406C7.76317 28.6091 7.87265 28.6361 8.30482 28.7219C8.39067 28.739 8.512 28.7658 8.57444 28.7814C8.63688 28.797 8.80929 28.8207 8.95758 28.8343C9.10587 28.8478 9.26551 28.8739 9.31234 28.8923C9.35917 28.9108 9.53158 28.9295 9.69548 28.934L9.99348 28.9421L9.73805 28.9217C9.59756 28.9104 9.44779 28.8867 9.40521 28.869C9.36264 28.8512 9.24238 28.8219 9.13794 28.8037C8.97631 28.7755 8.79751 28.7092 8.61701 28.6104C8.59359 28.5976 8.46588 28.5325 8.3332 28.4658C8.20052 28.399 8.08423 28.3324 8.07479 28.3178C8.04152 28.2665 7.83696 28.2579 7.79688 28.3063ZM13.534 28.6558C13.5613 28.6629 13.606 28.6629 13.6333 28.6558C13.6606 28.6486 13.6383 28.6428 13.5836 28.6428C13.529 28.6428 13.5067 28.6486 13.534 28.6558ZM13.3486 28.682C13.3389 28.6917 13.2889 28.7095 13.2374 28.7217C13.1603 28.74 13.1563 28.7442 13.2147 28.7455C13.2924 28.7473 13.4838 28.6706 13.411 28.6668C13.3863 28.6656 13.3582 28.6724 13.3486 28.682ZM12.8174 28.7941C12.7569 28.817 12.7402 28.8315 12.7748 28.8311C12.806 28.8308 12.8763 28.8134 12.9309 28.7923C12.9903 28.7694 13.0074 28.7545 12.9735 28.7553C12.9422 28.756 12.872 28.7734 12.8174 28.7941ZM12.1504 28.8791L12.0369 28.9189L12.1504 28.9025C12.2129 28.8935 12.315 28.8762 12.3775 28.864L12.491 28.842L12.3775 28.8406C12.315 28.8398 12.2129 28.8571 12.1504 28.8791ZM11.6467 28.9408C11.713 28.9468 11.8216 28.9468 11.8879 28.9408C11.9542 28.9348 11.9 28.9299 11.7673 28.9299C11.6346 28.9299 11.5803 28.9348 11.6467 28.9408ZM10.1921 28.9752C10.2776 28.9985 10.5951 29.0145 10.5729 28.9944C10.5664 28.9885 10.4589 28.9766 10.334 28.9678C10.1948 28.9581 10.1399 28.961 10.1921 28.9752ZM11.1003 28.9768L10.9868 28.9971L11.1287 28.9983C11.2068 28.999 11.3025 28.9893 11.3416 28.9768C11.436 28.9465 11.2693 28.9465 11.1003 28.9768ZM10.6811 29.0257C10.7314 29.0319 10.8208 29.032 10.8797 29.0259C10.9386 29.0197 10.8974 29.0146 10.7881 29.0144C10.6789 29.0143 10.6307 29.0193 10.6811 29.0257Z" fill="#C08C45"/>
<path fill-rule="evenodd" clip-rule="evenodd" d="M7.80646 0.101461C7.71372 0.157229 7.61872 0.21917 7.5953 0.239108C7.57189 0.258975 7.46333 0.33688 7.35407 0.41216C7.2448 0.48744 7.09793 0.589327 7.02769 0.638567C6.95745 0.687808 6.74033 0.83702 6.54522 0.970197C5.71231 1.53859 5.24523 1.86816 4.9339 2.10727C4.66009 2.3175 4.61717 2.31786 4.41566 2.11188C3.62994 1.3085 2.2241 1.08166 1.35154 1.61742C1.32812 1.63175 1.24511 1.68106 1.16706 1.7269C0.496707 2.12082 0.0176392 2.99836 0.0176392 3.83247C0.0176392 5.52347 1.75334 6.72539 3.20856 6.04212C3.452 5.92782 3.40091 5.85758 3.13704 5.94386C2.67883 6.09378 1.87388 5.97124 1.4083 5.68084C-0.137178 4.71667 0.204668 2.31204 1.95321 1.84702C4.04913 1.28962 5.48001 3.93599 3.90786 5.46195C3.56935 5.79053 3.99457 5.69063 4.40041 5.3463C5.04373 4.80039 5.29958 3.90739 5.02954 3.15027C4.97108 2.98637 4.91673 2.80657 4.90871 2.75074L4.89409 2.6492L5.24431 2.42201C5.43688 2.29707 5.71579 2.12693 5.86408 2.04405C6.01237 1.96111 6.25247 1.8185 6.39771 1.72711C6.54288 1.63573 6.66796 1.56094 6.67556 1.56094C6.68322 1.56094 6.72401 1.53668 6.7663 1.50695C7.04706 1.30999 7.7934 0.827087 7.83988 0.812258C7.95155 0.776853 8.06416 0.958702 8.34718 1.63189C8.41934 1.8036 8.49576 1.9824 8.51697 2.02923C8.56642 2.13863 8.7101 2.55122 8.81681 2.89023C8.91345 3.19738 8.90231 3.25173 8.73728 3.27869C8.15568 3.37355 7.03918 3.77124 6.44908 4.09357C6.34151 4.15232 6.24764 4.20035 6.24048 4.20035C6.20926 4.20035 5.65647 4.53716 5.40999 4.70638C4.09141 5.61137 3.23758 6.74228 3.05573 7.82437L3.02139 8.02856L2.81797 8.10349C0.392194 8.99748 -0.407292 11.8119 1.25752 13.5968C1.40354 13.7533 1.4476 13.8535 1.49358 14.1336C1.64244 15.0395 2.16961 16.2413 2.67621 16.8298C2.69636 16.8532 2.7754 16.949 2.85181 17.0427C3.69047 18.0706 5.22225 19.0004 6.8716 19.4828C7.2829 19.6031 7.29475 19.6223 7.08807 19.8344C6.66945 20.2642 6.10858 21.1554 5.90679 21.7113C5.69862 22.2849 5.56062 22.8084 5.43943 23.4851C5.09247 25.4215 5.09865 26.1329 5.46682 26.6354C5.51258 26.6978 5.5504 26.7661 5.55097 26.7873C5.55281 26.8644 5.72132 27.3288 5.82314 27.5374C5.99101 27.8816 6.07253 27.9546 6.48845 28.1337C6.54309 28.1572 6.63249 28.1959 6.68712 28.2197C6.92921 28.3251 7.08495 28.3808 7.13774 28.3808C7.16903 28.3808 7.20252 28.3935 7.21216 28.4092C7.23728 28.4497 7.58402 28.4443 7.65952 28.4021C7.69442 28.3825 7.75126 28.3425 7.78574 28.313C7.85024 28.258 8.0384 28.2619 8.07551 28.319C8.08452 28.3329 8.20052 28.399 8.3332 28.4658C8.46588 28.5325 8.5936 28.5976 8.61701 28.6104C8.7968 28.7089 8.97589 28.7755 9.13489 28.8031C9.2377 28.821 9.37549 28.8547 9.44126 28.8779C9.51349 28.9033 9.64617 28.9181 9.77708 28.9152L9.99348 28.9104L9.76643 28.8913C9.55067 28.8732 9.24863 28.7897 9.00015 28.6792C8.64248 28.5203 8.3442 28.3697 8.16015 28.2552C7.91132 28.1003 7.89437 28.0989 7.73423 28.2186C7.66562 28.2698 7.5748 28.3337 7.53244 28.3605C7.45163 28.4116 7.26893 28.4267 7.24282 28.3845C7.23444 28.3709 7.17569 28.3515 7.11219 28.3414C7.04876 28.3312 6.97504 28.3113 6.94844 28.2971C6.82647 28.2321 6.63703 28.1537 6.60013 28.1528C6.57771 28.1523 6.53464 28.1331 6.50435 28.1102C6.47398 28.0873 6.42807 28.0686 6.40225 28.0686C6.37635 28.0686 6.32576 28.043 6.28979 28.0118C6.25382 27.9806 6.20798 27.9551 6.18804 27.9551C6.07544 27.9551 5.81455 27.4749 5.66378 26.9901C5.60056 26.7868 5.54025 26.6537 5.47398 26.571C5.28163 26.3309 5.25602 26.2036 5.25829 25.5001C5.26035 24.8748 5.26858 24.78 5.38267 24.0669C5.48087 23.4533 5.51535 23.2636 5.54515 23.1729C5.56055 23.1261 5.5885 23.0047 5.6073 22.9033C5.64498 22.6996 5.80065 22.148 5.90764 21.839C6.1261 21.208 6.70237 20.2772 7.13767 19.8524C7.33058 19.664 7.33768 19.5707 7.1625 19.5253C7.09616 19.5082 6.99079 19.4774 6.92836 19.4569C6.86592 19.4364 6.7382 19.3966 6.64455 19.3684C6.49654 19.3238 6.10659 19.1767 5.93503 19.1007C5.90381 19.0868 5.74417 19.018 5.58027 18.9476C5.26822 18.8135 4.90389 18.6304 4.64952 18.4797C4.56693 18.4308 4.49343 18.3907 4.48626 18.3907C4.4659 18.3907 4.11568 18.1428 3.84904 17.9395C3.60497 17.7535 3.03643 17.2025 2.85508 16.9762C2.8008 16.9086 2.74163 16.8372 2.7236 16.8177C2.70551 16.7983 2.58581 16.6238 2.4576 16.4301C2.14173 15.9525 1.9315 15.5084 1.6931 14.8148C1.64308 14.6692 1.56091 14.2943 1.5221 14.0343C1.48613 13.7938 1.44271 13.7139 1.23475 13.506C1.01792 13.2892 0.585255 12.5254 0.585255 12.3595C0.585255 12.3342 0.570567 12.286 0.552546 12.2525C0.462933 12.0849 0.420433 11.3608 0.474002 10.9124C0.588802 9.95165 1.25078 8.96463 2.10363 8.48287C2.32407 8.35835 2.71764 8.17437 2.7644 8.17395C2.91844 8.17267 3.07602 8.03311 3.09504 7.8812C3.28086 6.39369 4.73686 4.91775 7.08445 3.83715C7.37706 3.70248 8.08643 3.47473 8.61063 3.34723C9.01122 3.24974 9.00285 3.26911 8.84292 2.8097C8.47795 1.7611 8.08367 0.865401 7.94801 0.776498C7.87571 0.729173 7.77999 0.767274 7.55273 0.933869C7.33307 1.09493 6.66711 1.51695 6.13369 1.83318C5.34733 2.29934 5.03919 2.49063 4.929 2.58102L4.83123 2.66126L4.87721 2.81353C4.90254 2.89725 4.95802 3.06158 5.00066 3.17865C5.27305 3.92719 4.91212 4.98373 4.23218 5.42818C3.99726 5.58179 3.89069 5.55759 4.05076 5.38702C4.2099 5.21745 4.34216 4.98877 4.51535 4.58349C4.83563 3.83424 4.50173 2.71703 3.79498 2.17319C2.38233 1.0862 0.375663 2.07584 0.375237 3.85978C0.374953 5.1233 1.2891 6.02389 2.57687 6.02878C2.82152 6.02978 3.01564 6.03652 3.00833 6.04383C2.8853 6.16686 2.24844 6.22404 1.90113 6.14323C0.962364 5.92491 0.388789 5.32672 0.0902229 4.25463C0.0346675 4.05519 0.0326099 3.61479 0.0863205 3.42237C0.108528 3.34297 0.148403 3.20135 0.17494 3.10769C0.352036 2.48303 0.846145 1.90541 1.44902 1.61834C1.62903 1.53263 1.7075 1.5056 2.04686 1.41223C2.75872 1.2164 3.7297 1.51965 4.38828 2.1436C4.63916 2.38129 4.63285 2.38072 4.89104 2.18958C5.45043 1.7755 5.56615 1.69199 5.8269 1.51404C5.98001 1.4096 6.16917 1.27912 6.24722 1.22406C6.32527 1.16907 6.51684 1.03767 6.67293 0.932095C6.82902 0.826519 7.02059 0.694548 7.09864 0.638922C7.94382 0.0359726 8.02244 0.000141877 8.16711 0.151199C8.24331 0.230807 8.50165 0.623951 8.61325 0.830279C8.661 0.918544 8.71301 1.01369 8.72876 1.04172C8.76786 1.11118 9.02335 1.66013 9.16199 1.97246C9.22436 2.11295 9.34533 2.41307 9.43083 2.63941C9.65525 3.23314 9.55145 3.16758 10.2965 3.1861C11.3317 3.21185 12.5397 3.48005 13.0728 3.80246C13.5409 4.08555 13.6842 4.1758 13.8912 4.31799C14.1111 4.46898 14.4952 4.72249 14.6479 4.81742C14.8243 4.92711 15.3184 5.14643 15.6224 5.24995C16.4109 5.51864 16.6834 5.79975 17.0814 6.75547C17.1298 6.87155 17.2868 7.03843 17.3476 7.03843C17.3706 7.03843 17.4861 7.08377 17.6045 7.13918C19.1961 7.88432 19.9209 9.71821 19.2664 11.3441C19.1892 11.5359 19.1906 11.5728 19.2873 11.8915C19.7301 13.352 19.695 14.3571 19.153 15.7371C19.0978 15.8776 19.0428 16.0117 19.0308 16.0351C19.0188 16.0585 18.9746 16.1479 18.9326 16.2338C18.8905 16.3197 18.8384 16.41 18.8167 16.4347C18.7951 16.4594 18.7773 16.4889 18.7773 16.5005C18.7773 16.5482 18.2424 17.2187 18.0042 17.4694C17.483 18.0182 16.5955 18.6387 15.8754 18.9576C15.7232 19.025 15.5987 19.09 15.5987 19.1021C15.5987 19.1142 15.5922 19.141 15.5843 19.1618C15.5765 19.1826 15.6088 19.2443 15.6563 19.2989C15.7751 19.4359 16.1493 19.9253 16.1866 19.9925C16.2245 20.0609 16.1655 20.1112 15.9393 20.2036C15.6941 20.3036 15.5939 20.3563 15.4598 20.4554C15.3912 20.5062 15.3231 20.5477 15.3085 20.5477C15.2822 20.5477 14.9903 20.7322 14.9278 20.7883C14.91 20.8042 14.8589 20.8428 14.8142 20.874C14.7696 20.9051 14.6501 21.0091 14.5486 21.1051C14.4471 21.2011 14.3386 21.2858 14.3074 21.2935C14.2573 21.3057 14.2585 21.3078 14.3166 21.3107C14.3599 21.3128 14.4378 21.2622 14.5436 21.1633C14.8558 20.8714 15.4876 20.4339 15.7644 20.3178C16.3448 20.0745 16.3465 20.0607 15.8643 19.4828C15.6056 19.1728 15.6194 19.196 15.6544 19.1305C15.6717 19.0983 15.7014 19.0718 15.7203 19.0717C15.834 19.071 16.9517 18.4415 17.2164 18.2292C17.2398 18.2104 17.3354 18.1338 17.4288 18.0588C18.6369 17.0895 19.3709 15.8285 19.5731 14.3749C19.6999 13.4624 19.6698 13.1147 19.3689 12.0201C19.2369 11.5403 19.2374 11.5712 19.356 11.2388C19.884 9.75922 19.289 8.07922 17.952 7.27463C17.782 7.17232 17.6813 7.12364 17.3583 6.98763C17.2354 6.9359 17.2233 6.91937 17.0352 6.54624C16.5648 5.61286 16.4638 5.51559 15.6554 5.21844C15.4447 5.14096 15.1893 5.03822 15.0878 4.99012C14.9864 4.94201 14.865 4.8849 14.8182 4.86326C14.7109 4.81359 14.7417 4.83332 13.9822 4.32878C12.6552 3.44734 11.8885 3.19887 10.3737 3.15935C9.59984 3.13913 9.69577 3.18461 9.52669 2.75776C9.36619 2.35241 9.2167 1.98751 9.15845 1.85894C9.13014 1.7965 9.0843 1.69433 9.05656 1.63189C8.67214 0.767132 8.18385 0 8.01775 0C7.99427 0 7.89926 0.045622 7.80646 0.101461ZM9.3691 3.60507C8.03038 3.76776 6.2685 4.49693 5.46873 5.21929L5.37139 5.3072H5.4478C5.48988 5.3072 5.54643 5.2945 5.57353 5.27896C6.11291 4.96983 8.65334 4.46692 8.5975 4.68034C8.587 4.72043 8.52321 4.73994 8.28141 4.77705C6.99945 4.97387 6.0074 5.2613 5.35904 5.62386C4.27298 6.23107 3.95412 6.5771 3.63271 7.49699C3.51259 7.84083 3.53579 7.89922 3.80491 7.92944C4.12937 7.96591 4.25624 8.04942 4.74282 8.54687C5.22785 9.04275 5.38707 9.16131 5.6691 9.2368C5.85606 9.28675 6.06232 9.26348 5.89707 9.21105C5.8633 9.20034 5.8357 9.17976 5.8357 9.16543C5.8357 9.15109 5.78341 9.10633 5.71948 9.06595C5.18564 8.72893 4.61327 7.70098 4.78298 7.38397C4.82882 7.29833 4.82889 7.29833 5.20323 7.52268C5.38721 7.63287 5.57388 7.7305 5.61809 7.73951L5.69848 7.75597L5.67939 7.62875C5.65612 7.47344 5.68109 7.45932 6.09495 7.39447C6.5057 7.33004 7.06352 7.14131 7.50938 6.9159C8.03109 6.6521 8.44212 6.34232 9.09643 5.71972C11.0703 3.84162 12.5313 3.67793 14.0128 5.16892C14.8545 6.01608 15.141 6.71702 14.9163 7.38006C14.7837 7.77122 14.716 7.74334 14.6727 7.27967C14.5995 6.49785 14.4898 6.23171 14.174 6.07065C13.8437 5.90206 13.2583 6.15465 13.1985 6.49146C13.1881 6.55035 13.1442 6.63684 13.1008 6.68367C12.9531 6.84353 12.8951 7.00175 12.8802 7.28634C12.8635 7.60527 12.88 7.63379 13.0834 7.63599C13.3666 7.63897 13.8231 7.72865 13.8337 7.78343C13.8424 7.82876 13.8093 7.83309 13.4501 7.83309C13.043 7.83309 12.9309 7.86119 12.9309 7.96329C12.9309 7.99635 12.9077 7.99174 12.82 7.94122C12.715 7.88084 12.6982 7.87928 12.5072 7.91199C12.2778 7.95137 12.1354 7.95648 12.1379 7.92533C12.1506 7.76335 12.2691 7.64826 12.4373 7.63443C12.6786 7.61463 12.7038 7.58646 12.7038 7.33749C12.7038 7.22482 12.7294 7.03275 12.7606 6.91072C12.867 6.49465 12.8413 6.47082 12.2865 6.47082C11.7387 6.47082 11.4553 6.54241 10.8733 6.82777C10.3657 7.07667 10.2674 7.35076 10.7163 7.26562C11.0014 7.21155 11.484 7.27711 11.7247 7.40256C11.7871 7.43505 11.8734 7.47627 11.9163 7.49408C11.9592 7.51189 11.9943 7.538 11.9943 7.55205C11.9943 7.58817 11.8604 7.58391 11.7888 7.5456C11.538 7.41135 10.3766 7.50827 10.3766 7.66352C10.3766 7.67671 10.3629 7.72347 10.346 7.76739L10.3155 7.84728L10.2764 7.75504C10.2257 7.63499 10.2332 7.634 9.63084 7.83742C9.3464 7.93349 9.01151 8.03637 8.88663 8.0661C8.76175 8.09583 8.58296 8.13854 8.4893 8.16096C7.44028 8.41213 6.61681 8.37751 5.80058 8.04801C5.5653 7.95307 5.42446 7.8807 5.2397 7.7598C4.9632 7.57887 4.90814 7.66621 5.07147 8.02658C5.46675 8.89858 6.20138 9.39808 7.09914 9.4051C7.40891 9.40752 7.52194 9.39794 7.60999 9.36154C7.67215 9.33593 7.89543 9.26022 8.10616 9.19338C8.31689 9.12654 8.71393 8.99748 8.98837 8.9066C9.57117 8.71361 9.76062 8.68664 9.46844 8.83834C8.9214 9.12236 7.91246 9.55474 7.6095 9.63499C7.53145 9.65563 7.42928 9.68593 7.38245 9.70232C7.03755 9.8228 6.16463 9.86352 5.76247 9.77788C5.28029 9.67515 5.0575 9.53367 4.53018 8.99514C3.92496 8.37715 3.93525 8.38141 3.30981 8.48322C1.22893 8.82195 0.140953 10.955 1.09994 12.8158C1.50657 13.6048 2.11618 14.0775 3.11114 14.3754L3.23886 14.4136L3.00961 14.4155C2.74815 14.4177 2.39141 14.3156 2.05488 14.1422C1.72864 13.9742 1.69239 14.0693 1.86317 14.6445C2.31783 16.1761 3.39992 17.4989 4.82818 18.2692C5.27418 18.5098 6.07537 18.8729 6.1613 18.8734C6.17733 18.8735 6.22324 18.8907 6.26332 18.9116C6.35038 18.957 7.16938 19.2207 7.41083 19.2809C7.91508 19.4068 8.21947 19.4673 8.64539 19.526C8.74685 19.5399 8.9959 19.5742 9.19882 19.6022C9.72315 19.6743 11.1809 19.674 11.7673 19.6016C12.361 19.5283 13.197 19.4088 13.2216 19.3939C13.2331 19.3868 13.3225 19.3685 13.4202 19.3532C13.9044 19.2774 14.7611 19.0553 15.0453 18.9321C15.0765 18.9186 15.185 18.879 15.2865 18.8443C15.4737 18.7801 16.09 18.4886 16.3532 18.3397C17.1564 17.8852 18.0333 17.0481 18.4851 16.3043C18.6202 16.082 18.6978 15.9342 18.7623 15.7768C18.8032 15.677 18.8477 15.5697 18.8612 15.5385C18.8747 15.5073 18.9199 15.3668 18.9615 15.2263C19.0032 15.0858 19.0496 14.9325 19.0645 14.8857C19.3231 14.0778 19.2802 13.2095 18.9225 12.0051C18.8923 11.9036 18.8526 11.7695 18.8342 11.7071C18.7795 11.521 18.578 10.9494 18.524 10.8273C18.4965 10.7648 18.4199 10.5733 18.3539 10.4016C18.2217 10.0577 17.8755 9.31641 17.8195 9.25717C17.8 9.23659 17.784 9.20637 17.784 9.19005C17.784 8.97102 17.1237 8.31734 16.6886 8.10583C16.0092 7.77534 16.0329 7.78123 15.652 7.84863C15.5522 7.8663 15.5487 7.86396 15.5305 7.76675C15.5192 7.70694 15.492 7.66146 15.463 7.6538C15.4361 7.64677 15.4671 7.63954 15.5319 7.63769C15.8987 7.62747 16.2454 6.60726 16.0971 5.97415C16.0421 5.7393 15.9399 5.65501 15.5631 5.53418C14.6586 5.24399 14.1672 4.99842 13.6357 4.57094C12.6613 3.7872 10.9877 3.40832 9.3691 3.60507ZM11.1287 3.69276C11.2224 3.70724 11.4076 3.73306 11.5402 3.75016C11.6729 3.76726 11.8198 3.79777 11.8666 3.81806C11.9134 3.83829 12.0983 3.90193 12.2774 3.95947C12.4565 4.01709 12.6286 4.08201 12.6598 4.10386C12.6909 4.12571 12.7376 4.14359 12.7634 4.14359C12.7893 4.14359 12.8263 4.16275 12.8457 4.18616C12.8652 4.20958 12.9041 4.22873 12.9323 4.22873C12.9605 4.22873 13.0005 4.24491 13.0211 4.26471C13.0417 4.2845 13.0905 4.31558 13.1296 4.33374L13.2005 4.36681L13.1113 4.36872C13.0568 4.36986 13.0157 4.35411 13.0057 4.32807C12.9968 4.30465 12.9664 4.2855 12.9381 4.2855C12.9099 4.2855 12.8616 4.26889 12.8308 4.2486C12.5532 4.06562 11.3886 4.05256 11.1571 4.22987C11.1415 4.24179 11.0744 4.26606 11.0081 4.28379C10.9418 4.30153 10.8875 4.32672 10.8875 4.33977C10.8875 4.35283 10.8524 4.37057 10.8094 4.37922C10.4495 4.45138 9.68824 5.01999 8.86414 5.83225C8.78496 5.9103 8.65944 6.0197 8.58523 6.0754C8.51101 6.1311 8.37606 6.2432 8.28531 6.32451C8.09353 6.49636 8.09842 6.49274 7.9341 6.58115C7.86485 6.6184 7.75707 6.68246 7.69464 6.7234C7.6322 6.76441 7.52364 6.82252 7.4534 6.85254C7.38316 6.88262 7.30653 6.92292 7.28312 6.94222C7.18315 7.02452 6.48335 7.22837 5.9776 7.32252C5.59765 7.39326 5.58439 7.39922 5.56402 7.50785C5.53919 7.64024 5.52798 7.64273 5.38728 7.5468C5.32066 7.50132 5.25481 7.46414 5.24105 7.46414C5.22728 7.46414 5.21182 7.45393 5.20657 7.44137C5.17726 7.37077 4.8418 7.20701 4.78681 7.23646C4.6078 7.33224 4.63689 7.9298 4.82839 8.08866C4.85166 8.10803 4.87075 8.14691 4.87075 8.17508C4.87075 8.20332 4.88991 8.24554 4.91332 8.26895C4.93674 8.29236 4.95589 8.32266 4.95589 8.33621C4.95589 8.38368 5.21976 8.72311 5.38728 8.89113C5.48548 8.98961 5.54564 9.07106 5.53103 9.08568C5.47725 9.13946 5.13554 8.8504 4.66889 8.35643C4.46668 8.14237 4.34407 8.03176 4.30917 8.03176C4.29405 8.03176 4.26518 8.01189 4.24503 7.98755C4.19124 7.92278 4.03267 7.86353 3.85805 7.84303C3.75901 7.83139 3.696 7.80854 3.67989 7.77846C3.60674 7.64174 3.86189 7.06234 4.2209 6.55C4.25049 6.50771 4.27475 6.4662 4.27475 6.45776C4.27475 6.42072 4.4163 6.30493 4.60582 6.18701C4.7187 6.11677 4.88203 6.01069 4.96881 5.95123C5.12313 5.84552 5.78986 5.50175 5.91119 5.46528C5.94489 5.45521 5.98796 5.42825 6.0069 5.40547C6.02585 5.38263 6.07488 5.36389 6.11589 5.36382C6.1569 5.36368 6.22707 5.34452 6.27177 5.32125C6.31647 5.29791 6.37067 5.27882 6.39224 5.27882C6.41381 5.27882 6.50499 5.25505 6.59474 5.22589C6.68457 5.1968 6.85386 5.15146 6.97093 5.12507C7.088 5.09868 7.25403 5.05994 7.33988 5.03901C7.66384 4.95996 7.8987 4.91307 8.06174 4.8949C8.15441 4.88454 8.26041 4.86461 8.29737 4.85056C8.33434 4.83651 8.46929 4.81309 8.59722 4.79855C8.88046 4.76634 9.09949 4.68041 9.09949 4.60144C9.09949 4.49566 8.83398 4.45557 8.51768 4.51361C8.43963 4.52794 8.23529 4.5522 8.06359 4.56753C7.68733 4.60116 7.40317 4.64387 7.21216 4.69546C6.93467 4.77045 6.8127 4.80068 6.64455 4.83608C6.55089 4.85581 6.44631 4.88681 6.41225 4.90512C6.37819 4.92335 6.32072 4.93832 6.28454 4.9384C6.24842 4.93854 6.18223 4.95769 6.13753 4.98097C6.09283 5.00431 6.0113 5.0234 5.95632 5.0234H5.85641L5.9241 4.97146C5.96135 4.94294 6.01095 4.91122 6.03436 4.90115C6.05778 4.891 6.12802 4.85148 6.19046 4.81324C6.25289 4.77506 6.46043 4.66523 6.65164 4.56923C6.84286 4.47316 6.99931 4.38284 6.99931 4.36844C6.99931 4.35404 7.02166 4.34183 7.04898 4.34126C7.07629 4.34077 7.14973 4.31565 7.21216 4.2855C7.2746 4.25534 7.3452 4.23022 7.36904 4.22973C7.39288 4.22916 7.43758 4.21213 7.46837 4.19191C7.49917 4.17162 7.62014 4.12578 7.73721 4.09009C7.85428 4.05433 7.97561 4.01418 8.00683 4.00091C8.03804 3.98764 8.15299 3.94925 8.26225 3.91562C8.37152 3.88192 8.50562 3.83729 8.56025 3.81643C8.61488 3.79557 8.7426 3.77067 8.84406 3.76116C8.94552 3.75158 9.07132 3.73016 9.12368 3.71348C9.35278 3.64047 10.7004 3.62657 11.1287 3.69276ZM11.3289 4.47167C11.1728 4.51063 10.6569 4.7652 10.3908 4.93464C10.1223 5.1057 9.75494 5.40327 9.36811 5.76321C8.17633 6.87226 7.48888 7.27115 6.2756 7.5578C5.94361 7.63627 5.91779 7.67068 6.07786 7.8216C6.36642 8.09377 6.89253 8.18515 7.63802 8.09256C8.46411 7.98997 8.84704 7.85835 9.56777 7.42916C10.2197 7.04099 10.3343 6.95691 10.3608 6.84736C10.3885 6.73298 10.4345 6.624 10.5517 6.39596C11.0073 5.50864 11.8362 4.89412 12.7255 4.78436C12.9573 4.75577 12.9701 4.74505 12.8722 4.66268C12.6367 4.46451 11.7822 4.35879 11.3289 4.47167ZM12.3349 4.54873C12.4207 4.57292 12.5261 4.60045 12.569 4.60996C12.6872 4.636 12.6776 4.73959 12.557 4.73959C12.3542 4.73959 11.6159 5.0532 11.4398 5.21419C11.3923 5.25754 11.2852 5.34729 11.2019 5.4137C11.1184 5.48004 10.9873 5.61414 10.9105 5.7117C10.8336 5.80919 10.7363 5.93144 10.6943 5.9833C10.6523 6.03524 10.6127 6.09271 10.6065 6.11102C10.6003 6.12939 10.5859 6.15082 10.5746 6.15863C10.5346 6.18637 10.3422 6.62797 10.3275 6.72596C10.3135 6.81919 10.1701 7.01005 10.114 7.01005C10.0821 7.01005 9.58962 7.29975 9.35676 7.45549C9.25629 7.52268 9.15731 7.57767 9.13681 7.57767C9.1163 7.57767 9.09949 7.58959 9.09949 7.60413C9.09949 7.61868 9.07075 7.63925 9.03563 7.64989C9.00051 7.66047 8.93346 7.68572 8.88663 7.70602C7.93949 8.11647 6.46774 8.14755 6.14923 7.76377C6.09794 7.70197 6.15803 7.63443 6.26432 7.63443C6.5433 7.63443 7.57494 7.23575 7.99264 6.96656C8.06288 6.92122 8.16505 6.85999 8.21968 6.8304C8.31249 6.78009 8.55692 6.59612 8.58863 6.55262C8.59644 6.54198 8.67761 6.47514 8.76906 6.40419C8.86045 6.33324 9.03286 6.18154 9.1522 6.0671C9.27147 5.95265 9.39628 5.84005 9.42955 5.81692C9.46283 5.79386 9.59317 5.67928 9.71925 5.56235C10.0035 5.29869 10.0274 5.27882 10.0597 5.27882C10.0741 5.27882 10.101 5.26059 10.1195 5.23831C10.1817 5.16338 10.7331 4.8033 10.9614 4.68843C11.4069 4.46451 11.8689 4.41747 12.3349 4.54873ZM12.4322 5.07995C11.7494 5.23434 11.1535 5.7056 10.7511 6.40944C10.6313 6.6191 10.6137 6.68168 10.6559 6.74824C10.6736 6.77612 10.7011 6.76959 10.7761 6.71979C10.9476 6.60584 11.2263 6.48742 11.3983 6.45535C11.453 6.44513 11.5573 6.41781 11.6302 6.39454C11.8164 6.33508 12.6639 6.35055 12.7133 6.41427C12.7724 6.49054 12.8697 6.44258 13.0797 6.23348C13.402 5.91257 13.6049 5.81806 13.9713 5.81806C14.2424 5.81806 14.2478 5.77066 14.0059 5.51864C13.5725 5.06732 13.0869 4.93194 12.4322 5.07995ZM13.5077 5.23029C13.6613 5.30061 14.0536 5.65082 14.0184 5.68609C14.0082 5.69623 13.9593 5.70453 13.9097 5.70453C13.7069 5.70453 13.329 5.88007 13.1347 6.06454C12.9686 6.22241 12.9552 6.22553 12.7364 6.15543C12.0561 5.93761 10.9548 6.18275 10.794 6.58789C10.7822 6.61747 10.7779 6.61598 10.7762 6.58157C10.7677 6.41065 11.177 5.89234 11.5599 5.5891C11.6817 5.49253 11.7857 5.40242 11.7909 5.3888C11.7962 5.3751 11.8217 5.36389 11.8477 5.36382C11.8737 5.36368 11.9316 5.34452 11.9763 5.32125C12.021 5.29791 12.0721 5.27875 12.0898 5.27868C12.1076 5.27854 12.1603 5.25853 12.207 5.23419C12.4369 5.11429 13.2489 5.11187 13.5077 5.23029ZM14.9553 5.40597C14.9906 5.4291 15.1725 5.49877 15.3596 5.56093C15.9495 5.75676 15.9372 5.74867 16.0073 5.98643C16.1105 6.33636 15.9993 6.97195 15.7694 7.34551C15.7224 7.422 15.6838 7.49841 15.6838 7.5153C15.6838 7.53509 15.5629 7.54907 15.3432 7.55468L15.0025 7.56348L15.0026 7.4911C15.0027 7.43399 15.024 7.41107 15.1039 7.38219C15.3062 7.30904 15.5135 7.05737 15.5135 6.88496C15.5135 6.63535 15.2004 5.9589 14.8981 5.55525C14.7467 5.35304 14.7723 5.28606 14.9553 5.40597ZM16.3006 6.46308C16.2846 6.89773 16.2309 7.14656 16.0846 7.46414C15.9849 7.68033 16.0052 7.70027 16.4785 7.8487C16.5643 7.87559 16.7542 7.95321 16.9004 8.02111C17.0467 8.08894 17.1792 8.13648 17.1951 8.12669C17.3749 8.01558 16.7245 6.35885 16.404 6.11173L16.3159 6.04383L16.3006 6.46308ZM14.222 6.2078C14.3697 6.30975 14.5453 6.65089 14.5475 6.83977C14.5482 6.91001 14.5685 7.09519 14.5924 7.25129C14.6162 7.40738 14.6324 7.58604 14.6283 7.64833C14.6191 7.78541 14.6789 7.81195 14.7937 7.72163C14.932 7.61279 15.417 7.67153 15.4451 7.8006C15.4743 7.9342 15.4825 7.94662 15.5419 7.94662C15.5741 7.94662 15.6464 7.92746 15.7024 7.90404C16.0133 7.77413 16.8242 8.12016 17.2747 8.57489C17.5918 8.89496 17.9737 9.56276 18.2785 10.3306C18.3064 10.4008 18.3524 10.5158 18.3806 10.586C18.5299 10.9575 18.812 11.7669 18.8899 12.0476C19.2592 13.3771 19.2671 14.0024 18.9296 15.1837C18.6627 16.1176 17.793 17.3279 17.0228 17.8372C16.9654 17.8752 16.8418 17.9612 16.7481 18.0284C14.9057 19.3492 10.7029 20.0015 8.0494 19.3787C7.97915 19.3621 7.84506 19.3322 7.7514 19.3121C5.99491 18.9348 4.26979 18.0611 3.33053 17.073C2.86984 16.5885 2.32826 15.7918 2.1992 15.409C2.18111 15.3553 2.15585 15.2978 2.14293 15.2812C2.1059 15.2332 1.84295 14.4152 1.82429 14.2897C1.79491 14.0922 1.82713 14.0827 2.08454 14.2129C2.49826 14.4221 3.16861 14.5505 3.38204 14.4613C3.51607 14.4053 3.53536 14.4163 3.08276 14.2906C1.97556 13.9829 1.29804 13.3728 0.966337 12.3848C0.352958 10.5575 1.56404 8.68132 3.46477 8.5143C3.90538 8.47563 3.99747 8.49976 4.1867 8.70339C4.86564 9.43405 4.96192 9.51792 5.29646 9.67011C5.70273 9.85501 6.47377 9.94129 6.89998 9.84962C6.96241 9.83621 7.09013 9.81038 7.18378 9.79222C7.36819 9.75646 8.07409 9.54303 8.12035 9.50898C8.13596 9.49755 8.19981 9.46818 8.26225 9.4437C8.36024 9.40532 8.61368 9.29272 8.91501 9.15365C9.02754 9.10171 9.62276 8.84352 9.90727 8.72326C10.0316 8.67075 10.1451 8.62775 10.1596 8.62775C10.1741 8.62775 10.2448 8.60079 10.3167 8.56794C10.5898 8.443 10.678 8.40468 10.7881 8.36317C10.8506 8.33962 10.9272 8.31067 10.9584 8.29889C11.0255 8.27349 11.2548 8.21602 11.5119 8.16018C11.6133 8.13819 11.7602 8.10569 11.8382 8.08795C12.7022 7.8922 12.7046 7.89241 12.9408 8.1865C13.0672 8.34387 13.123 8.29641 13.0279 8.11243C13.0008 8.06 12.9902 7.99699 13.0012 7.95328L13.0194 7.88098L13.6439 7.89844C14.2006 7.91398 14.2676 7.91107 14.2595 7.87162C14.2469 7.80918 14.0316 7.69502 13.8885 7.6748C13.8223 7.66543 13.7107 7.64088 13.6404 7.62024C13.5702 7.59959 13.3863 7.5754 13.2317 7.56645C13.0772 7.55759 12.9431 7.54254 12.9337 7.53318C12.9083 7.50771 12.9266 7.20559 12.9559 7.16927C12.9698 7.15195 12.9903 7.08299 13.0013 7.01608C13.0288 6.84934 13.0841 6.87035 13.3708 7.15657C13.7216 7.50678 13.8079 7.50671 13.8333 7.15607C13.8542 6.86715 13.764 6.69793 13.4984 6.52751C13.3335 6.42165 13.3197 6.35907 13.4422 6.2718C13.6982 6.08959 14.0135 6.06369 14.222 6.2078ZM16.4852 6.36439C16.5104 6.3839 16.5601 6.45733 16.5955 6.52758C16.6309 6.59782 16.6669 6.66168 16.6756 6.66948C16.704 6.69509 16.8144 6.93569 16.8774 7.10938C16.9114 7.20304 16.9507 7.30223 16.9649 7.32983C17.0056 7.40965 17.1024 7.8382 17.1026 7.93952C17.1029 8.02353 17.0644 8.06631 17.0413 8.0077C17.0159 7.943 16.3018 7.66281 16.1623 7.66281C16.0967 7.66281 16.0896 7.54439 16.1521 7.49252C16.1755 7.47308 16.1951 7.4364 16.1957 7.411C16.1962 7.3856 16.2213 7.31372 16.2514 7.25129C16.2816 7.18885 16.3069 7.11222 16.3076 7.081C16.3084 7.04978 16.3284 6.96876 16.352 6.901C16.3755 6.83324 16.3962 6.67679 16.3978 6.55333C16.4008 6.32089 16.4082 6.30493 16.4852 6.36439ZM12.4742 6.57916C12.7175 6.64302 12.7283 6.66615 12.6523 6.96585C12.6182 7.10058 12.5903 7.28513 12.5903 7.37595V7.54105L12.4009 7.55879C12.2238 7.57532 12.2032 7.571 12.0817 7.49146C11.6986 7.24079 11.2503 7.12776 10.8023 7.16884C10.5529 7.19169 10.5651 7.19225 10.5532 7.15664C10.5337 7.09824 10.8807 6.86871 10.9896 6.868C11.0036 6.86786 11.0513 6.84899 11.0954 6.82593C11.473 6.62904 12.1811 6.50225 12.4742 6.57916ZM10.0786 7.3089L9.99348 7.37872L10.08 7.37886C10.1711 7.379 10.2347 7.33593 10.2347 7.27399C10.2347 7.21773 10.1731 7.23156 10.0786 7.3089ZM17.3994 7.46648C17.3078 7.6147 17.4608 8.092 17.6716 8.31557C18.0544 8.72155 18.393 9.38062 18.9217 10.7492C18.9353 10.7843 18.9643 10.8131 18.9861 10.8131C19.1978 10.8131 19.2367 9.76752 19.0451 9.22552C18.916 8.86026 18.8947 8.80996 18.7918 8.62775C18.4617 8.04297 17.5256 7.26228 17.3994 7.46648ZM17.7093 7.59079C18.6129 8.13492 19.1024 9.00231 19.1031 10.061C19.1037 10.7792 19.0149 10.9138 18.8507 10.4441C18.7138 10.0526 18.5302 9.63144 18.2753 9.12442C18.1422 8.85941 17.9082 8.51224 17.7148 8.29258C17.515 8.06567 17.5083 8.05219 17.456 7.77676C17.3942 7.4508 17.4314 7.42349 17.7093 7.59079ZM11.6513 7.59519C12.0907 7.72248 12.1192 7.78087 11.7955 7.8917C11.6785 7.93179 11.5549 7.97968 11.5208 7.99813C11.4867 8.01664 11.4352 8.03176 11.4062 8.03176C11.3773 8.03176 11.3069 8.05553 11.2498 8.08462C11.1929 8.11371 11.096 8.14549 11.0348 8.15528C10.9735 8.16515 10.8866 8.19232 10.8416 8.21581C10.7966 8.23922 10.7298 8.25852 10.6932 8.25866C10.6566 8.25873 10.5927 8.27626 10.5513 8.29769C10.5099 8.31904 10.3258 8.38425 10.1423 8.44257C9.95879 8.50096 9.80155 8.56007 9.79297 8.57404C9.78431 8.58795 9.74288 8.59944 9.70087 8.59951C9.65887 8.59966 9.58792 8.61881 9.54322 8.64209C9.49852 8.66543 9.44431 8.68451 9.42274 8.68451C9.40117 8.68451 9.31 8.70871 9.22025 8.73823C9.13042 8.76774 8.96113 8.82088 8.84406 8.85622C8.72699 8.89162 8.61843 8.9293 8.60282 8.93994C8.58721 8.95059 8.47866 8.98947 8.36159 9.02622C8.24452 9.06297 8.1168 9.10966 8.07778 9.12988C8.03875 9.1501 7.9832 9.1667 7.95432 9.16685C7.92551 9.16692 7.86166 9.18494 7.81242 9.20693C7.20698 9.47733 6.34087 9.32145 5.79334 8.84352C5.47051 8.5617 5.40481 8.47932 5.22147 8.12662C5.04905 7.79492 5.06161 7.78328 5.40999 7.95109C5.84655 8.16146 5.92339 8.19403 6.16208 8.26987C6.93063 8.51416 7.93878 8.46087 8.97177 8.12137C9.12354 8.07149 9.36669 8.00565 9.46844 7.98684C9.52307 7.9767 9.58054 7.95875 9.59615 7.94683C9.65021 7.90568 10.1525 7.77136 10.1935 7.78712C10.2162 7.79584 10.2347 7.83614 10.2347 7.8768C10.2347 7.95435 10.3649 8.20204 10.4056 8.20204C10.4877 8.20204 10.5172 8.10973 10.5 7.90653C10.4802 7.67239 10.4778 7.67608 10.703 7.60186C10.8995 7.53708 11.4376 7.53332 11.6513 7.59519ZM11.9592 8.02289C11.932 8.02998 11.8809 8.03027 11.8457 8.02346C11.8103 8.01665 11.8326 8.01083 11.895 8.01054C11.9574 8.01019 11.9863 8.01579 11.9592 8.02289ZM9.83739 8.68451C9.73592 8.71701 9.69548 8.71701 9.69548 8.68451C9.69548 8.66891 9.74337 8.65741 9.80191 8.65897C9.89691 8.66146 9.90067 8.66422 9.83739 8.68451ZM16.324 10.236C15.8541 10.3697 15.6078 11.093 15.8069 11.7541C15.8461 11.8843 15.8913 12.1016 15.9074 12.2369C16.0228 13.208 16.8765 13.7468 17.3926 13.1744C18.1894 12.2906 17.3373 9.94781 16.324 10.236ZM16.6747 10.2951C16.851 10.3503 17.2191 10.6677 17.2919 10.8273C17.3133 10.8741 17.3429 10.9316 17.3577 10.955C17.7401 11.5581 17.7394 12.7161 17.3564 13.1523C16.9133 13.657 15.9897 13.1083 15.9916 12.3414C15.9921 12.136 16.0336 12.0581 16.0785 12.1786C16.0981 12.2315 16.1258 12.2938 16.1398 12.3173C16.154 12.3407 16.1834 12.3981 16.2054 12.445C16.2583 12.5578 16.5244 12.8651 16.6472 12.9551C16.8526 13.1057 17.2725 12.9851 17.2733 12.7752C17.2734 12.7496 17.2956 12.6905 17.3227 12.6436C17.3844 12.5372 17.3973 11.6463 17.3383 11.5752C17.3194 11.5525 17.2951 11.4771 17.2841 11.4076C17.2731 11.3382 17.2315 11.2303 17.1916 11.1678C17.1516 11.1054 17.0946 11.0096 17.0648 10.955C16.7845 10.4412 16.2973 10.3567 16.0826 10.7847C16.0296 10.8903 15.9835 11.1097 15.9521 11.4051L15.9329 11.5857L15.8723 11.5249C15.7777 11.4301 15.7874 10.9727 15.8887 10.7515C16.0728 10.3495 16.3445 10.1917 16.6747 10.2951ZM8.70216 11.1431C8.09466 11.2616 7.61872 11.6778 7.47327 12.2179C7.41913 12.419 7.42417 13.2296 7.48058 13.3957C7.99292 14.9047 10.148 14.7324 10.5465 13.1507C10.8246 12.047 9.7978 10.9294 8.70216 11.1431ZM9.37918 11.2357C10.5296 11.5545 10.9254 13.0076 10.0971 13.8709C9.33994 14.6599 8.06912 14.5312 7.6173 13.6197C7.53507 13.4539 7.46638 13.0876 7.50945 13.0445C7.55181 13.0022 7.62092 13.0481 7.641 13.132C7.70493 13.3991 8.03776 13.7829 8.35066 13.9506L8.54606 14.0553L8.9292 14.0588C9.33079 14.0626 9.38521 14.0488 9.67973 13.8693C9.89869 13.7358 10.1963 13.3279 10.2476 13.091C10.2585 13.0404 10.2793 12.9917 10.2937 12.9829C10.3272 12.9621 10.3282 12.5244 10.2946 12.5036C10.2808 12.4951 10.2607 12.4528 10.2501 12.4098C9.94438 11.1695 8.04599 11.074 7.64455 12.2787C7.58431 12.4596 7.52712 12.4387 7.54663 12.243C7.61659 11.5418 8.57756 11.0136 9.37918 11.2357ZM16.0947 15.0484C16.0326 15.0989 15.9631 15.1582 15.9402 15.1802C15.9174 15.2022 15.7705 15.304 15.6139 15.4064C15.4572 15.5088 15.2652 15.6495 15.1872 15.719C14.2871 16.5209 12.6855 16.7385 11.2139 16.2589C11.0166 16.1947 11.0108 16.1923 10.679 16.0382C10.3981 15.9078 10.3766 15.9027 10.3766 15.9669C10.3766 16.3109 11.5475 16.8341 12.5097 16.9202C13.127 16.9754 14.4144 16.8113 14.5897 16.6551C14.6046 16.6419 14.6374 16.6311 14.6628 16.6311C14.7325 16.6311 15.2001 16.3964 15.4233 16.2494C15.8879 15.9433 16.3353 15.2952 16.2678 15.0261C16.2453 14.9364 16.2302 14.9384 16.0947 15.0484ZM16.2052 15.1908C15.8139 16.5417 13.0745 17.3663 11.4125 16.6335C10.9048 16.4095 10.6286 16.2509 10.5385 16.1312C10.4652 16.034 10.5397 16.0393 10.8065 16.1504C11.8684 16.5927 12.8782 16.6829 13.9087 16.4275C14.409 16.3035 14.8634 16.0683 15.2375 15.7398C15.3191 15.6681 15.5008 15.5351 15.6413 15.4441C15.7817 15.3531 15.9581 15.2254 16.0332 15.1603C16.2242 14.9946 16.2602 15.0009 16.2052 15.1908ZM12.1078 19.9115C11.7932 19.9496 11.1154 20.0042 10.921 20.007C10.8361 20.0083 10.8278 20.0158 10.8359 20.0838C10.8655 20.332 11.9741 20.3147 12.4996 20.0579C12.8501 19.8865 12.7187 19.8375 12.1078 19.9115ZM12.5336 19.9565C12.4945 19.9727 12.4411 19.997 12.4149 20.0104C12.1485 20.1472 11.113 20.2434 11.0105 20.1409C10.9489 20.0793 11.1032 20.0368 11.3885 20.0368C11.6936 20.0368 12.1971 19.9911 12.3288 19.9514C12.453 19.9139 12.6259 19.9183 12.5336 19.9565ZM6.00854 26.8151C5.98342 26.8619 5.99172 26.9129 6.0494 27.0661C6.50981 28.2892 7.44198 28.3969 7.84882 27.2739C7.9727 26.9321 7.9744 26.9335 7.42644 26.9328C6.98654 26.9322 6.82257 26.9155 6.44588 26.8333C6.07034 26.7512 6.0433 26.7501 6.00854 26.8151ZM6.48845 26.8914C6.73054 26.95 7.26729 26.9971 7.56607 26.986L7.83654 26.9759L7.83157 27.0926C7.82859 27.1613 7.78006 27.3074 7.71358 27.4474C7.31199 28.2933 6.64079 28.1968 6.16796 27.2253C5.96135 26.8007 5.99009 26.7708 6.48845 26.8914ZM13.6224 28.4396C13.7224 28.5182 13.7208 28.6007 13.6191 28.6158C13.5455 28.6266 13.5459 28.6271 13.6262 28.6246C13.7756 28.62 13.724 28.3852 13.5727 28.3814C13.5589 28.3811 13.5812 28.4072 13.6224 28.4396ZM13.2431 28.6805C13.1884 28.7012 13.091 28.7189 13.0266 28.7197C12.9622 28.7206 12.8636 28.7405 12.8076 28.7639C12.7473 28.7891 12.6154 28.8068 12.4848 28.8072C12.3633 28.8075 12.2129 28.8219 12.1504 28.839C12.088 28.8562 11.9475 28.8794 11.8382 28.8906L11.6396 28.9109L11.824 28.9151C11.9255 28.9174 12.0712 28.9004 12.1479 28.8771C12.2245 28.8539 12.3795 28.8349 12.4923 28.8349C12.605 28.8349 12.7595 28.8168 12.8354 28.7947C12.9113 28.7726 13.0501 28.7418 13.1437 28.7262C13.4004 28.6832 13.5409 28.6419 13.4276 28.6425C13.3807 28.6427 13.2977 28.6599 13.2431 28.6805ZM10.3482 28.9651C10.6939 29.0069 10.8852 29.0034 11.3699 28.9464C11.5043 28.9306 11.4774 28.9289 11.2706 28.9402C10.9148 28.9596 10.7009 28.9592 10.3057 28.9386L9.99348 28.9223L10.3482 28.9651Z" fill="#906637"/>
</svg>
