<svg width="22" height="19" viewBox="0 0 22 19" fill="none" xmlns="http://www.w3.org/2000/svg">
<path d="M4.32002 0.160414C3.42628 0.481244 2.72733 1.21457 2.45233 2.14268C2.20025 2.96767 2.21171 2.97913 2.97941 2.97913C3.54086 2.97913 3.68982 2.94475 3.73565 2.77288C3.89606 2.23435 4.21689 1.77602 4.58356 1.58123C4.95022 1.38644 5.3398 1.37498 9.70536 1.37498H14.4376V0H9.60224C5.85541 0.0114582 4.6523 0.0458326 4.32002 0.160414Z" fill="#878A8C"/>
<path d="M0.722121 4.69785C0.573165 4.75514 0.355459 4.97285 0.229419 5.1791C0.023172 5.52284 0.000255585 5.76346 0.000255585 7.6999V9.83112L0.492958 9.91133C0.756496 9.9457 1.06587 10.0145 1.16899 10.0374C1.35232 10.0947 1.37524 9.92279 1.39815 8.0551L1.43253 6.01554L7.59703 5.98117L13.7501 5.95825V7.96344C13.7501 9.06342 13.773 9.96862 13.8074 9.96862C13.8417 9.96862 14.7355 9.39571 15.7896 8.6853C16.8438 7.97489 17.8865 7.33324 18.1042 7.25303C18.3219 7.18428 18.9865 7.11553 19.5708 7.10407H20.625V16.0415H19.6167C19.0667 16.0415 18.4594 15.9956 18.2646 15.9383C18.0698 15.881 17.0042 15.2394 15.8813 14.5061C14.7699 13.7727 13.8303 13.1769 13.7959 13.1769C13.773 13.1769 13.7501 14.0821 13.7501 15.1821V17.1873H8.49077L8.60535 17.5539C8.66265 17.7602 8.70848 18.0696 8.70848 18.2414V18.5623H14.3459L14.7355 18.1727C15.1136 17.7946 15.1251 17.7602 15.1251 16.7977C15.1251 16.2592 15.148 15.8123 15.1824 15.8123C15.2167 15.8123 15.6407 16.0758 16.1334 16.4081C17.474 17.3133 17.8407 17.4164 19.6625 17.4164H21.2208L22 16.6373V11.6415C22 8.30718 21.9541 6.56554 21.8739 6.38221C21.6333 5.84367 21.2323 5.72909 19.6281 5.72909C17.875 5.74055 17.4052 5.86659 16.1334 6.73741C15.6521 7.0697 15.2167 7.33324 15.1824 7.33324C15.148 7.33324 15.1251 6.88637 15.1251 6.34783C15.1251 5.38534 15.1136 5.35097 14.7355 4.97285L14.3459 4.58327L7.65432 4.59473C3.97625 4.59473 0.85962 4.64056 0.722121 4.69785Z" fill="#878A8C"/>
<path d="M0.000281939 12.18V12.9019L0.664857 13.0394C3.00233 13.5207 5.04188 15.5602 5.61479 17.955L5.75229 18.5623H6.42832C7.21894 18.5623 7.21894 18.5393 6.92103 17.3821C6.21062 14.6436 3.79294 12.2832 1.03152 11.6415C-0.0455508 11.3894 0.000281939 11.3551 0.000281939 12.18Z" fill="#878A8C"/>
<path d="M0.000255585 15.9154L0.607539 16.1904C1.35232 16.5342 2.05127 17.2216 2.40647 17.9779L2.67001 18.5623H3.40334C3.80437 18.5623 4.1252 18.5393 4.1252 18.505C4.1252 18.2987 3.57521 17.0383 3.31167 16.6602C2.67001 15.7092 1.35232 14.7925 0.378376 14.5977L0.000255585 14.5175V15.9154Z" fill="#878A8C"/>
</svg>
