<svg width="20" height="22" viewBox="0 0 20 22" fill="none" xmlns="http://www.w3.org/2000/svg">
<path fill-rule="evenodd" clip-rule="evenodd" d="M9.8453 0.0306581C9.81519 0.0467567 9.70677 0.10124 9.60437 0.151726C9.08243 0.409029 8.65544 0.636763 8.49828 0.741568C8.40191 0.805853 8.28856 0.879939 8.2464 0.906167C8.04829 1.02943 7.83496 1.17256 7.77429 1.22299C7.73749 1.2536 7.67435 1.30327 7.634 1.33338C7.33114 1.55942 7.05478 1.78392 6.90666 1.92421C6.87457 1.9546 6.7379 2.083 6.60303 2.20949C6.38154 2.41719 5.70245 3.16374 5.57968 3.33453C5.55252 3.37231 5.5057 3.43769 5.4757 3.47986C5.44569 3.52202 5.39641 3.59101 5.36618 3.63317C5.33596 3.67534 5.287 3.74433 5.25733 3.78649C5.2277 3.82866 5.1741 3.90258 5.13834 3.95077C5.04679 4.07402 4.85415 4.38789 4.72158 4.62975C4.70182 4.66589 4.64427 4.76582 4.59373 4.85185C4.51247 4.99022 4.38094 5.2571 4.22822 5.59347C4.20085 5.65371 4.14757 5.76892 4.10978 5.84946C4.072 5.93001 4.04101 6.00886 4.04096 6.02469C4.04085 6.04051 4.02502 6.083 4.0058 6.11914C3.98653 6.15528 3.95285 6.24399 3.93089 6.31627C3.90894 6.38855 3.85998 6.53146 3.82204 6.63386C3.73667 6.86444 3.65711 7.14085 3.61401 7.35665C3.596 7.447 3.56725 7.56035 3.55017 7.60853C3.50324 7.74082 3.40988 8.23736 3.38535 8.48514C3.37336 8.60582 3.34801 8.77831 3.32901 8.86844C3.30382 8.98786 3.29139 9.21302 3.28312 9.70025C3.26866 10.5485 3.27184 10.5363 3.05768 10.5673C1.7358 10.7586 0.415551 12.1084 0.0496098 13.6428L0 13.8508V15.9206V17.9905L0.0625872 18.1424C0.194552 18.4629 0.412922 18.6806 0.760574 18.8381L0.919917 18.9104L9.81245 18.9162C14.8265 18.9196 18.7814 18.9137 18.8802 18.9029C19.2829 18.8586 19.6694 18.5632 19.8446 18.1657L19.9315 17.9686V15.9535V13.9384L19.8692 13.6647C19.811 13.4091 19.684 12.9909 19.638 12.9036C19.6269 12.8825 19.5917 12.8089 19.5598 12.74C19.5106 12.6336 19.4075 12.4688 19.096 11.9988C18.8996 11.7025 18.1184 11.0347 17.8267 10.9138C17.7798 10.8944 17.7282 10.8678 17.7123 10.8548C17.6743 10.8239 17.4606 10.733 17.3361 10.6949C17.2818 10.6783 17.1784 10.6454 17.1061 10.6216C17.0338 10.598 16.9266 10.5724 16.8679 10.5648C16.7015 10.5432 16.6572 10.4851 16.6565 10.2871C16.6548 9.81913 16.6118 8.97198 16.5827 8.83438C16.5648 8.74961 16.5399 8.57713 16.5274 8.45108C16.5047 8.22329 16.4434 7.89393 16.3807 7.66329C16.3627 7.59703 16.3291 7.45466 16.3061 7.3469C16.2831 7.23914 16.2578 7.13565 16.2501 7.11692C16.2423 7.0982 16.2182 7.0188 16.1965 6.9405C16.1748 6.86219 16.1259 6.71435 16.0878 6.61196C16.0497 6.50956 16.0051 6.3794 15.9888 6.32273C15.9725 6.26605 15.9445 6.1872 15.9266 6.14751C15.9087 6.10781 15.8868 6.0507 15.8781 6.02058C15.8694 5.99046 15.8184 5.87219 15.7649 5.75775C15.7114 5.6433 15.6429 5.49546 15.6129 5.4292C15.493 5.16517 15.3423 4.86499 15.2935 4.79293C15.265 4.75115 15.2266 4.68747 15.208 4.65144C15.0923 4.42737 14.9101 4.13272 14.7746 3.95077C14.7388 3.90258 14.6929 3.83359 14.6727 3.79745C14.6525 3.76131 14.5999 3.68738 14.5558 3.63317C14.5118 3.57897 14.4573 3.50532 14.4347 3.46945C14.3889 3.39673 14.393 3.40216 14.2643 3.24714C13.9795 2.90414 13.6212 2.50535 13.4586 2.35016C12.9093 1.8263 12.8157 1.74461 12.3171 1.35446C12.0897 1.17645 11.8845 1.03671 11.4552 0.767468C11.407 0.737242 11.3331 0.690042 11.2909 0.662554C11.1963 0.600843 11.0034 0.49998 10.4805 0.238789C10.2576 0.127523 10.0581 0.0276464 10.0372 0.0168593C9.98532 -0.00986209 9.9109 -0.00449586 9.8453 0.0306581ZM10.126 1.57979C10.1994 1.61894 10.3067 1.67758 10.3645 1.71005C10.4223 1.74258 10.509 1.78984 10.5571 1.81502C10.6679 1.87307 10.7684 1.93461 10.9317 2.04457C11.0028 2.09237 11.0773 2.14165 11.0974 2.15408C11.5916 2.45968 12.7055 3.45281 12.9897 3.84125C13.025 3.88944 13.0588 3.93379 13.065 3.93981C13.1157 3.98964 13.4486 4.42025 13.5307 4.54214C13.5876 4.62647 13.6848 4.76938 13.7468 4.85973C13.851 5.01141 13.9002 5.09321 14.0101 5.29779C14.0327 5.33995 14.0804 5.42373 14.1161 5.48396C14.1517 5.54419 14.1969 5.62797 14.2165 5.67013C14.2361 5.7123 14.2647 5.76158 14.2802 5.77965C14.2957 5.79772 14.3156 5.83714 14.3245 5.86726C14.3333 5.89738 14.3704 5.98608 14.4067 6.06439C14.9163 7.16226 15.1648 8.13026 15.2837 9.48122C15.3232 9.92979 15.3212 17.5062 15.2816 17.5458C15.2355 17.5919 4.66113 17.5876 4.632 17.5414C4.60249 17.4948 4.60364 9.93045 4.63315 9.54583C4.68654 8.85119 4.76314 8.3195 4.8634 7.94803C4.891 7.84563 4.91997 7.72243 4.92763 7.67424C4.94346 7.57535 5.00917 7.35588 5.07192 7.19238C5.09503 7.13215 5.1281 7.03358 5.14535 6.97335C5.18976 6.81861 5.26264 6.61612 5.31088 6.51339C5.38913 6.34682 5.59616 5.8746 5.59616 5.86266C5.59616 5.85614 5.65645 5.74356 5.73015 5.61259C5.92246 5.27074 5.97004 5.18515 6.00668 5.11534C6.03729 5.05697 6.08197 4.98983 6.42409 4.48815C6.81527 3.91452 7.59999 3.08117 8.16065 2.64399C8.20177 2.6119 8.26009 2.56448 8.29021 2.53858C8.32032 2.51274 8.36588 2.47364 8.3914 2.45174C8.41697 2.42978 8.50568 2.36665 8.58852 2.31134C8.67142 2.25609 8.79687 2.17116 8.86734 2.12259C8.93787 2.07402 9.0032 2.03427 9.01251 2.03427C9.02187 2.03427 9.04153 2.01982 9.05615 2.00218C9.0821 1.97092 9.74017 1.59622 9.76914 1.59622C9.77713 1.59622 9.80867 1.5765 9.83934 1.55241C9.91616 1.49196 9.97108 1.49721 10.126 1.57979ZM9.49486 5.55421C9.07624 5.62693 8.64153 5.80966 8.33757 6.04079C7.97513 6.31638 7.91895 6.36478 7.84021 6.46959C7.79493 6.52982 7.73229 6.60971 7.70097 6.64716C7.6697 6.68462 7.62929 6.73406 7.61122 6.75712C6.94045 7.61237 6.93459 9.14972 7.5989 9.99594C7.6651 10.0803 7.77434 10.2207 7.84169 10.3081C7.90904 10.3954 7.97158 10.4668 7.98067 10.4668C7.98976 10.4668 8.01664 10.4841 8.0404 10.5052C8.08897 10.5482 8.19476 10.6311 8.38877 10.7781C8.46105 10.8328 8.59904 10.914 8.69541 10.9585C8.79178 11.0029 8.9002 11.0536 8.93634 11.0711C8.97248 11.0886 9.0809 11.1228 9.17727 11.1472C9.27364 11.1716 9.39192 11.2019 9.4401 11.2146C9.58192 11.2521 10.3804 11.2429 10.5243 11.2022C10.5905 11.1835 10.694 11.1568 10.7543 11.1431C10.9828 11.0909 11.3568 10.9143 11.5318 10.7758C11.574 10.7424 11.6725 10.6669 11.7508 10.6078C12.1747 10.2884 12.5812 9.69138 12.7062 9.20464C12.7229 9.13992 12.7517 9.0303 12.7704 8.96103C12.8189 8.78066 12.8193 7.98685 12.7709 7.81661C12.7521 7.75035 12.7211 7.63241 12.7021 7.55449C12.6831 7.47657 12.6543 7.38786 12.6382 7.35736C12.622 7.32686 12.5722 7.22304 12.5275 7.12667C12.4829 7.0303 12.4013 6.89231 12.3463 6.82003C12.2912 6.74775 12.1914 6.61666 12.1245 6.52878C12.045 6.42441 11.9231 6.30652 11.7733 6.18929C11.4382 5.92694 11.4066 5.90581 11.2142 5.8148C11.1179 5.76925 11.0221 5.72314 11.0015 5.71235C10.9513 5.68607 10.6572 5.60536 10.4805 5.56933C10.3462 5.54195 9.62869 5.53094 9.49486 5.55421ZM10.1848 6.89598C10.5003 6.96536 10.7045 7.05921 10.912 7.23033C11.0311 7.3285 11.269 7.61105 11.269 7.65425C11.269 7.66805 11.2875 7.70277 11.3101 7.73152C11.4325 7.8873 11.5086 8.47566 11.4349 8.69743C11.4178 8.74907 11.3921 8.83553 11.3779 8.88963C11.3637 8.94373 11.335 9.01272 11.3141 9.04295C11.2932 9.07317 11.2699 9.11512 11.2623 9.13614C11.1284 9.50739 10.4611 9.89781 9.96166 9.8971C9.03813 9.89579 8.25253 8.94986 8.47873 8.11142C8.49812 8.03963 8.52238 7.94583 8.53267 7.90301C8.62056 7.5368 9.08845 7.07695 9.49486 6.95736C9.77993 6.87347 9.99534 6.85431 10.1848 6.89598ZM3.26943 14.7924C3.26467 16.9929 3.25804 17.5228 3.23504 17.5458C3.18954 17.5913 1.37544 17.5871 1.34658 17.5414C1.31964 17.4989 1.31948 14.318 1.34631 14.1246C1.40599 13.6953 1.50423 13.4134 1.71658 13.0623C2.02354 12.5547 2.54286 12.1372 3.05265 11.9881L3.21971 11.9393L3.24753 12.0034C3.26959 12.0543 3.27408 12.6286 3.26943 14.7924ZM16.8832 11.9924C17.0001 12.0225 17.1376 12.0864 17.3689 12.2179C17.5298 12.3093 18.0589 12.7845 18.0589 12.8376C18.0589 12.844 18.1007 12.9104 18.1519 12.9852C18.3487 13.2726 18.4546 13.5298 18.5356 13.9165L18.5952 14.2013L18.5954 15.8593C18.5955 17.1907 18.5899 17.5229 18.567 17.5458C18.5215 17.5913 16.7074 17.5872 16.6785 17.5414C16.6555 17.5051 16.6484 12.0676 16.6712 11.9824C16.6807 11.947 16.6953 11.936 16.7202 11.9457C16.7397 11.9533 16.8131 11.9743 16.8832 11.9924ZM6.69076 20.0726C6.67882 20.104 6.6694 20.3842 6.6694 20.7064C6.6694 21.0286 6.67882 21.3088 6.69076 21.3402L6.71211 21.3963H9.96287C12.9069 21.3963 13.2149 21.3931 13.2269 21.3617C13.2538 21.2918 13.2418 20.0706 13.214 20.0427C13.1937 20.0225 12.439 20.0165 9.94989 20.0165H6.71211L6.69076 20.0726Z" fill="#848C8C"/>
</svg>
