<svg width="18" height="19" viewBox="0 0 18 19" fill="none" xmlns="http://www.w3.org/2000/svg">
<path fill-rule="evenodd" clip-rule="evenodd" d="M9.3045 18.9164C9.61728 18.8292 9.71557 18.7574 10.0859 18.3451C10.2013 18.2166 10.502 17.883 10.754 17.6039C11.006 17.3247 11.2928 17.0062 11.3912 16.8961C11.4897 16.786 11.6764 16.5799 11.8062 16.438C11.936 16.2961 12.0906 16.1251 12.1497 16.0579C12.2088 15.9908 12.4009 15.7775 12.5766 15.5838C12.7522 15.3903 13.0013 15.1139 13.1299 14.9698C13.2586 14.8257 13.6082 14.4385 13.9067 14.1094C14.2053 13.7802 14.534 13.4149 14.6373 13.2975C14.8295 13.0791 15.2902 12.5709 15.3566 12.5041C15.3769 12.4836 15.4626 12.3886 15.547 12.2929C15.7332 12.0817 16.1188 11.6517 16.1773 11.5901C16.2303 11.5341 16.2678 11.4926 16.9166 10.7729C17.8345 9.75467 17.8633 9.71814 17.9433 9.47293C18.122 8.92538 17.8684 8.36285 17.3186 8.08749L17.1637 8.0099L15.1654 8.00276C13.5791 7.99709 13.1619 7.98942 13.142 7.96547C13.1247 7.94458 13.115 6.84005 13.1107 4.37344L13.1043 0.811562L13.0227 0.648359C12.9015 0.405741 12.7329 0.236755 12.488 0.112614L12.2839 0.00912285L9.23653 0.00227928C5.93432 -0.00515556 5.74841 -2.09808e-05 5.52998 0.104885C5.33055 0.200647 5.11702 0.409281 5.00615 0.616793L4.9147 0.78796L4.9029 4.36825C4.89517 6.70782 4.88289 7.95674 4.86749 7.97208C4.85227 7.9873 4.13126 7.99827 2.8378 8.00311L0.831709 8.01055L0.678301 8.08536C0.0823727 8.37601 -0.199247 9.24123 0.157425 9.68557C0.178251 9.71154 0.221149 9.76995 0.252773 9.81538C0.29744 9.87963 1.01574 10.6916 1.16861 10.8506C1.18567 10.8683 1.51496 11.2347 1.90042 11.6649C2.28583 12.095 2.67112 12.5212 2.75656 12.6121C2.84205 12.703 3.04897 12.9313 3.21642 13.1195C3.38393 13.3078 3.62744 13.5793 3.7576 13.723C3.88776 13.8667 4.13232 14.1367 4.30107 14.3231C4.46982 14.5095 4.62446 14.6787 4.64476 14.6991C4.66506 14.7195 4.81888 14.8902 4.98668 15.0784C5.71802 15.899 6.32864 16.5789 6.35378 16.6007C6.36876 16.6137 6.52748 16.7889 6.70655 16.9901C6.88562 17.1913 7.08027 17.409 7.13916 17.4739C7.19804 17.5388 7.42255 17.7884 7.63815 18.0286C8.30494 18.7714 8.39173 18.8413 8.75642 18.9284C8.98884 18.9839 9.06896 18.9821 9.3045 18.9164ZM8.78227 17.4212C8.55139 17.1615 7.41724 15.9032 7.08376 15.5367C6.92923 15.3669 6.63681 15.043 6.4339 14.8169C6.23105 14.5908 6.03988 14.3785 6.00908 14.3451C5.97834 14.3117 5.8686 14.1896 5.76528 14.0737C5.66197 13.9578 5.56107 13.846 5.54107 13.8253C5.52107 13.8046 5.441 13.7152 5.36312 13.6268C5.28524 13.5383 5.20251 13.446 5.17927 13.4216C5.15602 13.3972 4.93918 13.1573 4.69745 12.8885C4.45566 12.6197 4.21304 12.3519 4.15828 12.2935C4.0568 12.1853 3.92068 12.0341 3.60484 11.6787C3.50748 11.5691 3.35349 11.3997 3.26262 11.302C3.05853 11.0828 2.36814 10.3171 2.0844 9.99522C1.96857 9.86388 1.79186 9.6684 1.69167 9.56096C1.48286 9.33699 1.45619 9.2807 1.54316 9.24766C1.57845 9.23426 2.4744 9.22535 3.79365 9.22535C5.16068 9.22535 6.00826 9.21668 6.04602 9.20234L6.10655 9.17933V5.24184C6.10655 2.12903 6.11275 1.29603 6.13605 1.26429C6.16355 1.22688 6.35743 1.22464 9.02129 1.2303L11.877 1.23638L11.8888 5.20609C11.8984 8.41908 11.9065 9.18163 11.9313 9.20647C11.956 9.23114 12.4089 9.23845 14.2383 9.24364C16.4821 9.25002 16.5146 9.25078 16.5146 9.29639C16.5146 9.34348 15.7814 10.1801 14.9334 11.1006C14.849 11.1922 14.6419 11.4204 14.4731 11.6078C14.3044 11.7953 14.007 12.1239 13.8123 12.3381C13.6176 12.5523 13.3699 12.8282 13.2619 12.9511C13.1538 13.0742 13.0092 13.234 12.9405 13.3065C12.8717 13.3789 12.6737 13.5975 12.5005 13.7922C12.1904 14.1406 11.7267 14.6528 11.6543 14.7268C11.6125 14.7695 11.5868 14.7982 11.1807 15.2554C11.0192 15.4372 10.875 15.5965 10.8601 15.6094C10.8452 15.6224 10.644 15.8455 10.4129 16.1051C10.1819 16.3647 9.97601 16.5937 9.95548 16.6139C9.93495 16.6341 9.8013 16.7827 9.65852 16.944C8.98978 17.6998 9.0168 17.6851 8.78227 17.4212Z" fill="#878A8C"/>
</svg>
