<svg width="32" height="22" viewBox="0 0 32 22" fill="none" xmlns="http://www.w3.org/2000/svg">
<path fill-rule="evenodd" clip-rule="evenodd" d="M19.0989 0.0965052C18.5156 0.375159 18.2456 0.996802 18.4603 1.56699C18.5927 1.91908 18.6635 2.00034 19.8701 3.18797C20.7334 4.03765 21.0021 4.32127 21.0021 4.38292C21.0021 4.51749 17.608 7.89189 17.4879 7.8769C17.4217 7.86865 16.9712 7.44061 15.756 6.23143C13.7842 4.26923 13.9034 4.3702 13.3024 4.15496C12.93 4.02148 11.9316 4.00953 11.6588 4.13525C11.5685 4.17685 11.4724 4.21096 11.4453 4.21096C11.3539 4.21096 10.9488 4.4577 10.6947 4.66814C10.0779 5.17888 0.151496 15.2165 0.151496 15.3294C0.151496 15.3469 0.11739 15.433 0.0757061 15.5208C0.00791644 15.6636 -8.356e-05 15.7321 6.5077e-07 16.1689V16.6573L0.147117 16.9605L0.294233 17.2636L2.41356 19.3857C4.25197 21.2267 4.77837 21.7268 4.87707 21.7268C4.88911 21.7268 4.98587 21.7665 5.09197 21.815C5.39648 21.9543 6.03008 21.9467 6.37585 21.7996C6.78747 21.6244 6.85812 21.559 9.66428 18.7563C11.539 16.8838 12.4117 16.0341 12.4602 16.0341C12.5083 16.0341 13.0229 16.5269 14.0801 17.5854C15.8936 19.4011 16.2857 19.7377 16.5894 19.7395C16.6172 19.7397 16.6854 19.764 16.741 19.7936C17.0022 19.9325 17.9005 19.9194 18.341 19.7702C18.9439 19.5659 19.2669 19.3184 20.2587 18.3008C22.2263 16.2816 27.5543 10.9815 27.6164 10.9815C27.6613 10.9815 28.1084 11.4019 28.9161 12.2036C30.1315 13.41 30.1505 13.4269 30.3874 13.5173C30.9744 13.7412 31.5837 13.5013 31.8886 12.9264L32 12.7162V6.80465V0.893055L31.903 0.701559C31.7858 0.470316 31.6179 0.289853 31.3747 0.133811L31.1931 0.0172627L25.2471 0.00858927L19.301 0L19.0989 0.0965052ZM29.918 2.09727C29.9588 2.16034 29.9707 9.97762 29.9301 10.0844L29.8968 10.1721L29.7863 10.1062C29.7256 10.0701 29.2287 9.59287 28.6824 9.04575C27.908 8.27042 27.6702 8.05097 27.6044 8.05097C27.5371 8.05097 26.5492 9.02209 22.7367 12.8364C18.0195 17.5559 17.838 17.7295 17.5778 17.7708C17.2425 17.8241 17.2965 17.8707 14.8043 15.3778C13.0054 13.5785 12.513 13.1036 12.4463 13.1036C12.3793 13.1036 11.686 13.7796 9.07784 16.3878C6.47421 18.9915 5.77627 19.6721 5.70957 19.6721C5.59799 19.6721 2.20624 16.2934 2.20624 16.1823C2.20624 16.0583 11.9779 6.31101 12.203 6.21046C12.64 6.01509 12.5082 5.91058 15.1411 8.54124C17.1034 10.5018 17.4283 10.8131 17.5125 10.8131C17.6602 10.8131 23.9326 4.54047 23.9326 4.39277C23.9326 4.30915 23.7861 4.14839 22.9378 3.30123C21.9655 2.33019 21.7714 2.11074 21.855 2.07672C21.9562 2.03537 29.8911 2.05567 29.918 2.09727Z" fill="#848C8C"/>
</svg>
