<svg width="20" height="22" viewBox="0 0 20 22" fill="none" xmlns="http://www.w3.org/2000/svg">
<path fill-rule="evenodd" clip-rule="evenodd" d="M9.30569 0.134695C9.07145 0.145207 8.91096 0.163435 8.8737 0.183729C8.84112 0.201471 8.70816 0.230028 8.5782 0.247102C8.44825 0.264236 8.32945 0.28848 8.31421 0.300936C8.29897 0.313452 8.22571 0.336298 8.15143 0.351732C8.07716 0.367165 7.97498 0.40113 7.92434 0.427257C7.87376 0.453384 7.80728 0.474772 7.77656 0.474772C7.7459 0.474772 7.69442 0.492271 7.66214 0.513719C7.62987 0.535107 7.55751 0.563117 7.50135 0.575877C7.44519 0.588637 7.38285 0.613063 7.36287 0.630136C7.34289 0.64721 7.28871 0.675767 7.24251 0.69351C7.19631 0.711252 7.14232 0.739141 7.12252 0.755424C7.10272 0.771648 7.05952 0.793035 7.02652 0.802878C6.99352 0.812722 6.95032 0.834109 6.93052 0.850332C6.91072 0.866616 6.85672 0.894687 6.81052 0.912673C6.76432 0.930718 6.70079 0.965291 6.66929 0.989596C6.63779 1.0139 6.59861 1.03377 6.58223 1.03377C6.56585 1.03377 6.53801 1.05133 6.52043 1.07278C6.50291 1.09423 6.46643 1.12181 6.43949 1.13414C6.41255 1.14648 6.35273 1.18379 6.30653 1.21702C6.26033 1.25032 6.20634 1.28817 6.18654 1.30118C5.95728 1.45168 5.8392 1.53826 5.76895 1.60735C5.72275 1.6528 5.68015 1.68998 5.67427 1.68998C5.64217 1.68998 5.15264 2.17339 4.96256 2.3928C4.90316 2.46134 4.81803 2.55819 4.77339 2.60801C4.69851 2.69162 4.60419 2.8231 4.54041 2.93278C4.52607 2.95751 4.49637 2.99785 4.47441 3.0224C4.45251 3.04695 4.43457 3.07423 4.43457 3.08304C4.43457 3.11129 4.2571 3.36697 4.23748 3.36697C4.2271 3.36697 4.21858 3.38733 4.21858 3.41218C4.21858 3.43703 4.19266 3.49609 4.16098 3.54336C4.1293 3.59063 4.09564 3.65504 4.08616 3.68651C4.07668 3.71792 4.05484 3.76009 4.03762 3.78014C4.0204 3.80019 3.99868 3.84941 3.98932 3.88951C3.97996 3.92961 3.95392 3.9843 3.93148 4.01103C3.9091 4.03777 3.87767 4.10612 3.86171 4.16294C3.84575 4.21975 3.82307 4.26623 3.81131 4.26623C3.79961 4.26623 3.77717 4.32869 3.76157 4.405C3.74591 4.48132 3.71933 4.56608 3.70253 4.59336C3.68573 4.62064 3.66467 4.68493 3.65579 4.73621C3.64691 4.78749 3.61961 4.86952 3.59513 4.91849C3.57065 4.96746 3.54311 5.06657 3.53387 5.13881C3.52463 5.21105 3.50195 5.30675 3.48347 5.35153C3.46499 5.39631 3.43967 5.52312 3.42713 5.6334C3.4146 5.74362 3.38712 5.894 3.36606 5.96752C3.33354 6.08078 3.32586 6.31817 3.3156 7.52299C3.30624 8.61832 3.29604 8.96988 3.27102 9.05416C3.2532 9.11431 3.2313 9.22915 3.22236 9.30935C3.21336 9.38955 3.18714 9.49345 3.16398 9.54024C3.14088 9.58703 3.11448 9.66595 3.1053 9.71566C3.09618 9.76536 3.07524 9.82004 3.0588 9.83718C3.04236 9.85431 3.0153 9.91483 2.9988 9.97164C2.98224 10.0285 2.95849 10.0749 2.94595 10.0749C2.93347 10.0749 2.90857 10.1105 2.89063 10.1539C2.87269 10.1974 2.84017 10.2479 2.81833 10.2663C2.79649 10.2846 2.77861 10.3146 2.77861 10.3329C2.77861 10.3512 2.75701 10.3798 2.73061 10.3965C2.70421 10.4132 2.68249 10.4379 2.68231 10.4514C2.68153 10.5079 2.25152 10.9742 2.2001 10.9742C2.1902 10.9742 2.13272 11.0207 2.07248 11.0775C2.01219 11.1343 1.93311 11.2045 1.89675 11.2335C1.86039 11.2626 1.79667 11.3145 1.75515 11.349C1.71363 11.3835 1.67085 11.4117 1.65999 11.4117C1.64919 11.4117 1.61835 11.4335 1.59147 11.4602C1.2751 11.7742 1.12756 11.926 1.09234 11.9739C1.06907 12.0055 0.998867 12.0972 0.936348 12.1774C0.806331 12.3445 0.782512 12.3809 0.709733 12.5236C0.680814 12.5804 0.648415 12.6269 0.637855 12.6269C0.627295 12.6269 0.618655 12.6418 0.618655 12.6599C0.618655 12.6781 0.592796 12.7316 0.561117 12.7788C0.529497 12.826 0.496378 12.8979 0.487618 12.9385C0.478798 12.9792 0.456359 13.0252 0.437759 13.0408C0.419159 13.0565 0.39702 13.1091 0.38862 13.1579C0.38022 13.2067 0.354481 13.2802 0.331381 13.3212C0.308282 13.3623 0.282182 13.4445 0.273363 13.5041C0.264543 13.5637 0.240603 13.645 0.220204 13.6848C0.199804 13.7245 0.172685 13.8555 0.159965 13.9758C0.147245 14.0961 0.124746 14.2273 0.109986 14.2674C0.0529874 14.4222 0.0547873 15.6653 0.112206 15.8334C0.139925 15.9146 0.162665 15.9936 0.162665 16.0088C0.162665 16.0241 0.202624 16.0979 0.251523 16.1728C0.37902 16.3682 0.41376 16.4073 0.534537 16.4912C0.582656 16.5247 0.652494 16.5766 0.689754 16.6067C0.727073 16.6368 0.769492 16.6614 0.784012 16.6614C0.798591 16.6614 0.87803 16.686 0.960528 16.7161L1.11064 16.7707H10.0025C18.1751 16.7707 18.9001 16.7675 18.9663 16.7311C19.0059 16.7094 19.0761 16.6835 19.1223 16.6738C19.2269 16.6518 19.4181 16.5263 19.535 16.4027C19.705 16.223 19.7263 16.1952 19.7516 16.1187C19.7656 16.0763 19.7933 16.0226 19.8132 15.9993C19.9061 15.8905 19.91 14.2697 19.8181 13.9879C19.7941 13.9144 19.7675 13.7941 19.759 13.7206C19.7504 13.647 19.7291 13.5646 19.7116 13.5373C19.694 13.51 19.6665 13.4233 19.6504 13.3446C19.6343 13.2658 19.6063 13.1865 19.5883 13.1683C19.5703 13.15 19.5443 13.0931 19.5307 13.0418C19.517 12.9905 19.4909 12.9359 19.4726 12.9205C19.4543 12.9051 19.4323 12.8546 19.4237 12.8083C19.4151 12.762 19.3983 12.7241 19.3863 12.7241C19.3743 12.7241 19.3422 12.6776 19.3149 12.6208C19.2437 12.4728 19.111 12.2584 19.0383 12.1736C19.0251 12.1582 18.9819 12.1055 18.9423 12.0564C18.7224 11.7838 18.4094 11.4845 18.09 11.2415C18.0177 11.1865 17.95 11.1305 17.7816 10.9863C17.7505 10.9595 17.6821 10.8967 17.6297 10.8466C17.5773 10.7965 17.5265 10.7555 17.5169 10.7555C17.5073 10.7555 17.4677 10.7112 17.4289 10.6571C17.2631 10.426 17.2263 10.3753 17.1796 10.3141C17.1525 10.2786 17.1303 10.2393 17.1303 10.2268C17.1303 10.2143 17.1097 10.1851 17.0845 10.162C17.0593 10.1389 17.0314 10.0907 17.0226 10.0549C17.0138 10.0192 16.9922 9.97346 16.9747 9.95341C16.9571 9.93336 16.9301 9.86871 16.9146 9.80977C16.8991 9.75084 16.8723 9.67975 16.855 9.6518C16.8378 9.62385 16.8168 9.56108 16.8083 9.51229C16.7999 9.4635 16.7778 9.39241 16.7593 9.35431C16.7153 9.26439 16.6745 8.66754 16.6734 8.09827C16.6717 7.28189 16.5879 5.76513 16.5393 5.66986C16.5188 5.62975 16.4932 5.50125 16.4823 5.38422C16.4715 5.2672 16.4469 5.14003 16.4277 5.10162C16.4085 5.06322 16.385 4.98855 16.3755 4.93575C16.366 4.88289 16.3386 4.80062 16.3146 4.75286C16.2906 4.70516 16.2633 4.61475 16.254 4.55205C16.2447 4.48928 16.2221 4.4253 16.2037 4.40987C16.1853 4.39443 16.1703 4.35743 16.1703 4.32766C16.1703 4.29782 16.1447 4.22461 16.1133 4.16494C16.082 4.10521 16.0481 4.02981 16.038 3.99724C16.0279 3.96473 15.9996 3.91206 15.975 3.88016C15.9504 3.84826 15.9303 3.80311 15.9303 3.77984C15.9303 3.75657 15.9147 3.72437 15.8955 3.70826C15.8764 3.69216 15.8477 3.63888 15.8317 3.58984C15.8158 3.54081 15.7843 3.4733 15.7617 3.43988C15.6349 3.25213 15.4335 2.94122 15.4023 2.88526C15.3825 2.84966 15.3474 2.80615 15.3243 2.78859C15.3012 2.77097 15.2823 2.74138 15.2823 2.72273C15.2823 2.70414 15.2683 2.68014 15.2511 2.66944C15.2339 2.65875 15.1286 2.54093 15.0171 2.40769C14.8117 2.16215 14.6458 1.99032 14.4651 1.83581C14.4104 1.78902 14.3532 1.73981 14.338 1.72644C14.1125 1.52818 14.0111 1.44694 13.9891 1.44694C13.9744 1.44694 13.9624 1.43612 13.9624 1.42294C13.9624 1.40975 13.9273 1.38223 13.8844 1.36181C13.8031 1.32299 13.5234 1.13579 13.4547 1.07411C13.4329 1.05455 13.3897 1.03073 13.3587 1.02113C13.3278 1.01153 13.2862 0.989717 13.2664 0.972582C13.2466 0.955387 13.1926 0.924521 13.1464 0.903862C13.1002 0.883204 13.0354 0.850758 13.0024 0.8318C12.8062 0.71915 12.4896 0.571988 12.4433 0.571988C12.4134 0.571988 12.3636 0.553882 12.3324 0.531765C12.3012 0.509648 12.2267 0.482245 12.1668 0.470944C12.107 0.459642 12.041 0.435095 12.0202 0.416502C11.9995 0.397849 11.9193 0.369534 11.8421 0.353554C11.765 0.337635 11.6678 0.310354 11.6261 0.292976C11.5845 0.275599 11.4694 0.253482 11.3704 0.243882C11.2714 0.234281 11.1526 0.210099 11.1064 0.19023C10.9564 0.125642 10.0973 0.0991501 9.30569 0.134695ZM10.5424 1.4216C10.7401 1.43369 10.913 1.45697 10.9624 1.47811C11.0086 1.49792 11.122 1.52186 11.2144 1.53134C11.3103 1.54124 11.4145 1.56852 11.4572 1.59501C11.4984 1.62053 11.5632 1.64143 11.6012 1.64143C11.6393 1.64149 11.7037 1.66209 11.7444 1.68725C11.7851 1.7124 11.8636 1.74066 11.9189 1.75013C11.9741 1.75961 12.0329 1.78106 12.0496 1.79789C12.0662 1.81472 12.1191 1.84164 12.1671 1.85768C12.2152 1.87378 12.2675 1.90277 12.2834 1.92209C12.2993 1.94147 12.3263 1.95733 12.3434 1.95733C12.3907 1.95733 12.7144 2.12904 12.7144 2.15413C12.7144 2.16616 12.7298 2.17607 12.7485 2.17607C12.7673 2.17607 12.8133 2.20067 12.8507 2.23075C12.9211 2.28732 12.9659 2.31794 13.0828 2.3894C13.2313 2.48023 13.4209 2.6421 13.7104 2.92518C14.0561 3.26338 14.2383 3.4846 14.4546 3.82875C14.526 3.94237 14.6002 4.0518 14.6195 4.07198C14.6387 4.09215 14.6618 4.13821 14.6708 4.1743C14.6797 4.21039 14.7017 4.25219 14.7195 4.2672C14.7373 4.28215 14.7647 4.33458 14.7803 4.38362C14.7959 4.43265 14.8173 4.48399 14.8279 4.49766C14.8815 4.56675 14.9895 4.80372 15.0047 4.88538C15.0141 4.93642 15.0365 5.00119 15.0543 5.02926C15.0722 5.05739 15.0947 5.12417 15.1043 5.17764C15.1138 5.2311 15.1406 5.31313 15.1638 5.35992C15.1869 5.4067 15.2133 5.52154 15.2225 5.61511C15.2316 5.70868 15.2488 5.79727 15.2606 5.81198C15.3167 5.88142 15.3346 6.19537 15.3548 7.46223C15.3764 8.82509 15.4014 9.29021 15.4664 9.54024C15.4854 9.61376 15.5183 9.745 15.5392 9.83189C15.5602 9.91878 15.5855 9.99534 15.5954 10.002C15.6053 10.0087 15.6261 10.0634 15.6416 10.1235C15.6572 10.1837 15.696 10.287 15.7281 10.3532C15.7601 10.4193 15.7863 10.4863 15.7863 10.5021C15.7863 10.5178 15.8018 10.5438 15.8208 10.5597C15.8397 10.5757 15.8619 10.6196 15.8701 10.6574C15.8784 10.6952 15.906 10.7454 15.9317 10.7689C15.9573 10.7923 15.9783 10.8301 15.9783 10.8527C15.9783 10.8753 15.999 10.9126 16.0241 10.9357C16.0493 10.9588 16.083 11.0097 16.099 11.0489C16.1151 11.088 16.1363 11.12 16.1463 11.12C16.1563 11.12 16.1779 11.1528 16.1943 11.1929C16.2107 11.233 16.2314 11.2658 16.2403 11.2658C16.2492 11.2658 16.2989 11.3233 16.3508 11.3934C16.4667 11.5503 16.9031 11.9871 16.9894 12.0327C17.0241 12.051 17.0588 12.0829 17.0666 12.1034C17.0744 12.124 17.0969 12.1408 17.1167 12.1408C17.1365 12.1408 17.1642 12.1627 17.1783 12.1894C17.1924 12.2161 17.2178 12.238 17.2348 12.238C17.2518 12.238 17.2885 12.2626 17.3163 12.2927C17.3442 12.3228 17.3812 12.3586 17.3986 12.3723C17.6367 12.5595 17.9463 12.8681 17.9463 12.9181C17.9463 12.9275 17.9733 12.9671 18.0063 13.0059C18.0392 13.0447 18.0662 13.0847 18.0663 13.0947C18.0663 13.1048 18.0832 13.1321 18.1039 13.1555C18.1698 13.2301 18.2814 13.4155 18.2819 13.4513C18.2821 13.4703 18.2994 13.505 18.3204 13.5286C18.3414 13.552 18.369 13.6181 18.3817 13.6754C18.3944 13.7326 18.4177 13.7951 18.4335 13.8141C18.4493 13.8333 18.4814 13.9376 18.5047 14.046C18.528 14.1544 18.5571 14.2869 18.5693 14.3403C18.6021 14.4843 18.6037 15.3343 18.5712 15.3957L18.5446 15.4462H10.0049H1.46512L1.40188 15.3958C1.32556 15.335 1.30708 14.812 1.37338 14.5908C1.39216 14.528 1.41514 14.3694 1.42438 14.2384C1.43656 14.0662 1.4536 13.9822 1.48594 13.9355C1.51054 13.9001 1.53064 13.8476 1.53064 13.819C1.53064 13.7904 1.55763 13.7156 1.59063 13.6528C1.62363 13.5901 1.65087 13.5167 1.65117 13.4899C1.65183 13.4329 1.88715 13.0629 2.01333 12.9203C2.03456 12.8963 2.072 12.8423 2.09648 12.8003C2.12096 12.7584 2.14676 12.724 2.15378 12.724C2.16086 12.7239 2.20616 12.6884 2.25446 12.645C2.30276 12.6016 2.3939 12.5224 2.4569 12.4689C2.51995 12.4154 2.60101 12.3443 2.63707 12.3109C2.67313 12.2775 2.74237 12.2228 2.79091 12.1894C2.83951 12.156 2.90173 12.104 2.92927 12.074C2.95675 12.0439 2.98956 12.0193 3.00216 12.0193C3.02778 12.0193 3.58313 11.4548 3.64883 11.362C3.67199 11.3292 3.71567 11.2695 3.74585 11.2294C3.85691 11.0817 3.98002 10.8848 4.03738 10.7632C4.05742 10.7206 4.084 10.6795 4.09648 10.6717C4.1089 10.6639 4.13224 10.6167 4.14832 10.5667C4.1644 10.5168 4.19758 10.4499 4.22206 10.418C4.24654 10.3861 4.26658 10.3382 4.26658 10.3115C4.26658 10.2848 4.28704 10.2288 4.31206 10.1872C4.33702 10.1455 4.36546 10.0622 4.37511 10.0021C4.38483 9.94205 4.41297 9.85474 4.43769 9.80807C4.46235 9.76141 4.48257 9.67628 4.48257 9.6188C4.48257 9.56139 4.50561 9.44637 4.53375 9.36325C4.58313 9.21754 4.58553 9.15763 4.60101 7.69312C4.61229 6.621 4.62519 6.1591 4.64469 6.12319C4.65987 6.09518 4.68417 5.9756 4.69863 5.85749C4.71315 5.73937 4.74603 5.57944 4.77177 5.5021C4.79751 5.42475 4.81857 5.33622 4.81857 5.30535C4.81857 5.27449 4.83465 5.22594 4.85432 5.1975C4.874 5.16907 4.9022 5.08735 4.91702 5.01589C4.93184 4.94444 4.95752 4.86958 4.97402 4.84953C4.99058 4.82948 5.0117 4.78093 5.02094 4.74162C5.03018 4.70237 5.05862 4.64051 5.08418 4.60424C5.10968 4.5679 5.13056 4.52227 5.13056 4.50271C5.13056 4.4832 5.1506 4.44116 5.17508 4.40926C5.19956 4.37736 5.2328 4.31028 5.24894 4.26015C5.26508 4.21002 5.2871 4.16901 5.29783 4.16901C5.30857 4.16901 5.33461 4.12526 5.35573 4.07179C5.37685 4.01833 5.40331 3.97458 5.41453 3.97458C5.42569 3.97458 5.44735 3.94681 5.46259 3.91291C5.47783 3.879 5.50135 3.83799 5.51485 3.82176C5.56777 3.75821 5.65855 3.61937 5.68159 3.56687C5.69491 3.53643 5.72221 3.5052 5.74219 3.49742C5.76217 3.48965 5.77854 3.47002 5.77854 3.4538C5.77854 3.43764 5.80284 3.40227 5.83254 3.37524C5.86224 3.34826 5.93514 3.26757 5.99454 3.19599C6.16614 2.98916 6.31433 2.84711 6.60209 2.61372C6.95884 2.32432 6.99424 2.29759 7.02058 2.29759C7.03294 2.29759 7.06264 2.27571 7.08652 2.24898C7.1104 2.22224 7.14316 2.20037 7.15929 2.20037C7.17543 2.20037 7.20153 2.18463 7.21731 2.16537C7.24839 2.12746 7.56681 1.95733 7.60665 1.95733C7.62003 1.95733 7.65836 1.93545 7.69196 1.90872C7.7255 1.88199 7.7687 1.86011 7.78796 1.86011C7.80716 1.86011 7.84928 1.83915 7.88144 1.81351C7.9136 1.78787 7.98458 1.75931 8.03918 1.74995C8.09383 1.7406 8.17177 1.7124 8.21251 1.68725C8.25319 1.66209 8.31367 1.64149 8.34685 1.64143C8.38003 1.64143 8.44549 1.62059 8.49229 1.5952C8.53909 1.5698 8.6523 1.54118 8.74392 1.53152C8.83554 1.52192 8.94828 1.49761 8.99448 1.4775C9.14291 1.41285 9.93424 1.3843 10.5424 1.4216ZM7.87382 18.9373C7.8581 18.9438 7.8497 18.9621 7.85516 18.9779C7.86068 18.9938 7.87634 19.1209 7.89002 19.2604C7.9037 19.4 7.93016 19.5377 7.94876 19.5665C7.96736 19.5952 7.99532 19.6666 8.01086 19.725C8.0264 19.7835 8.0597 19.8578 8.08484 19.8902C8.10991 19.9225 8.13049 19.9596 8.13049 19.9726C8.13049 19.9856 8.15743 20.0305 8.19037 20.0726C8.22331 20.1146 8.27461 20.1806 8.30437 20.2192C8.35249 20.2817 8.53584 20.4724 8.67132 20.6009C8.6982 20.6264 8.73072 20.6473 8.74356 20.6473C8.7564 20.6473 8.7804 20.6691 8.7969 20.6959C8.8134 20.7226 8.84838 20.7445 8.87466 20.7445C8.901 20.7445 8.94408 20.7664 8.97048 20.7931C8.99688 20.8198 9.02555 20.8417 9.03413 20.8417C9.04277 20.8417 9.10487 20.8681 9.17213 20.9003C9.23945 20.9325 9.33767 20.9662 9.39047 20.9752C9.44327 20.9842 9.54046 21.0089 9.60646 21.0301C9.77098 21.083 10.1902 21.0832 10.3504 21.0304C10.4164 21.0087 10.5178 20.9834 10.5758 20.9743C10.6693 20.9596 10.8618 20.8808 10.9624 20.8159C10.9822 20.8032 11.0254 20.7796 11.0584 20.7635C11.0914 20.7474 11.1462 20.7119 11.1802 20.6847C11.2141 20.6574 11.2783 20.6078 11.3229 20.5744C11.4208 20.501 11.5528 20.3671 11.6344 20.2584C11.6674 20.2145 11.7122 20.1594 11.7339 20.1359C11.7762 20.0903 11.825 20.006 11.8879 19.8695C11.9095 19.8227 11.9414 19.7681 11.9588 19.748C11.9762 19.728 12.0013 19.6569 12.0145 19.59C12.0278 19.5232 12.0552 19.4248 12.0755 19.3713C12.0958 19.3176 12.1128 19.1953 12.1133 19.0979L12.1144 18.9217L10.0085 18.9236C8.85018 18.9246 7.8896 18.9308 7.87382 18.9373Z" fill="#878A8C"/>
<path fill-rule="evenodd" clip-rule="evenodd" d="M9.54647 0.0123766C9.47387 0.0234351 9.25368 0.0504735 9.05724 0.0724081C8.86075 0.0944034 8.67175 0.126789 8.63725 0.144349C8.60269 0.161969 8.49439 0.1836 8.39648 0.192471C8.2844 0.202557 8.18996 0.226314 8.1416 0.256573C8.09936 0.283004 8.03912 0.304756 8.00768 0.304878C7.97624 0.304999 7.89651 0.331977 7.83051 0.364848C7.76451 0.39772 7.68567 0.425001 7.65525 0.425366C7.62489 0.425791 7.56009 0.447604 7.51126 0.473853C7.46248 0.500041 7.3936 0.527444 7.3582 0.534613C7.3228 0.541844 7.2796 0.562138 7.2622 0.579758C7.2448 0.597318 7.19344 0.624782 7.14808 0.640762C7.10272 0.656742 7.04873 0.684692 7.02809 0.702859C7.00745 0.721087 6.95003 0.749159 6.90053 0.7652C6.85103 0.781301 6.81053 0.803722 6.81053 0.814962C6.81053 0.826264 6.77945 0.842365 6.74147 0.850811C6.70349 0.859257 6.63659 0.892918 6.59285 0.925668C6.54906 0.958357 6.50172 0.985153 6.48768 0.985153C6.47358 0.985153 6.44862 1.00703 6.43212 1.03376C6.41562 1.0605 6.38874 1.08237 6.37236 1.08243C6.35592 1.08243 6.28314 1.12606 6.21054 1.17934C6.13794 1.23263 6.05185 1.28792 6.01921 1.30226C5.96023 1.32815 5.94841 1.33732 5.81947 1.45738C5.78257 1.49171 5.74597 1.51985 5.73823 1.51985C5.73043 1.51985 5.69911 1.54445 5.66863 1.57453C5.58224 1.65984 5.53886 1.69842 5.35622 1.85239C5.18247 1.99894 4.89057 2.32286 4.89057 2.36916C4.89057 2.38325 4.87437 2.3948 4.85457 2.3948C4.83477 2.3948 4.81857 2.40488 4.81857 2.41722C4.81857 2.42955 4.76463 2.49791 4.69876 2.56912C4.63288 2.64033 4.57888 2.71227 4.57876 2.72898C4.57864 2.74569 4.56946 2.75936 4.55836 2.75936C4.54726 2.75936 4.51756 2.80037 4.49236 2.8505C4.46716 2.90063 4.43902 2.94741 4.42978 2.95446C4.39672 2.97974 4.29202 3.13747 4.25687 3.21506C4.23713 3.25851 4.21055 3.29405 4.19765 3.29405C4.18481 3.29405 4.16183 3.33233 4.14659 3.37912C4.13135 3.4259 4.10975 3.46418 4.09859 3.46418C4.08743 3.46418 4.06511 3.5052 4.04897 3.55532C4.03283 3.60545 3.99959 3.67253 3.97511 3.70443C3.95063 3.73633 3.93059 3.78129 3.93059 3.80444C3.93059 3.82759 3.91049 3.87255 3.88589 3.90445C3.86129 3.93635 3.83309 3.98976 3.82313 4.02318C3.81323 4.0566 3.78593 4.11675 3.76247 4.15685C3.73896 4.19695 3.71178 4.26786 3.70206 4.31446C3.69228 4.36107 3.67008 4.42122 3.65268 4.44814C3.63528 4.47506 3.61362 4.54633 3.60462 4.60648C3.59562 4.66663 3.57384 4.73268 3.55626 4.75328C3.53862 4.77387 3.51228 4.85043 3.49758 4.92341C3.48294 4.99638 3.45396 5.09402 3.4332 5.14032C3.41244 5.18662 3.3906 5.30146 3.38466 5.39552C3.37872 5.48957 3.35448 5.61024 3.33078 5.66371C3.29808 5.73748 3.28417 5.85195 3.27307 6.13801C3.26503 6.34539 3.24247 6.59147 3.22297 6.68485C3.19483 6.81926 3.18727 7.07238 3.18661 7.8997C3.18577 8.9316 3.16513 9.36275 3.11509 9.3941C3.10099 9.40292 3.07927 9.47376 3.06673 9.55147C3.05425 9.62919 3.02755 9.71128 3.00733 9.73388C2.98711 9.75648 2.97061 9.78504 2.97061 9.79731C2.97061 9.84258 2.8133 10.1367 2.77262 10.1675C2.74952 10.1849 2.73062 10.2133 2.73062 10.2305C2.73062 10.2477 2.70932 10.2814 2.68322 10.3053C2.65718 10.3291 2.62934 10.3695 2.62136 10.3949C2.61338 10.4203 2.58344 10.4672 2.55476 10.4991C2.39114 10.6813 2.34489 10.728 2.24055 10.8162C2.08311 10.9494 2.05863 10.9741 2.05863 11.0002C2.05863 11.0126 2.04255 11.0228 2.02281 11.0228C2.00313 11.0228 1.97355 11.0447 1.95705 11.0714C1.94055 11.0981 1.91763 11.12 1.90605 11.12C1.8844 11.12 1.75006 11.2259 1.66012 11.3137C1.63234 11.3408 1.5976 11.363 1.58296 11.363C1.56832 11.363 1.54474 11.3849 1.53064 11.4117C1.51654 11.4384 1.49464 11.4603 1.48204 11.4603C1.46944 11.4603 1.37207 11.5505 1.26563 11.6608C0.988734 11.9477 0.978655 11.9587 0.978655 11.9745C0.978655 11.9824 0.935816 12.0363 0.883437 12.0943C0.831058 12.1523 0.775799 12.2302 0.760559 12.2675C0.74532 12.3047 0.7242 12.3352 0.71358 12.3352C0.70302 12.3352 0.682321 12.3722 0.667621 12.4174C0.652922 12.4625 0.619682 12.5189 0.593763 12.5427C0.567843 12.5664 0.546664 12.6043 0.546664 12.6269C0.546664 12.6495 0.525664 12.6872 0.500045 12.7107C0.474365 12.7342 0.445986 12.7878 0.436926 12.8299C0.427806 12.872 0.400207 12.9324 0.375547 12.9643C0.350888 12.9962 0.330668 13.0467 0.330668 13.0765C0.330668 13.1063 0.310449 13.1568 0.28573 13.1887C0.26101 13.2206 0.23269 13.2954 0.222791 13.3549C0.212891 13.4144 0.185592 13.5019 0.162132 13.5493C0.138673 13.5967 0.112513 13.7038 0.103933 13.7873C0.0953535 13.8708 0.0703341 13.9801 0.0483146 14.0303C-0.0229639 14.1931 -0.0124643 15.8614 0.0606742 15.9926C0.0903735 16.0459 0.114673 16.1043 0.114673 16.1225C0.114673 16.2506 0.499865 16.6113 0.788579 16.7537L0.946435 16.8315H9.97876C18.7495 16.8315 19.014 16.8302 19.1087 16.786C19.1623 16.7611 19.2406 16.7273 19.2825 16.7109C19.3245 16.6946 19.3647 16.6658 19.3718 16.647C19.3789 16.6282 19.3986 16.6128 19.4156 16.6128C19.4767 16.6128 19.8183 16.2473 19.8183 16.182C19.8183 16.1612 19.8344 16.132 19.8541 16.1172C19.8739 16.1024 19.9019 16.0246 19.9163 15.9444C19.9309 15.8642 19.9552 15.7832 19.9705 15.7644C20.017 15.7072 20.0058 14.6095 19.9559 14.3403C19.9336 14.22 19.9088 14.0374 19.9009 13.9346C19.8919 13.8182 19.8735 13.7368 19.8523 13.7189C19.8336 13.7032 19.8183 13.6637 19.8183 13.6311C19.8183 13.5459 19.768 13.356 19.7454 13.356C19.7349 13.356 19.7144 13.3001 19.6999 13.2319C19.6855 13.1636 19.6522 13.0801 19.626 13.0463C19.5997 13.0125 19.5783 12.9611 19.5783 12.9319C19.5783 12.9029 19.5567 12.8556 19.5303 12.8269C19.5039 12.7982 19.4823 12.7529 19.4823 12.7263C19.4823 12.6997 19.4553 12.6485 19.4223 12.6124C19.3893 12.5764 19.3623 12.5337 19.3623 12.5177C19.3623 12.5016 19.3407 12.4632 19.3143 12.4324C19.2879 12.4016 19.2663 12.3626 19.2663 12.3457C19.2663 12.3142 19.1994 12.2247 19.1043 12.1288C19.0746 12.0989 19.0503 12.0663 19.0503 12.0563C19.0503 12.0135 18.6252 11.5547 18.4578 11.4167C18.3065 11.292 18.2384 11.2415 18.2216 11.2415C18.2118 11.2415 18.1797 11.2169 18.1503 11.1868C18.0817 11.1168 17.8787 10.9437 17.8352 10.9182C17.8169 10.9074 17.7754 10.8719 17.7431 10.8392C17.7109 10.8065 17.6732 10.7797 17.6594 10.7797C17.6456 10.7797 17.6343 10.7641 17.6343 10.7449C17.6343 10.7258 17.6127 10.7032 17.5863 10.6947C17.5598 10.6862 17.5259 10.6554 17.5108 10.6262C17.4956 10.597 17.4686 10.5644 17.4508 10.5537C17.4329 10.543 17.4183 10.5199 17.4183 10.5024C17.4183 10.473 17.3216 10.3319 17.242 10.2451C17.2236 10.225 17.1907 10.1731 17.1688 10.1296C17.1469 10.0862 17.1199 10.0506 17.1088 10.0506C17.0976 10.0506 17.0818 10.0083 17.0736 9.95656C17.0655 9.90486 17.0436 9.84975 17.025 9.83419C17.0065 9.81858 16.9839 9.76523 16.9748 9.71559C16.9657 9.66595 16.9393 9.59249 16.916 9.55239C16.8927 9.51228 16.8609 9.37685 16.8451 9.25144C16.8294 9.12603 16.8038 9.00026 16.7882 8.97194C16.7679 8.93506 16.7552 8.53744 16.7436 7.57159C16.7332 6.70521 16.7181 6.19263 16.7011 6.13862C16.6866 6.09238 16.6631 5.93379 16.6488 5.78621C16.6342 5.63503 16.6027 5.46819 16.5766 5.40402C16.5504 5.33949 16.5303 5.23292 16.5303 5.15819C16.5303 5.06692 16.5166 5.00835 16.4859 4.96825C16.4616 4.93635 16.434 4.86107 16.4247 4.80091C16.4155 4.74076 16.392 4.66688 16.3725 4.63674C16.353 4.60654 16.3264 4.5253 16.3135 4.4561C16.3005 4.38695 16.2753 4.31319 16.2574 4.29223C16.2396 4.27126 16.2181 4.21761 16.2098 4.17314C16.2015 4.1286 16.173 4.06419 16.1466 4.03011C16.1201 3.99596 16.0983 3.94972 16.0983 3.92742C16.0983 3.90506 16.0713 3.84971 16.0383 3.80444C16.0053 3.75917 15.9781 3.7051 15.9778 3.68426C15.9775 3.66348 15.9561 3.61912 15.9303 3.5857C15.9045 3.55228 15.883 3.50854 15.8825 3.48849C15.8814 3.45009 15.7655 3.26027 15.7031 3.19477C15.6828 3.17362 15.6663 3.14489 15.6663 3.13091C15.6663 3.117 15.6495 3.09142 15.629 3.07416C15.6084 3.05684 15.5765 3.00617 15.558 2.96145C15.5396 2.91679 15.5078 2.87371 15.4874 2.86581C15.467 2.85785 15.4503 2.83707 15.4503 2.81957C15.4503 2.80207 15.429 2.76228 15.4031 2.73105C15.377 2.69981 15.2933 2.59755 15.2171 2.50374C15.1408 2.40987 15.0568 2.31058 15.0304 2.28306C15.004 2.25553 14.9287 2.17095 14.863 2.09513C14.7974 2.01936 14.7299 1.95732 14.713 1.95732C14.6962 1.95732 14.6824 1.94092 14.6824 1.92086C14.6824 1.90081 14.6723 1.88441 14.66 1.88441C14.6477 1.88441 14.5782 1.82699 14.5057 1.75681C14.3323 1.58911 14.1885 1.46765 14.11 1.42263C14.075 1.40258 14.041 1.379 14.0344 1.37025C14.0125 1.34127 13.7719 1.17959 13.7507 1.17959C13.7392 1.17959 13.7103 1.15771 13.6864 1.13098C13.6625 1.10424 13.6327 1.08237 13.6201 1.08237C13.6076 1.08237 13.5652 1.05503 13.526 1.02161C13.4868 0.988191 13.441 0.960848 13.4242 0.960848C13.4075 0.960848 13.3748 0.939582 13.3517 0.913638C13.3284 0.887632 13.2789 0.859621 13.2416 0.851297C13.2042 0.842973 13.1611 0.820795 13.1456 0.80196C13.1302 0.783124 13.08 0.760582 13.0341 0.751832C12.9881 0.743083 12.9449 0.721027 12.938 0.702798C12.9311 0.68457 12.8809 0.656134 12.8265 0.639607C12.7721 0.623141 12.7084 0.590209 12.685 0.566513C12.6615 0.542755 12.615 0.523373 12.5814 0.523373C12.5479 0.523373 12.4912 0.502593 12.4554 0.477195C12.4197 0.451797 12.3421 0.423908 12.283 0.41528C12.224 0.406591 12.1585 0.383745 12.1374 0.364423C12.1163 0.345162 12.041 0.318184 11.97 0.304574C11.899 0.290903 11.8336 0.267753 11.8246 0.253049C11.8049 0.220785 11.637 0.185605 11.4956 0.184147C11.439 0.1836 11.3685 0.167012 11.3388 0.147326C11.3059 0.125513 11.1678 0.101087 10.9857 0.0849247C10.8211 0.0702814 10.6486 0.0477393 10.6024 0.0348581C10.4903 0.00362718 9.71279 -0.0129605 9.54647 0.0123766ZM10.5065 0.0744131C10.7638 0.0951932 11.0716 0.133898 11.1904 0.160389C11.3092 0.186942 11.4658 0.21556 11.5384 0.224006C11.611 0.232451 11.7172 0.25949 11.7744 0.284158C11.8316 0.308766 11.8988 0.328939 11.9237 0.328939C11.9487 0.328939 12.0153 0.350084 12.0718 0.375846C12.1282 0.401669 12.2257 0.439948 12.2884 0.460911C12.5512 0.548831 12.6334 0.582553 12.6876 0.624721C12.7191 0.649208 12.7607 0.669198 12.7799 0.669198C12.7992 0.669198 12.8436 0.689613 12.8787 0.714647C12.9137 0.739619 12.9694 0.76842 13.0024 0.778749C13.0354 0.789018 13.0881 0.817757 13.1196 0.842669C13.1511 0.867581 13.1943 0.888179 13.2156 0.888483C13.2369 0.888786 13.2814 0.910417 13.3144 0.936544C13.3474 0.962671 13.3835 0.984302 13.3946 0.984606C13.4057 0.98491 13.4435 1.00745 13.4786 1.03479C13.5137 1.06208 13.6666 1.16731 13.8184 1.26866C14.0606 1.43034 14.3792 1.68202 14.5465 1.8437C14.5765 1.87274 14.6383 1.93004 14.6837 1.97099C14.78 2.05776 14.8792 2.16676 15.0912 2.4191C15.1754 2.51936 15.2502 2.60685 15.2573 2.61353C15.4005 2.74721 15.9783 3.69094 15.9783 3.79101C15.9783 3.80086 15.9999 3.8367 16.0263 3.87073C16.0527 3.9047 16.0743 3.95051 16.0743 3.97244C16.0743 3.99438 16.0931 4.0394 16.116 4.07246C16.1628 4.13996 16.228 4.31027 16.2827 4.50793C16.3029 4.58072 16.3332 4.66274 16.3501 4.69021C16.3671 4.71767 16.3885 4.78354 16.3977 4.83652C16.4069 4.88956 16.4298 4.9629 16.4485 4.9996C16.4672 5.03624 16.4937 5.15144 16.5074 5.25558C16.5211 5.35979 16.5481 5.49364 16.5675 5.55319C16.5869 5.61273 16.6188 5.85335 16.6383 6.08788C16.6579 6.32242 16.6806 6.55264 16.6887 6.59942C16.6968 6.64621 16.7121 7.20946 16.7227 7.85109C16.7433 9.09869 16.7675 9.34774 16.8921 9.59565C16.9176 9.6462 16.9384 9.70635 16.9384 9.72932C16.9384 9.75235 16.96 9.80691 16.9864 9.85072C17.0128 9.89447 17.0343 9.94526 17.0343 9.96355C17.0343 9.9819 17.0956 10.0882 17.1706 10.2C17.2456 10.3117 17.3363 10.4468 17.3723 10.5003C17.4082 10.5537 17.4636 10.6248 17.4953 10.6582C17.6492 10.8204 18.1728 11.2658 18.2096 11.2658C18.2232 11.2658 18.2343 11.2766 18.2343 11.2898C18.2343 11.303 18.2789 11.3424 18.3335 11.3773C18.5723 11.5299 19.1058 12.1399 19.2988 12.481C19.348 12.5679 19.3981 12.6554 19.4101 12.6755C19.4331 12.7138 19.557 12.9844 19.6271 13.1494C19.6862 13.2886 19.7438 13.4672 19.7838 13.6355C19.8028 13.7157 19.8295 13.8071 19.843 13.8386C19.9225 14.0238 19.9678 15.4544 19.9054 15.8107C19.858 16.0813 19.5297 16.5885 19.4017 16.5885C19.3887 16.5885 19.361 16.6037 19.3401 16.6223C19.3193 16.6409 19.2267 16.6874 19.1343 16.7256L18.9663 16.795H9.96646H0.966655L0.865617 16.7404C0.810058 16.7103 0.7539 16.6857 0.74082 16.6857C0.579303 16.6857 0.214391 16.2759 0.0914535 15.9565C0.00499539 15.7319 0.00211547 14.4631 0.0872536 14.0914C0.115513 13.968 0.138673 13.8335 0.138673 13.7925C0.138673 13.7516 0.154872 13.6864 0.174672 13.6476C0.194471 13.6089 0.222551 13.5192 0.237071 13.4484C0.25159 13.3775 0.27859 13.2953 0.297069 13.2657C0.315549 13.2361 0.330668 13.2006 0.330668 13.1868C0.330668 13.173 0.361688 13.0933 0.399607 13.0097C0.437526 12.9261 0.475265 12.8414 0.483485 12.8213C0.491705 12.8013 0.530584 12.7302 0.569884 12.6633C0.609183 12.5965 0.657242 12.5081 0.676621 12.4669C0.696001 12.4258 0.7287 12.378 0.74928 12.3607C0.769859 12.3434 0.786659 12.3191 0.786659 12.3065C0.786659 12.2873 0.880917 12.1544 0.966655 12.0528C0.979855 12.0371 1.01765 11.9892 1.05065 11.9464C1.08365 11.9035 1.19603 11.7847 1.30043 11.6825C1.55158 11.4366 1.55044 11.4376 1.68766 11.3338C1.88632 11.1834 1.91877 11.1579 1.95975 11.12C1.98141 11.1 2.11005 10.987 2.24559 10.8689C2.38112 10.7509 2.51054 10.6251 2.53316 10.5894C2.55572 10.5538 2.58254 10.5136 2.59274 10.5003C2.60288 10.4869 2.64344 10.4334 2.68292 10.3815C2.72234 10.3295 2.75462 10.2793 2.75462 10.2698C2.75462 10.2604 2.78162 10.2208 2.81462 10.182C2.84755 10.1432 2.87455 10.1021 2.87461 10.0909C2.87461 10.0797 2.89621 10.0427 2.92261 10.0086C2.94901 9.97467 2.97061 9.92795 2.97061 9.9048C2.97061 9.88165 2.99131 9.83608 3.01663 9.80351C3.04195 9.77088 3.07039 9.70107 3.07987 9.64833C3.08929 9.59553 3.11323 9.52 3.13303 9.48044C3.15283 9.44089 3.17833 9.33152 3.18967 9.2374C3.20107 9.14328 3.22087 8.98974 3.23371 8.89617C3.24655 8.8026 3.25741 8.32411 3.25783 7.83286C3.25873 6.79975 3.29191 6.01801 3.34374 5.80954C3.36372 5.72933 3.3945 5.57622 3.41226 5.46928C3.45324 5.22235 3.51882 4.95561 3.56166 4.86167C3.5799 4.82157 3.61002 4.73408 3.6285 4.66724C3.69246 4.43641 3.82007 4.10442 3.88541 3.99887C3.89783 3.97882 3.91415 3.94401 3.92165 3.92153C3.97085 3.77449 4.3303 3.13267 4.43044 3.01304C4.44238 2.99882 4.46428 2.96412 4.47916 2.93593C4.4941 2.90774 4.52116 2.86964 4.53934 2.85123C4.55746 2.83282 4.58908 2.78549 4.6096 2.74599C4.63006 2.70656 4.68814 2.62939 4.73871 2.57453C4.78923 2.51966 4.89537 2.3996 4.97457 2.30767C5.15763 2.09525 5.27012 1.9815 5.47748 1.79934C5.5688 1.71914 5.68735 1.61238 5.74099 1.56213C5.79463 1.51189 5.90335 1.43041 5.98255 1.38107C6.06175 1.33173 6.13878 1.2799 6.15378 1.26587C6.1827 1.23871 6.42258 1.08079 6.56754 0.993477C6.71159 0.90665 7.41808 0.55193 7.48252 0.534066C7.51552 0.524892 7.55331 0.508912 7.56651 0.498461C7.57971 0.488071 7.63911 0.467169 7.69851 0.4521C7.75791 0.436971 7.85511 0.404707 7.91451 0.380342C8.13644 0.289323 8.26808 0.251044 8.46649 0.219752C8.57869 0.202071 8.73529 0.171205 8.81449 0.151093C8.89369 0.130981 9.14208 0.101573 9.36648 0.0856538C9.59087 0.0697345 9.77897 0.052357 9.78449 0.0470101C9.80399 0.0280528 10.0446 0.0371669 10.5065 0.0744131ZM9.25368 1.47191C9.19164 1.48248 9.12966 1.49815 9.11598 1.50672C9.1023 1.51535 8.98032 1.53905 8.84497 1.55946C8.70961 1.57988 8.58799 1.60558 8.57467 1.61658C8.56135 1.62763 8.50189 1.64926 8.4425 1.6647C8.3831 1.68019 8.3021 1.70772 8.2625 1.72601C8.2229 1.74423 8.1581 1.76641 8.1185 1.77522C8.03558 1.79381 7.84611 1.88167 7.41088 2.10351C7.35172 2.13371 7.2238 2.21434 7.12666 2.28269C7.02953 2.35105 6.92567 2.42335 6.89591 2.44341C6.76103 2.53412 6.70079 2.57835 6.67853 2.60296C6.66533 2.61761 6.55578 2.71385 6.43506 2.81684C6.31428 2.91989 6.15072 3.08309 6.07147 3.17952C5.99221 3.27595 5.89309 3.39309 5.85121 3.43988C5.78167 3.51747 5.66629 3.67952 5.52236 3.90166C5.49206 3.94844 5.45642 3.99979 5.44316 4.01577C5.42996 4.03175 5.37524 4.13018 5.32154 4.2345C5.26784 4.33883 5.21444 4.4406 5.20286 4.46065C5.15991 4.53509 5.03457 4.81774 5.03457 4.84023C5.03457 4.85305 5.01297 4.90645 4.98657 4.95889C4.96017 5.01133 4.93857 5.0744 4.93857 5.09907C4.93857 5.12367 4.91817 5.18972 4.89321 5.2458C4.86831 5.30188 4.84041 5.39697 4.83123 5.45713C4.82205 5.51728 4.79895 5.62118 4.77987 5.68802C4.6957 5.98295 4.65424 6.66736 4.64206 7.96046C4.63138 9.10227 4.62622 9.22811 4.58326 9.39441C4.5574 9.49466 4.52848 9.62591 4.519 9.68606C4.50958 9.74621 4.48168 9.8424 4.45708 9.89975C4.43248 9.95717 4.40506 10.0447 4.39612 10.0942C4.38724 10.1438 4.36078 10.2226 4.33732 10.2694C4.31392 10.3161 4.26586 10.42 4.23053 10.5003C4.19525 10.5805 4.15643 10.6625 4.14431 10.6825C4.13219 10.7026 4.10945 10.7463 4.09379 10.7797C4.07813 10.8132 4.05083 10.8582 4.03307 10.8798C4.01537 10.9015 3.96503 10.9794 3.92129 11.053C3.72324 11.3861 3.25423 11.8911 2.87353 12.1813C2.74874 12.2765 2.6189 12.3801 2.585 12.4116C2.5511 12.4431 2.4485 12.5345 2.35701 12.6146C2.15187 12.7943 2.15271 12.7934 2.09433 12.8794C2.06811 12.918 2.02503 12.9796 1.99863 13.0163C1.81366 13.2732 1.67464 13.5077 1.67464 13.5628C1.67464 13.5865 1.65436 13.6508 1.62958 13.7057C1.48264 14.0316 1.43518 14.2981 1.39433 15.0275C1.38209 15.2457 1.38569 15.2833 1.42318 15.3252C1.46572 15.3729 1.53286 15.3732 10.0057 15.3732H18.5454L18.5613 15.3088C18.5856 15.2108 18.5494 14.497 18.5127 14.3491C18.4949 14.2774 18.4736 14.1659 18.4655 14.1013C18.4573 14.0368 18.4353 13.9493 18.4166 13.9069C18.3978 13.8646 18.369 13.7864 18.3527 13.7333C18.3363 13.6802 18.303 13.6036 18.2787 13.5632C18.2544 13.5227 18.2344 13.4722 18.2343 13.4509C18.2343 13.4296 18.2127 13.3923 18.1863 13.3681C18.1599 13.344 18.1383 13.3139 18.1383 13.3015C18.1383 13.282 18.0049 13.0747 17.9701 13.04C17.9633 13.0334 17.9296 12.9841 17.8951 12.9307C17.8186 12.8121 17.7554 12.7446 17.5889 12.6034C17.5186 12.5436 17.4163 12.4527 17.3616 12.4013C17.307 12.3499 17.1608 12.23 17.0368 12.1348C16.7767 11.9354 16.4516 11.6102 16.2783 11.3764C16.2123 11.2873 16.1417 11.1959 16.1213 11.1733C16.1009 11.1507 16.071 11.1048 16.0548 11.0714C16.0388 11.038 15.9938 10.9614 15.955 10.9013C15.8655 10.7626 15.6183 10.2534 15.6183 10.2078C15.6183 10.1889 15.5982 10.1267 15.5736 10.0695C15.4909 9.87703 15.4298 9.65094 15.401 9.43087C15.3853 9.31056 15.3614 9.18478 15.348 9.15137C15.3331 9.1143 15.3163 8.50305 15.3049 7.58375C15.2871 6.15113 15.2837 6.06929 15.2363 5.9228C15.2088 5.8381 15.1859 5.72326 15.1853 5.6676C15.1847 5.61201 15.1679 5.52275 15.1478 5.46928C15.1278 5.41581 15.0978 5.31738 15.0811 5.25054C15.0644 5.1837 15.0326 5.09402 15.0106 5.05125C14.9884 5.00847 14.9704 4.95585 14.9704 4.93428C14.9704 4.89777 14.8744 4.66408 14.8258 4.58218C14.8139 4.56212 14.7594 4.45464 14.7047 4.34333C14.607 4.14434 14.4332 3.85755 14.3598 3.77406C14.3392 3.75067 14.3224 3.72266 14.3224 3.71178C14.3224 3.70097 14.3022 3.67022 14.2776 3.64343C14.253 3.61669 14.2216 3.57361 14.2079 3.54773C14.1236 3.38896 13.4257 2.68687 13.2098 2.54354C13.1771 2.52191 13.0408 2.42761 12.9069 2.33404C12.6345 2.14367 12.6343 2.14355 12.5344 2.09701C12.4948 2.07854 12.4408 2.05101 12.4144 2.0357C12.2842 1.96036 11.9005 1.79011 11.8264 1.77467C11.7802 1.76514 11.7154 1.74296 11.6824 1.72552C11.5845 1.67369 11.227 1.57234 11.0464 1.54512C10.954 1.53127 10.8082 1.50368 10.7224 1.48394C10.551 1.44438 9.46673 1.43551 9.25368 1.47191ZM10.684 1.51784C10.704 1.53461 10.8315 1.56189 10.9674 1.57854C11.1033 1.59513 11.2546 1.62703 11.3037 1.64933C11.3527 1.67169 11.4267 1.68997 11.4679 1.68997C11.5093 1.68997 11.5717 1.71051 11.6067 1.73561C11.6417 1.7607 11.719 1.78926 11.7784 1.79904C11.8378 1.80882 11.9026 1.83064 11.9224 1.84753C11.9422 1.86442 12.0016 1.89194 12.0544 1.90871C12.1072 1.92548 12.1666 1.95282 12.1864 1.96947C12.2062 1.98612 12.2621 2.01267 12.3105 2.02841C12.3589 2.04415 12.4115 2.07289 12.4274 2.09221C12.4433 2.11159 12.4745 2.12745 12.4967 2.12745C12.5189 2.12745 12.5737 2.15479 12.6184 2.18821C12.6631 2.22163 12.7134 2.24897 12.7302 2.24897C12.747 2.24897 12.7723 2.27085 12.7864 2.29758C12.8005 2.32431 12.8271 2.34619 12.8454 2.34619C12.8637 2.34619 12.9093 2.3708 12.9467 2.40087C12.9842 2.43095 13.032 2.46649 13.053 2.47986C13.1971 2.57149 13.2894 2.643 13.3624 2.71944C13.4086 2.76787 13.4592 2.80754 13.4748 2.80773C13.4904 2.80785 13.51 2.82984 13.5184 2.85658C13.5268 2.88331 13.5449 2.90518 13.5586 2.90518C13.5834 2.90518 13.8896 3.2181 14.0157 3.37219C14.1743 3.56608 14.2984 3.72952 14.2984 3.74459C14.2984 3.75358 14.3254 3.79344 14.3584 3.83318C14.3914 3.87292 14.4184 3.92098 14.4184 3.94C14.4184 3.95902 14.4297 3.97457 14.4436 3.97457C14.4575 3.97457 14.4838 4.01097 14.5022 4.0555C14.5205 4.09998 14.5514 4.14968 14.5706 4.16584C14.5899 4.18207 14.6128 4.22405 14.6215 4.25923C14.6302 4.29435 14.6582 4.35007 14.6839 4.383C14.7094 4.41593 14.7304 4.46181 14.7304 4.48496C14.7304 4.50811 14.7505 4.55307 14.7751 4.58497C14.7997 4.61687 14.8279 4.67028 14.8378 4.7037C14.8477 4.73711 14.8748 4.79727 14.8981 4.83737C14.9213 4.87747 14.9476 4.95919 14.9564 5.01904C14.9654 5.07883 14.9887 5.14567 15.0082 5.16754C15.0278 5.18948 15.0539 5.27017 15.0662 5.34697C15.0785 5.42371 15.1004 5.50087 15.1148 5.51837C15.1291 5.53587 15.1512 5.65138 15.1638 5.77503C15.1765 5.89867 15.2048 6.03356 15.2268 6.07482C15.2625 6.14178 15.2683 6.31513 15.2806 7.69311C15.2931 9.10106 15.298 9.24324 15.3363 9.31421C15.3628 9.36318 15.3783 9.4446 15.3783 9.53391C15.3783 9.62736 15.3945 9.70799 15.4259 9.77027C15.4521 9.82222 15.4844 9.92479 15.4979 9.99825C15.5112 10.0716 15.5375 10.149 15.5562 10.1701C15.575 10.1913 15.5979 10.2505 15.6074 10.3017C15.6167 10.3528 15.6392 10.4005 15.6574 10.4076C15.6755 10.4146 15.6904 10.4383 15.6904 10.4603C15.6905 10.5062 15.8476 10.8308 15.8796 10.8512C15.8913 10.8587 15.9178 10.9058 15.9384 10.956C15.959 11.0061 15.9872 11.0471 16.0011 11.0471C16.015 11.0471 16.0263 11.0617 16.0263 11.0795C16.0263 11.1086 16.1583 11.2993 16.2363 11.3829C16.2528 11.4007 16.2663 11.4245 16.2663 11.4359C16.2663 11.4915 16.9977 12.1894 17.0559 12.1894C17.0702 12.1894 17.0954 12.2113 17.1119 12.238C17.1284 12.2647 17.1524 12.2866 17.1652 12.2866C17.1781 12.2866 17.2106 12.3088 17.2375 12.3359C17.3944 12.4945 17.6515 12.7255 17.6825 12.7358C17.7024 12.7425 17.7455 12.7918 17.7782 12.8454C17.8109 12.899 17.8462 12.9428 17.8565 12.9428C17.867 12.9428 17.8859 12.9705 17.8985 13.0042C17.9112 13.038 17.938 13.0719 17.9579 13.0797C17.9779 13.0875 17.9945 13.1063 17.9947 13.1216C17.9952 13.1512 18.1145 13.3435 18.1701 13.4046C18.1884 13.4247 18.2112 13.4739 18.2207 13.514C18.2302 13.5541 18.2533 13.6041 18.272 13.625C18.2906 13.646 18.3169 13.7226 18.3303 13.7952C18.3438 13.8678 18.3689 13.9381 18.386 13.9514C18.4048 13.966 18.4293 14.0874 18.4475 14.2552C18.4641 14.409 18.4868 14.573 18.4978 14.6198C18.5088 14.6666 18.5251 14.8443 18.5339 15.0148L18.5499 15.3246H10.0007H1.4515L1.46872 14.7601C1.483 14.2943 1.4938 14.1763 1.53046 14.0857C1.55494 14.0252 1.58164 13.9347 1.58986 13.8846C1.59808 13.8345 1.6147 13.7935 1.62676 13.7935C1.63882 13.7935 1.6612 13.747 1.67644 13.6902C1.7095 13.5668 1.84258 13.2831 1.8673 13.2831C1.87696 13.2831 1.89825 13.2503 1.91463 13.2102C1.93101 13.1701 1.95273 13.1373 1.96281 13.1373C1.97289 13.1373 1.99941 13.0983 2.02173 13.0507C2.04399 13.0032 2.07765 12.9582 2.09643 12.9509C2.11527 12.9436 2.13063 12.9251 2.13063 12.9098C2.13069 12.8847 2.17737 12.8322 2.33007 12.6858C2.35899 12.6581 2.40152 12.6283 2.42462 12.6198C2.44772 12.6111 2.46662 12.5873 2.46662 12.5669C2.46662 12.5464 2.47976 12.5297 2.49578 12.5297C2.5118 12.5297 2.5469 12.5078 2.57378 12.481C2.6183 12.4366 2.75408 12.3253 2.89315 12.2189C3.10279 12.0588 3.25495 11.9218 3.42372 11.7413C3.49788 11.662 3.5829 11.5732 3.6126 11.5441C3.6423 11.515 3.6666 11.4791 3.6666 11.4644C3.6666 11.4497 3.6882 11.4259 3.7146 11.4117C3.741 11.3974 3.7626 11.3702 3.7626 11.3513C3.7626 11.3323 3.77861 11.3078 3.79823 11.2966C3.83927 11.2734 3.96527 11.0792 3.98951 11.0019C3.99845 10.9733 4.01645 10.9499 4.02941 10.9499C4.04243 10.9499 4.06949 10.91 4.08959 10.8613C4.10969 10.8126 4.14155 10.7571 4.16033 10.7381C4.17911 10.719 4.20137 10.6741 4.20977 10.6383C4.21817 10.6024 4.23844 10.5568 4.25476 10.5367C4.27114 10.5167 4.29832 10.4568 4.31518 10.4037C4.33204 10.3506 4.36006 10.2927 4.37752 10.2751C4.39492 10.2575 4.41628 10.1888 4.42498 10.1225C4.43368 10.0562 4.44844 10.002 4.4578 10.002C4.48648 10.002 4.53058 9.88256 4.53058 9.80485C4.53058 9.7645 4.55224 9.68029 4.57876 9.61764C4.64692 9.45657 4.675 8.99782 4.69888 7.65666C4.72161 6.37668 4.74909 5.89442 4.80561 5.78128C4.82673 5.739 4.85049 5.62963 4.85847 5.53824C4.86645 5.44686 4.88739 5.35523 4.90497 5.33463C4.92255 5.31404 4.94877 5.24112 4.96329 5.17259C4.97781 5.10411 5.01057 5.00653 5.03613 4.95579C5.06169 4.90506 5.08257 4.84296 5.08257 4.81774C5.08257 4.79259 5.10273 4.74295 5.12745 4.70746C5.15211 4.67198 5.18054 4.61559 5.19074 4.58218C5.20088 4.54876 5.22854 4.49632 5.25218 4.46558C5.27588 4.43489 5.30222 4.37747 5.3108 4.33798C5.31938 4.29855 5.33516 4.26622 5.34584 4.26622C5.35658 4.26622 5.38178 4.2246 5.40188 4.17368C5.42198 4.12283 5.45558 4.0668 5.47652 4.04918C5.49746 4.03162 5.51456 4.00203 5.51456 3.9835C5.51456 3.96497 5.53616 3.93107 5.56256 3.90816C5.58896 3.88525 5.61056 3.8525 5.61056 3.83531C5.61056 3.81817 5.63756 3.78032 5.67055 3.75128C5.70355 3.72223 5.73055 3.68055 5.73055 3.65862C5.73055 3.63668 5.75485 3.59634 5.78455 3.56887C5.81425 3.54141 5.88691 3.46017 5.94601 3.38829C6.08443 3.21999 6.70277 2.6074 6.78929 2.5529C6.81059 2.53947 6.87269 2.50362 6.92729 2.4733C6.98189 2.44292 7.02653 2.40816 7.02653 2.39595C7.02653 2.38374 7.05083 2.36618 7.08052 2.35688C7.11022 2.34765 7.15072 2.32468 7.17052 2.30596C7.24216 2.23816 7.42348 2.1283 7.46452 2.12788C7.48762 2.12763 7.52703 2.10667 7.55205 2.08133C7.57713 2.05594 7.63035 2.02792 7.67043 2.01899C7.71045 2.01006 7.75605 1.98709 7.77177 1.96789C7.78749 1.94869 7.81365 1.93302 7.82985 1.93302C7.84611 1.93302 7.90779 1.90695 7.967 1.87505C8.02616 1.84321 8.12228 1.80919 8.18054 1.79953C8.2388 1.7898 8.3039 1.76635 8.3252 1.74733C8.34644 1.72838 8.42612 1.70255 8.50225 1.69004C8.57833 1.67746 8.66353 1.65212 8.69155 1.63371C8.71957 1.61524 8.82463 1.5927 8.92507 1.58358C9.02544 1.57453 9.14424 1.55551 9.18906 1.54142C9.42125 1.46838 10.603 1.44973 10.684 1.51784ZM7.87851 18.8665C7.75311 18.8854 7.74225 18.9092 7.75983 19.1262C7.76859 19.2343 7.79049 19.3465 7.80855 19.3757C7.82661 19.4048 7.84797 19.4759 7.85601 19.5336C7.87053 19.6379 7.99358 19.929 8.03384 19.9542C8.04536 19.9614 8.06192 20.0001 8.07062 20.0401C8.07932 20.0802 8.1071 20.1242 8.13248 20.1379C8.1578 20.1516 8.1785 20.1758 8.1785 20.1916C8.1785 20.2264 8.21252 20.2656 8.45257 20.5075C8.55535 20.6111 8.65339 20.6959 8.67043 20.6959C8.68741 20.6959 8.70775 20.7128 8.71561 20.7335C8.72347 20.7541 8.76241 20.7826 8.80219 20.7966C8.84197 20.8106 8.87449 20.8307 8.87449 20.8411C8.87449 20.8515 8.90958 20.8744 8.95248 20.8918C8.99538 20.9092 9.05556 20.9428 9.08616 20.9664C9.11682 20.99 9.19242 21.017 9.25416 21.0263C9.31596 21.0356 9.39293 21.0608 9.42533 21.0822C9.54137 21.159 10.487 21.1496 10.5648 21.0708C10.5836 21.0517 10.6284 21.0361 10.6642 21.0361C10.7369 21.0361 11.0824 20.8763 11.0824 20.8427C11.0824 20.8309 11.1127 20.8145 11.1498 20.8063C11.1868 20.798 11.2674 20.7425 11.3289 20.6828C11.3904 20.6231 11.4492 20.5741 11.4595 20.5739C11.4699 20.5736 11.5088 20.538 11.5459 20.4949C11.5829 20.4517 11.6567 20.3671 11.7097 20.307C11.7627 20.2468 11.8228 20.1654 11.8433 20.1259C11.8639 20.0864 11.8954 20.0392 11.9135 20.0209C11.9316 20.0026 11.9464 19.9741 11.9464 19.9576C11.9464 19.9411 11.9734 19.8905 12.0064 19.8452C12.0394 19.7999 12.0664 19.7303 12.0664 19.6905C12.0664 19.6507 12.0844 19.5981 12.1063 19.5736C12.1615 19.5118 12.2151 18.9618 12.1718 18.9017C12.1435 18.8625 8.12354 18.8295 7.87851 18.8665ZM12.1164 18.8984C12.1706 18.9278 12.16 19.3381 12.102 19.4564C12.0856 19.4898 12.0643 19.5554 12.0546 19.6022C12.0325 19.7086 11.9063 19.9785 11.8606 20.0169C11.8418 20.0327 11.8264 20.0581 11.8264 20.0734C11.8264 20.1109 11.5948 20.3984 11.4916 20.4891C11.4457 20.5293 11.3914 20.5789 11.3707 20.5994C11.2293 20.739 10.8061 20.9705 10.6154 21.0124C10.5499 21.0268 10.4829 21.05 10.4663 21.064C10.3191 21.1876 9.37506 21.0785 9.05448 20.9007C8.98848 20.8642 8.90209 20.8178 8.86249 20.7978C8.82289 20.7777 8.77309 20.7438 8.75179 20.7225C8.73049 20.7012 8.66089 20.64 8.59711 20.5865C8.40266 20.4235 8.0825 20.0495 8.0825 19.9854C8.0825 19.9726 8.06318 19.9331 8.03954 19.8976C7.84965 19.6124 7.73943 18.9259 7.87851 18.8949C8.00438 18.8668 12.0643 18.8702 12.1164 18.8984Z" fill="#AFAFAF"/>
<path fill-rule="evenodd" clip-rule="evenodd" d="M9.88918 0.055226C9.9523 0.0602083 10.0495 0.0601476 10.1052 0.0550437C10.1609 0.0499398 10.1093 0.0458689 9.99046 0.0459296C9.87166 0.0459904 9.82606 0.0501829 9.88918 0.055226ZM9.58847 0.0787404C9.61817 0.0845734 9.66676 0.0845734 9.69646 0.0787404C9.72616 0.0729681 9.70186 0.0682288 9.64247 0.0682288C9.58307 0.0682288 9.55877 0.0729681 9.58847 0.0787404ZM10.2845 0.0787404C10.3142 0.0845734 10.3628 0.0845734 10.3924 0.0787404C10.4221 0.0729681 10.3978 0.0682288 10.3384 0.0682288C10.2791 0.0682288 10.2548 0.0729681 10.2845 0.0787404ZM9.28847 0.103348C9.32477 0.108878 9.38417 0.108878 9.42047 0.103348C9.45677 0.0977583 9.42707 0.0932013 9.35447 0.0932013C9.28187 0.0932013 9.25217 0.0977583 9.28847 0.103348ZM10.5607 0.103348C10.5973 0.108938 10.6513 0.108817 10.6807 0.103045C10.7103 0.0972723 10.6804 0.0926544 10.6144 0.0928367C10.5484 0.093019 10.5243 0.0977583 10.5607 0.103348ZM8.22649 0.268192C8.14982 0.312547 8.16626 0.31279 8.28649 0.268921C8.33929 0.24966 8.36089 0.233801 8.33449 0.23368C8.30809 0.233558 8.25949 0.249113 8.22649 0.268192ZM7.27852 0.620603C7.23892 0.647155 7.21732 0.668725 7.23052 0.668482C7.25458 0.668117 7.38507 0.573392 7.36251 0.572723C7.35591 0.57248 7.31811 0.59405 7.27852 0.620603ZM9.86446 1.44051C9.92716 1.44549 10.0298 1.44549 10.0925 1.44051C10.1552 1.43552 10.1039 1.43139 9.97846 1.43139C9.85306 1.43139 9.80176 1.43552 9.86446 1.44051ZM5.79523 1.5085C5.75815 1.54149 5.73739 1.56847 5.74903 1.56847C5.76067 1.56847 5.79553 1.54112 5.82655 1.50771C5.89824 1.43042 5.88241 1.43078 5.79523 1.5085ZM9.24047 1.46372C9.26357 1.46979 9.30137 1.46979 9.32447 1.46372C9.34757 1.45758 9.32867 1.4526 9.28247 1.4526C9.23627 1.4526 9.21737 1.45758 9.24047 1.46372ZM14.2094 1.5602C14.23 1.59417 14.4664 1.79656 14.4664 1.78028C14.4664 1.77396 14.4047 1.71551 14.3293 1.65043C14.254 1.5853 14.2 1.54471 14.2094 1.5602ZM5.55055 1.73058C5.49775 1.77852 5.47615 1.8064 5.50255 1.79255C5.54701 1.76922 5.67961 1.6401 5.65675 1.64241C5.65111 1.64296 5.60335 1.68264 5.55055 1.73058ZM12.205 1.93309C12.3069 1.99604 12.3402 1.99598 12.2464 1.93303C12.2068 1.90648 12.1636 1.88473 12.1504 1.88466C12.1372 1.88466 12.1618 1.90642 12.205 1.93309ZM14.6222 1.9292C14.6484 1.96049 14.6915 1.99738 14.7181 2.01117C14.7691 2.0376 14.7616 2.02946 14.6465 1.93267C14.5772 1.8744 14.5764 1.87427 14.6222 1.9292ZM5.20124 2.04847L5.11856 2.13962L5.20856 2.05589C5.25806 2.00977 5.29856 1.96876 5.29856 1.96475C5.29856 1.94615 5.27828 1.96365 5.20124 2.04847ZM13.1517 2.49725C13.2828 2.60863 13.374 2.67291 13.3409 2.63062C13.3225 2.60717 13.2577 2.55504 13.1969 2.51487C13.132 2.47191 13.1133 2.46468 13.1517 2.49725ZM15.0903 2.45101C15.0903 2.45521 15.1254 2.49075 15.1683 2.53L15.2463 2.6014L15.1758 2.52241C15.1101 2.44877 15.0903 2.43224 15.0903 2.45101ZM5.76433 3.51888C5.68711 3.60941 5.57575 3.78015 5.59387 3.78015C5.59945 3.78015 5.63467 3.73367 5.67211 3.67686C5.70949 3.62005 5.76145 3.54896 5.78755 3.51888C5.81359 3.4888 5.82949 3.4642 5.82289 3.4642C5.81629 3.4642 5.78995 3.4888 5.76433 3.51888ZM4.02023 3.7135L3.97787 3.7923L4.02623 3.73494C4.06738 3.68609 4.08934 3.63396 4.06858 3.63451C4.06528 3.63457 4.04351 3.67011 4.02023 3.7135ZM16.0176 3.88952C16.0731 3.98546 16.0743 3.98692 16.0743 3.95702C16.0743 3.94293 16.0521 3.90556 16.0249 3.87396L15.9755 3.81661L16.0176 3.88952ZM14.4185 3.8544C14.4184 3.86187 14.4454 3.90501 14.4784 3.95028C14.5114 3.99555 14.538 4.02228 14.5375 4.0097C14.5366 3.98528 14.4187 3.83149 14.4185 3.8544ZM3.44034 5.27662C3.43146 5.31223 3.42888 5.34607 3.43452 5.35178C3.44022 5.35749 3.45204 5.33307 3.46086 5.2974C3.46974 5.26179 3.47232 5.22795 3.46668 5.22224C3.46098 5.21653 3.44916 5.24095 3.44034 5.27662ZM3.31218 5.96753C3.31218 6.01431 3.3171 6.03345 3.32316 6.01006C3.32916 5.98667 3.32916 5.94839 3.32316 5.925C3.3171 5.9016 3.31218 5.92074 3.31218 5.96753ZM16.6332 6.19842C16.6333 6.26525 16.638 6.28974 16.6435 6.2528C16.6491 6.2158 16.6489 6.16111 16.6432 6.13128C16.6375 6.10138 16.633 6.13158 16.6332 6.19842ZM4.68111 6.25918C4.68111 6.31933 4.68579 6.34394 4.69149 6.31386C4.69725 6.28379 4.69725 6.23457 4.69149 6.20449C4.68579 6.17442 4.68111 6.19903 4.68111 6.25918ZM15.29 6.30779C15.29 6.39467 15.2944 6.43022 15.2997 6.38678C15.305 6.34333 15.305 6.27224 15.2997 6.2288C15.2944 6.18535 15.29 6.2209 15.29 6.30779ZM3.29004 6.39285C3.29016 6.47306 3.29466 6.50295 3.3 6.45926C3.30534 6.41558 3.30522 6.34995 3.29976 6.31344C3.2943 6.27692 3.28992 6.31265 3.29004 6.39285ZM16.6569 6.45361C16.6569 6.51376 16.6615 6.53837 16.6672 6.5083C16.673 6.47822 16.673 6.429 16.6672 6.39893C16.6615 6.36885 16.6569 6.39346 16.6569 6.45361ZM4.65663 6.51437C4.65687 6.56784 4.66179 6.58686 4.66755 6.5566C4.67331 6.5264 4.67307 6.48266 4.66707 6.45938C4.66107 6.43617 4.65633 6.4609 4.65663 6.51437ZM16.6812 6.70881C16.6813 6.77564 16.686 6.80013 16.6915 6.76319C16.6971 6.72618 16.6969 6.6715 16.6912 6.64167C16.6855 6.61177 16.681 6.64197 16.6812 6.70881ZM4.63755 7.65667C4.63755 8.2181 4.64073 8.44431 4.64457 8.15934C4.64841 7.87437 4.64841 7.41503 4.64451 7.13857C4.64067 6.8621 4.63755 7.09524 4.63755 7.65667ZM15.3174 7.74173C15.3174 8.32321 15.3205 8.56109 15.3243 8.27035C15.3281 7.97961 15.3281 7.50386 15.3243 7.21312C15.3205 6.92238 15.3174 7.16026 15.3174 7.74173ZM3.26958 7.75389C3.26958 8.31531 3.27276 8.54153 3.2766 8.25656C3.28044 7.97159 3.28044 7.51224 3.27654 7.23578C3.2727 6.95932 3.26958 7.19246 3.26958 7.75389ZM16.7089 7.77819C16.7089 8.16584 16.7122 8.32103 16.7163 8.12307C16.7203 7.92505 16.7203 7.60788 16.7163 7.41825C16.7122 7.22855 16.7089 7.39054 16.7089 7.77819ZM3.24066 8.87188C3.2409 8.92535 3.24582 8.94437 3.25158 8.91411C3.25734 8.88391 3.2571 8.84016 3.2511 8.81689C3.2451 8.79368 3.24036 8.81841 3.24066 8.87188ZM16.7279 8.90834C16.7279 8.95512 16.7328 8.97426 16.7389 8.95087C16.7449 8.92748 16.7449 8.8892 16.7389 8.8658C16.7328 8.84241 16.7279 8.86155 16.7279 8.90834ZM15.332 9.01971C15.333 9.07209 15.3429 9.1368 15.3541 9.16353C15.3668 9.19379 15.3694 9.16165 15.3611 9.07847C15.345 8.91836 15.3297 8.8875 15.332 9.01971ZM4.60941 9.13923C4.60959 9.20606 4.61427 9.23055 4.61979 9.19361C4.62531 9.1566 4.62519 9.10192 4.61949 9.07209C4.61379 9.04219 4.60923 9.07239 4.60941 9.13923ZM3.1185 9.50482C3.07831 9.5942 3.08599 9.61328 3.12942 9.53204C3.14976 9.49407 3.16188 9.45846 3.15636 9.45293C3.1509 9.44734 3.13386 9.47074 3.1185 9.50482ZM3.00391 9.82047C2.98201 9.85432 2.96845 9.88646 2.97379 9.89187C2.97913 9.89727 3.00169 9.86957 3.02395 9.83032C3.07345 9.74294 3.05875 9.73571 3.00391 9.82047ZM2.91661 10.015C2.85667 10.0962 2.86447 10.1189 2.92537 10.0405C2.95327 10.0046 2.97217 9.97134 2.96737 9.96666C2.96257 9.96198 2.93971 9.9838 2.91661 10.015ZM17.0343 10.0156C17.0343 10.0387 17.1556 10.2208 17.171 10.2208C17.1824 10.2208 17.1679 10.1952 17.0893 10.0776C17.0591 10.0323 17.0343 10.0044 17.0343 10.0156ZM17.2721 10.3868C17.2851 10.4113 17.3146 10.4469 17.3376 10.4658C17.3635 10.4871 17.3577 10.4701 17.3224 10.4213C17.2594 10.3341 17.2357 10.3179 17.2721 10.3868ZM2.45312 10.6886L2.38262 10.7676L2.46062 10.6962C2.50352 10.657 2.53862 10.6214 2.53862 10.6172C2.53862 10.5985 2.51882 10.615 2.45312 10.6886ZM2.09313 11.0046L2.02263 11.0836L2.10063 11.0122C2.17334 10.9456 2.18966 10.9256 2.17112 10.9256C2.16699 10.9256 2.13189 10.9611 2.09313 11.0046ZM17.9343 11.0693C17.981 11.1237 18.1143 11.2293 18.1143 11.2119C18.1143 11.2072 18.063 11.1605 18.0003 11.1084C17.9376 11.0562 17.9079 11.0386 17.9343 11.0693ZM18.6783 11.7033C18.7833 11.8103 18.8745 11.8978 18.8811 11.8978C18.8877 11.8978 18.8073 11.8103 18.7023 11.7033C18.5973 11.5964 18.506 11.5089 18.4994 11.5089C18.4928 11.5089 18.5733 11.5964 18.6783 11.7033ZM2.85793 12.179L2.79061 12.2415L2.86861 12.1866C2.91151 12.1564 2.94661 12.1282 2.94661 12.1241C2.94661 12.1049 2.92009 12.1214 2.85793 12.179ZM19.2183 12.3771C19.2183 12.3912 19.2405 12.4286 19.2677 12.4602L19.3171 12.5175L19.275 12.4446C19.2195 12.3487 19.2183 12.3472 19.2183 12.3771ZM17.4203 12.4628C17.4258 12.4662 17.4627 12.4962 17.5023 12.5297L17.5743 12.5904L17.5161 12.5236C17.4841 12.4868 17.4472 12.4568 17.4341 12.4568C17.421 12.4568 17.4148 12.4595 17.4203 12.4628ZM19.3383 12.5894C19.3383 12.5991 19.3599 12.6348 19.3863 12.6689C19.4127 12.7028 19.4343 12.7227 19.4343 12.713C19.4343 12.7033 19.4127 12.6675 19.3863 12.6335C19.3599 12.5995 19.3383 12.5797 19.3383 12.5894ZM17.5883 12.6087C17.5938 12.612 17.6307 12.6421 17.6703 12.6755L17.7423 12.7362L17.6841 12.6694C17.6521 12.6327 17.6152 12.6026 17.6021 12.6026C17.589 12.6026 17.5828 12.6053 17.5883 12.6087ZM2.05857 12.9003C2.02323 12.9492 2.01741 12.9662 2.04333 12.9448C2.08269 12.9125 2.14221 12.8213 2.12397 12.8213C2.11941 12.8213 2.08995 12.8569 2.05857 12.9003ZM18.2343 13.4625C18.2343 13.4886 18.3057 13.6234 18.3195 13.6234C18.3261 13.6234 18.3137 13.5878 18.2918 13.5444C18.2473 13.4557 18.2343 13.4372 18.2343 13.4625ZM0.0487304 14.3403C0.0489703 14.3938 0.0538902 14.4128 0.0596501 14.3826C0.0654099 14.3524 0.06517 14.3086 0.0591701 14.2853C0.0531702 14.2621 0.0484304 14.2869 0.0487304 14.3403ZM1.44118 14.3525C1.44118 14.4126 1.44586 14.4372 1.45156 14.4072C1.45732 14.3771 1.45732 14.3279 1.45156 14.2978C1.44586 14.2677 1.44118 14.2923 1.44118 14.3525ZM19.8974 14.4011C19.8974 14.4746 19.9019 14.5047 19.9075 14.4679C19.9129 14.4312 19.9129 14.371 19.9075 14.3343C19.9019 14.2975 19.8974 14.3276 19.8974 14.4011ZM18.5537 14.632C18.5538 14.7122 18.5583 14.7421 18.5637 14.6984C18.569 14.6547 18.5689 14.5891 18.5634 14.5526C18.558 14.516 18.5536 14.5518 18.5537 14.632ZM19.9217 14.7292C19.9218 14.8094 19.9263 14.8393 19.9316 14.7956C19.937 14.7519 19.9369 14.6863 19.9314 14.6498C19.9259 14.6133 19.9216 14.649 19.9217 14.7292ZM0.0289307 15.1545C0.0289307 15.4553 0.0323507 15.5783 0.0366106 15.4279C0.0408105 15.2776 0.0408105 15.0315 0.0366106 14.8811C0.0323507 14.7307 0.0289307 14.8538 0.0289307 15.1545ZM1.39222 14.79C1.39222 14.8367 1.39714 14.8559 1.4032 14.8325C1.4092 14.8091 1.4092 14.7708 1.4032 14.7474C1.39714 14.724 1.39222 14.7432 1.39222 14.79ZM19.9198 14.9844C19.9198 15.0312 19.9247 15.0503 19.9308 15.0269C19.9368 15.0035 19.9368 14.9653 19.9308 14.9419C19.9247 14.9185 19.9198 14.9376 19.9198 14.9844ZM19.9228 15.4826C19.9227 15.6029 19.9267 15.6552 19.9318 15.5988C19.9368 15.5424 19.9369 15.444 19.9319 15.3801C19.927 15.3161 19.9228 15.3623 19.9228 15.4826ZM18.5463 15.3449C18.5463 15.3665 16.4941 15.3747 10.0085 15.3793L1.47064 15.3853L10.0012 15.3915C18.1364 15.3973 18.6228 15.394 18.5627 15.3332C18.5537 15.324 18.5463 15.3293 18.5463 15.3449ZM0.138668 16.0892C0.138668 16.0989 0.160268 16.1346 0.186667 16.1687C0.213067 16.2026 0.234666 16.2225 0.234666 16.2128C0.234666 16.2031 0.213067 16.1673 0.186667 16.1333C0.160268 16.0993 0.138668 16.0795 0.138668 16.0892ZM0.381903 16.4284C0.439502 16.4874 0.490261 16.5321 0.494641 16.5276C0.504721 16.5175 0.311945 16.3211 0.291905 16.3211C0.283745 16.3211 0.324244 16.3694 0.381903 16.4284ZM19.5769 16.4123L19.4943 16.5034L19.5843 16.4197C19.6338 16.3736 19.6743 16.3325 19.6743 16.3285C19.6743 16.3099 19.654 16.3274 19.5769 16.4123ZM0.882652 16.7464C0.915652 16.7655 0.953451 16.7812 0.966651 16.7812C0.97985 16.7812 0.963651 16.7655 0.930651 16.7464C0.897652 16.7274 0.859853 16.7117 0.846653 16.7117C0.833454 16.7117 0.849653 16.7274 0.882652 16.7464ZM5.52055 16.8011C7.9724 16.8045 11.9845 16.8045 14.4364 16.8011C16.8882 16.7977 14.8822 16.7949 9.97846 16.7949C5.07476 16.7949 3.06871 16.7977 5.52055 16.8011ZM8.97828 18.8913C9.55679 18.8949 10.4964 18.8949 11.0662 18.8913C11.6362 18.8876 11.1628 18.8847 10.0145 18.8847C8.86608 18.8847 8.39983 18.8876 8.97828 18.8913ZM12.1372 19.0013C12.1489 19.1014 12.1494 19.1019 12.1576 19.0219C12.1622 18.9767 12.1568 18.9305 12.1456 18.9192C12.1344 18.9079 12.1307 18.9448 12.1372 19.0013ZM7.80008 19.0432C7.80008 19.09 7.805 19.1091 7.81106 19.0857C7.81706 19.0623 7.81706 19.0241 7.81106 19.0007C7.805 18.9773 7.80008 18.9964 7.80008 19.0432ZM7.82018 19.2153C7.82114 19.2477 7.83164 19.296 7.84364 19.3227C7.85876 19.3566 7.86092 19.3418 7.85078 19.2741C7.8338 19.1612 7.81772 19.1304 7.82018 19.2153ZM11.1424 20.7461C11.1028 20.7718 11.0827 20.7929 11.0978 20.793C11.1128 20.793 11.1506 20.7716 11.1818 20.7453C11.2531 20.6851 11.236 20.6855 11.1424 20.7461ZM9.12648 20.9389C9.16607 20.9655 9.20927 20.9872 9.22247 20.9873C9.23567 20.9873 9.21113 20.9655 9.16788 20.9389C9.066 20.8759 9.03264 20.876 9.12648 20.9389ZM9.73246 21.1019C9.76216 21.1077 9.81076 21.1077 9.84046 21.1019C9.87016 21.0961 9.84586 21.0914 9.78646 21.0914C9.72706 21.0914 9.70276 21.0961 9.73246 21.1019ZM10.1165 21.1019C10.1462 21.1077 10.1948 21.1077 10.2245 21.1019C10.2542 21.0961 10.2299 21.0914 10.1705 21.0914C10.1111 21.0914 10.0868 21.0961 10.1165 21.1019Z" fill="#8C8C8C"/>
<path fill-rule="evenodd" clip-rule="evenodd" d="M9.59448 0.0850654C9.50868 0.0957593 9.34801 0.105845 9.23749 0.107364C9.12427 0.109005 8.91986 0.136043 8.7695 0.169401C8.62262 0.201908 8.44851 0.239276 8.38251 0.2524C8.22135 0.284421 7.96174 0.362255 7.90252 0.396341C7.87612 0.411532 7.80052 0.440211 7.73452 0.460079C7.53742 0.519503 7.37231 0.584274 7.30631 0.628021C7.27217 0.650685 7.22909 0.669217 7.21061 0.669217C7.19213 0.669217 7.15127 0.689572 7.11977 0.714483C7.08827 0.739395 7.03554 0.768135 7.00254 0.778404C6.96954 0.788733 6.91386 0.817533 6.87882 0.842506C6.84378 0.867539 6.80028 0.887955 6.78216 0.887955C6.76404 0.887955 6.72252 0.906973 6.68988 0.930305C6.65724 0.953576 6.60156 0.989121 6.56611 1.00929C6.53065 1.02941 6.43885 1.08877 6.36211 1.14114C6.28537 1.19358 6.13615 1.29414 6.03056 1.36462C5.92496 1.43516 5.79536 1.53262 5.74256 1.58123C5.68976 1.6299 5.57637 1.73168 5.49057 1.80744C5.29353 1.9814 5.15464 2.12176 4.98136 2.3219C4.90612 2.40879 4.8001 2.5291 4.74574 2.58925C4.69145 2.6494 4.63007 2.73143 4.60943 2.77153C4.58879 2.81163 4.56485 2.84991 4.55621 2.8566C4.53851 2.87033 4.19778 3.39809 4.15218 3.48243C4.10796 3.56415 4.08264 3.61556 4.05336 3.68294C4.03884 3.71636 4.01688 3.7601 4.00458 3.78016C3.94998 3.86905 3.75619 4.29546 3.73729 4.3682C3.69973 4.51299 3.61567 4.76247 3.56869 4.86844C3.54337 4.92561 3.52255 4.9967 3.52243 5.02641C3.52231 5.05613 3.50083 5.15152 3.47461 5.23841C3.44839 5.32529 3.42763 5.4292 3.42841 5.4693C3.43027 5.56238 3.48463 5.38533 3.53431 5.12442C3.55267 5.0283 3.58369 4.9244 3.60337 4.89353C3.62299 4.86266 3.64645 4.79364 3.65551 4.74017C3.66457 4.6867 3.68575 4.62066 3.70255 4.59337C3.71935 4.56609 3.74593 4.48133 3.76158 4.40502C3.77718 4.3287 3.79962 4.26624 3.81132 4.26624C3.82308 4.26624 3.84576 4.21976 3.86172 4.16295C3.87768 4.10614 3.90912 4.03778 3.9315 4.01105C3.95394 3.98431 3.97998 3.92963 3.98934 3.88952C3.9987 3.84942 4.02042 3.80021 4.03764 3.78016C4.05486 3.7601 4.0767 3.71794 4.08618 3.68652C4.09566 3.65505 4.12932 3.59064 4.161 3.54337C4.19268 3.4961 4.2186 3.43704 4.2186 3.41219C4.2186 3.38734 4.22712 3.36698 4.23749 3.36698C4.25711 3.36698 4.43459 3.1113 4.43459 3.08305C4.43459 3.07424 4.45253 3.04696 4.47443 3.02241C4.49639 2.99786 4.52609 2.95752 4.54043 2.93279C4.60421 2.82312 4.69853 2.69163 4.7734 2.60802C4.81804 2.5582 4.90318 2.46135 4.96258 2.39281C5.15266 2.1734 5.64219 1.68999 5.67428 1.68999C5.68016 1.68999 5.72276 1.65281 5.76896 1.60736C5.83922 1.53827 5.9573 1.45169 6.18655 1.30119C6.20635 1.28818 6.26035 1.25033 6.30655 1.21703C6.35275 1.1838 6.41257 1.14649 6.43951 1.13416C6.46645 1.12182 6.50293 1.09424 6.52045 1.07279C6.53803 1.05134 6.56587 1.03378 6.58224 1.03378C6.59862 1.03378 6.6378 1.01391 6.6693 0.989607C6.7008 0.965303 6.76434 0.93073 6.81054 0.912684C6.85674 0.894699 6.91074 0.866628 6.93054 0.850344C6.95034 0.834121 6.99354 0.812733 7.02654 0.80289C7.05953 0.793047 7.10273 0.771659 7.12253 0.755436C7.14233 0.739152 7.19633 0.711263 7.24253 0.693521C7.28873 0.675779 7.34291 0.647222 7.36289 0.630148C7.38287 0.613074 7.44521 0.588648 7.50137 0.575889C7.55752 0.563129 7.62988 0.535118 7.66216 0.513731C7.69444 0.492282 7.74592 0.474783 7.77658 0.474783C7.8073 0.474783 7.87378 0.453396 7.92436 0.427269C7.975 0.401142 8.07717 0.367176 8.15145 0.351743C8.22573 0.33631 8.29899 0.313464 8.31423 0.300947C8.32947 0.288492 8.44827 0.264248 8.57822 0.247114C8.70818 0.23004 8.84006 0.202029 8.87138 0.185016C9.03121 0.0978858 10.9017 0.102321 11.1064 0.190303C11.1526 0.210171 11.2714 0.234293 11.3704 0.243893C11.4694 0.253493 11.5845 0.27561 11.6262 0.292988C11.6678 0.310365 11.765 0.337647 11.8422 0.353566C11.9193 0.369546 11.9995 0.397861 12.0202 0.416514C12.041 0.435107 12.107 0.459654 12.1669 0.470955C12.2267 0.482257 12.3012 0.50966 12.3324 0.531777C12.3636 0.553893 12.4135 0.572 12.4433 0.572C12.4896 0.572 12.8062 0.719162 13.0024 0.831812C13.0354 0.850769 13.1002 0.883215 13.1464 0.903874C13.1926 0.924533 13.2466 0.955399 13.2664 0.972594C13.2862 0.989729 13.3278 1.01154 13.3587 1.02114C13.3898 1.03074 13.433 1.05456 13.4547 1.07413C13.5234 1.1358 13.8031 1.323 13.8844 1.36183C13.9273 1.38224 13.9624 1.40977 13.9624 1.42295C13.9624 1.43614 13.9744 1.44695 13.9891 1.44695C14.0112 1.44695 14.1126 1.52819 14.338 1.72645C14.3532 1.73982 14.4104 1.78903 14.4651 1.83582C14.6458 1.99033 14.8117 2.16216 15.0171 2.4077C15.1286 2.54094 15.2339 2.65876 15.2511 2.66945C15.2683 2.68015 15.2824 2.70415 15.2824 2.72274C15.2824 2.74139 15.3013 2.77098 15.3244 2.7886C15.3475 2.80616 15.3826 2.84967 15.4024 2.88527C15.4335 2.94124 15.6349 3.25215 15.7617 3.4399C15.7843 3.47331 15.8158 3.54082 15.8318 3.58985C15.8477 3.63889 15.8765 3.69217 15.8955 3.70828C15.9147 3.72438 15.9303 3.75658 15.9303 3.77985C15.9303 3.80312 15.9504 3.84827 15.975 3.88017C15.9996 3.91207 16.028 3.96475 16.038 3.99725C16.0481 4.02982 16.082 4.10522 16.1133 4.16495C16.1447 4.22462 16.1703 4.29783 16.1703 4.32767C16.1703 4.35744 16.1853 4.39444 16.2038 4.40988C16.2221 4.42531 16.2447 4.48929 16.254 4.55206C16.2633 4.61476 16.2906 4.70517 16.3146 4.75287C16.3386 4.80063 16.3661 4.8829 16.3755 4.93576C16.385 4.98856 16.4085 5.06323 16.4277 5.10164C16.4469 5.14004 16.4715 5.26721 16.4823 5.38423C16.4932 5.50126 16.5188 5.62977 16.5393 5.66987C16.5879 5.76514 16.6717 7.2819 16.6734 8.09828C16.6746 8.66755 16.7154 9.2644 16.7593 9.35433C16.7778 9.39242 16.8 9.46351 16.8084 9.5123C16.8168 9.56109 16.8378 9.62386 16.855 9.65181C16.8723 9.67976 16.8991 9.75085 16.9146 9.80978C16.9301 9.86872 16.9572 9.93337 16.9747 9.95342C16.9922 9.97347 17.0138 10.0192 17.0226 10.055C17.0314 10.0907 17.0593 10.1389 17.0845 10.162C17.1097 10.1851 17.1303 10.2143 17.1303 10.2268C17.1303 10.2393 17.1525 10.2786 17.1796 10.3142C17.2263 10.3753 17.2632 10.426 17.4289 10.6571C17.4678 10.7112 17.5074 10.7555 17.517 10.7555C17.5266 10.7555 17.5773 10.7965 17.6297 10.8466C17.6821 10.8967 17.7505 10.9596 17.7817 10.9863C17.95 11.1305 18.0178 11.1866 18.0901 11.2415C18.4094 11.4845 18.7224 11.7838 18.9423 12.0564C18.9819 12.1055 19.0251 12.1582 19.0383 12.1736C19.1111 12.2584 19.2437 12.4729 19.3149 12.6208C19.3422 12.6776 19.3743 12.7241 19.3863 12.7241C19.3983 12.7241 19.4151 12.762 19.4237 12.8083C19.4323 12.8546 19.4543 12.9051 19.4726 12.9205C19.4909 12.9359 19.5171 12.9905 19.5307 13.0418C19.5444 13.0931 19.5703 13.15 19.5883 13.1683C19.6063 13.1866 19.6343 13.2658 19.6504 13.3446C19.6665 13.4233 19.6941 13.51 19.7116 13.5373C19.7291 13.5646 19.7504 13.6471 19.759 13.7206C19.7675 13.7941 19.7941 13.9144 19.8181 13.9879C19.9101 14.2697 19.9061 15.8905 19.8132 15.9993C19.7933 16.0226 19.7656 16.0763 19.7516 16.1187C19.7263 16.1952 19.705 16.2231 19.535 16.4027C19.4357 16.5077 19.2191 16.6608 19.1678 16.6625C19.1493 16.663 19.0911 16.6808 19.0383 16.7019C18.9855 16.7229 18.8829 16.7487 18.8103 16.7591L18.6783 16.7781L18.8343 16.7725C19.122 16.7621 19.3846 16.6237 19.6138 16.3619C19.8784 16.0597 19.9173 15.9091 19.9188 15.1788C19.9206 14.348 19.8734 13.925 19.7316 13.5018C19.7115 13.4417 19.6845 13.3496 19.6716 13.2973C19.6587 13.2449 19.6332 13.1738 19.6148 13.1393C19.5964 13.1048 19.5371 12.9836 19.483 12.8699C19.4289 12.7563 19.3584 12.6196 19.3263 12.5661C19.2942 12.5127 19.252 12.4352 19.2325 12.3941C19.213 12.3529 19.1802 12.3051 19.1597 12.2878C19.1391 12.2705 19.1223 12.2433 19.1223 12.2273C19.1223 12.2113 19.098 12.1764 19.0683 12.1497C19.0386 12.1231 18.9873 12.0637 18.9543 12.0178C18.807 11.8127 18.3992 11.4249 18.1253 11.2294C17.8931 11.0637 17.4678 10.668 17.3808 10.5367C17.3497 10.4899 17.2698 10.3751 17.203 10.2815C17.1363 10.188 17.0698 10.0841 17.0553 10.0506C17.0407 10.0172 17.0085 9.94492 16.9836 9.88999C16.9587 9.83506 16.9383 9.77722 16.9383 9.76142C16.9383 9.74568 16.917 9.69033 16.8908 9.63844C16.7535 9.36575 16.7011 8.81574 16.6987 7.62022C16.6978 7.17721 16.684 6.77322 16.6626 6.56299C16.6434 6.37584 16.6271 6.15164 16.6262 6.06475C16.6253 5.97786 16.6082 5.83021 16.5882 5.73664C16.5682 5.64307 16.5322 5.45715 16.5083 5.32347C16.4843 5.1898 16.4461 5.02575 16.4234 4.95891C16.4006 4.89207 16.3721 4.80731 16.3601 4.77055C16.239 4.39918 16.1591 4.19102 16.0482 3.95849C15.9834 3.82263 15.9303 3.70092 15.9303 3.68804C15.9303 3.67516 15.9152 3.65189 15.8967 3.63634C15.8782 3.62078 15.8561 3.58007 15.8477 3.5458C15.8391 3.51159 15.8126 3.45466 15.7885 3.41924C15.7022 3.29201 15.5575 3.06786 15.5137 2.99331C15.4891 2.95156 15.461 2.91189 15.4513 2.9052C15.4415 2.89852 15.4203 2.86759 15.4041 2.83642C15.37 2.7708 15.3311 2.72007 15.1977 2.56671C15.1445 2.50558 15.0369 2.37902 14.9585 2.28545C14.5798 1.83339 13.7085 1.1423 13.2064 0.895732C13.1536 0.869787 13.0888 0.836005 13.0624 0.820632C13.036 0.80526 12.9388 0.757684 12.8464 0.714848C12.754 0.672012 12.6622 0.624254 12.6424 0.6087C12.6226 0.593145 12.5578 0.56641 12.4984 0.549397C12.439 0.532323 12.3796 0.510267 12.3664 0.500363C12.3532 0.49046 12.2884 0.467978 12.2224 0.450479C12.1564 0.43298 12.091 0.40983 12.077 0.399015C12.0631 0.3882 11.9929 0.36347 11.9211 0.344027C11.8492 0.324583 11.7432 0.291347 11.6854 0.270203C11.6277 0.249058 11.5467 0.23168 11.5054 0.231559C11.4642 0.231498 11.3386 0.208348 11.2264 0.180216C10.9238 0.104266 9.91259 0.045328 9.59448 0.0850654ZM9.36649 1.4235C9.20143 1.43346 9.04261 1.45655 8.99449 1.47751C8.94829 1.49763 8.83556 1.52193 8.74394 1.53153C8.65232 1.54119 8.5391 1.56981 8.4923 1.59521C8.44551 1.62061 8.38005 1.64145 8.34687 1.64145C8.31369 1.64151 8.25321 1.6621 8.21253 1.68726C8.17179 1.71241 8.09385 1.74061 8.03919 1.74996C7.9846 1.75932 7.91362 1.78788 7.88146 1.81352C7.8493 1.83916 7.80718 1.86012 7.78798 1.86012C7.76872 1.86012 7.72552 1.882 7.69198 1.90873C7.65838 1.93547 7.62004 1.95734 7.60666 1.95734C7.56682 1.95734 7.24841 2.12747 7.21733 2.16538C7.20155 2.18464 7.17545 2.20038 7.15931 2.20038C7.14317 2.20038 7.11041 2.22226 7.08653 2.24899C7.06265 2.27572 7.03296 2.2976 7.0206 2.2976C6.99426 2.2976 6.95886 2.32433 6.6021 2.61374C6.31435 2.84712 6.16615 2.98918 5.99456 3.196C5.93516 3.26758 5.86226 3.34827 5.83256 3.37525C5.80286 3.40229 5.77856 3.43765 5.77856 3.45381C5.77856 3.47003 5.76218 3.48966 5.7422 3.49744C5.72222 3.50521 5.69492 3.53644 5.6816 3.56689C5.65856 3.61938 5.56779 3.75822 5.51487 3.82178C5.50137 3.838 5.47785 3.87901 5.46261 3.91292C5.44737 3.94682 5.42571 3.97459 5.41455 3.97459C5.40333 3.97459 5.37687 4.01834 5.35575 4.07181C5.33463 4.12528 5.30859 4.16902 5.29785 4.16902C5.28711 4.16902 5.26509 4.21004 5.24895 4.26016C5.23281 4.31029 5.19957 4.37737 5.1751 4.40927C5.15062 4.44117 5.13058 4.48321 5.13058 4.50272C5.13058 4.52228 5.1097 4.56792 5.0842 4.60425C5.05864 4.64052 5.0302 4.70238 5.02096 4.74163C5.01172 4.78094 4.9906 4.82949 4.97404 4.84954C4.95754 4.86959 4.93186 4.94445 4.91704 5.0159C4.90222 5.08736 4.87402 5.16908 4.85434 5.19752C4.83466 5.22595 4.81858 5.2745 4.81858 5.30537C4.81858 5.33623 4.79752 5.42476 4.77178 5.50211C4.74604 5.57946 4.71316 5.73938 4.69865 5.8575C4.68419 5.97562 4.65989 6.09519 4.64471 6.1232C4.62521 6.15911 4.61231 6.62101 4.60103 7.69313C4.58555 9.15764 4.58315 9.21755 4.53377 9.36326C4.50563 9.44638 4.48259 9.5614 4.48259 9.61882C4.48259 9.67629 4.46237 9.76142 4.43771 9.80808C4.41299 9.85475 4.38485 9.94206 4.37513 10.0022C4.36547 10.0622 4.33703 10.1455 4.31207 10.1872C4.28705 10.2289 4.26659 10.2848 4.26659 10.3115C4.26659 10.3382 4.24655 10.3861 4.22208 10.418C4.1976 10.4499 4.16442 10.5168 4.14834 10.5667C4.13226 10.6167 4.10892 10.664 4.0965 10.6717C4.08402 10.6795 4.05744 10.7206 4.0374 10.7632C3.98004 10.8848 3.85692 11.0817 3.74587 11.2294C3.71569 11.2695 3.67201 11.3292 3.64885 11.362C3.58315 11.4548 3.0278 12.0193 3.00218 12.0193C2.98958 12.0193 2.95676 12.0439 2.92928 12.074C2.90174 12.104 2.83952 12.156 2.79093 12.1894C2.74239 12.2228 2.67315 12.2775 2.63709 12.3109C2.60103 12.3443 2.51997 12.4154 2.45691 12.4689C2.39391 12.5224 2.30278 12.6016 2.25448 12.645C2.20618 12.6884 2.16088 12.7239 2.1538 12.724C2.14678 12.724 2.12098 12.7584 2.0965 12.8004C2.07202 12.8423 2.03458 12.8963 2.01334 12.9204C1.88716 13.0629 1.65185 13.4329 1.65119 13.4899C1.65089 13.5167 1.62365 13.5901 1.59065 13.6528C1.55765 13.7156 1.53041 13.7921 1.53011 13.8228C1.52981 13.8535 1.50845 13.9059 1.48265 13.9393C1.44809 13.9841 1.43639 14.0353 1.43819 14.1337L1.44065 14.2674L1.45901 14.1459C1.46915 14.0791 1.49471 13.9916 1.51589 13.9515C1.53707 13.9114 1.55477 13.8621 1.55525 13.8421C1.55573 13.822 1.58273 13.751 1.61519 13.6841C1.64765 13.6173 1.67429 13.5481 1.67441 13.5305C1.67465 13.4942 1.77161 13.3196 1.87235 13.1737C1.9093 13.1203 1.9771 13.0207 2.02306 12.9525C2.09734 12.8423 2.21398 12.7229 2.43621 12.5297C2.69619 12.3036 2.87366 12.1587 2.9858 12.0809C3.074 12.0196 3.61585 11.4702 3.67879 11.3783C3.70507 11.3398 3.74851 11.2796 3.77526 11.2446C3.822 11.1833 3.8661 11.1154 4.01418 10.877C4.05156 10.8168 4.10202 10.738 4.12638 10.7017C4.15068 10.6655 4.1706 10.6233 4.1706 10.6079C4.1706 10.5924 4.19148 10.54 4.21698 10.4914C4.28357 10.3646 4.38011 10.1237 4.39853 10.0385C4.40723 9.99839 4.42913 9.93277 4.44731 9.89266C4.46543 9.85256 4.49639 9.73772 4.51601 9.63747C4.53563 9.53721 4.56443 9.41144 4.57997 9.35797C4.59905 9.29217 4.61423 8.81295 4.62695 7.87541C4.63733 7.11348 4.65713 6.40258 4.67099 6.29564C4.68485 6.1887 4.70698 6.01857 4.72018 5.91759C4.73338 5.8166 4.75642 5.70177 4.77136 5.66239C4.7863 5.62302 4.8082 5.53152 4.81996 5.45903C4.83178 5.3866 4.86196 5.27176 4.88716 5.20383C4.93708 5.06901 4.97242 4.96869 5.029 4.80093C5.04928 4.74078 5.07862 4.67516 5.09428 4.65511C5.10988 4.63506 5.13706 4.58037 5.15458 4.53359C5.17209 4.4868 5.19963 4.43212 5.21571 4.41206C5.23173 4.39201 5.25303 4.34827 5.26305 4.31485C5.27301 4.28143 5.30127 4.22802 5.32587 4.19612C5.35047 4.16422 5.37057 4.12752 5.37057 4.11458C5.37057 4.10158 5.39757 4.0585 5.43057 4.01876C5.46357 3.97902 5.49057 3.93187 5.49057 3.91401C5.49057 3.89609 5.49951 3.8778 5.51043 3.8733C5.52135 3.86887 5.57967 3.78866 5.64003 3.69509C5.70038 3.60152 5.78084 3.49215 5.81876 3.45205C5.85668 3.41195 5.94644 3.30805 6.0182 3.22116C6.18493 3.01925 6.22285 2.98267 6.66654 2.59654C6.74544 2.52788 6.85236 2.44926 6.96654 2.37592C7.03254 2.33357 7.09733 2.28994 7.11053 2.27901C7.19915 2.20561 7.36517 2.10317 7.39541 2.10317C7.41539 2.10317 7.43675 2.0949 7.44293 2.08475C7.44911 2.07461 7.53886 2.02399 7.64236 1.97229C7.74586 1.92058 7.86832 1.85897 7.91452 1.83539C7.96072 1.81182 8.03631 1.78435 8.08251 1.77445C8.12871 1.76449 8.20971 1.73684 8.26251 1.71296C8.43129 1.63659 8.66912 1.56902 8.85242 1.54532C8.95033 1.53268 9.07909 1.50431 9.13849 1.48237C9.31759 1.41615 10.5965 1.42168 10.8425 1.48973C10.9415 1.51713 11.0818 1.54605 11.1544 1.55395C11.227 1.56191 11.3944 1.6073 11.5264 1.65493C11.6584 1.70251 11.815 1.7558 11.8744 1.7733C11.9338 1.79086 12.0148 1.82245 12.0544 1.84347C12.094 1.8645 12.2506 1.94318 12.4024 2.01828C13.0883 2.35763 13.8907 3.04562 14.2801 3.62819C14.3316 3.70506 14.3837 3.77165 14.396 3.77608C14.4083 3.78058 14.4184 3.79595 14.4184 3.81029C14.4184 3.82457 14.4454 3.87215 14.4784 3.91602C14.5114 3.95982 14.5384 4.00564 14.5384 4.01779C14.5384 4.03 14.5583 4.05826 14.5827 4.08055C14.6071 4.10291 14.6399 4.16477 14.6557 4.218C14.6714 4.27128 14.6938 4.31485 14.7055 4.31485C14.7171 4.31485 14.7399 4.35586 14.756 4.40599C14.7721 4.45612 14.8054 4.5232 14.8298 4.55509C14.8543 4.58699 14.8747 4.63074 14.8751 4.65231C14.8756 4.67388 14.8915 4.7124 14.9105 4.73786C14.9296 4.76338 14.9626 4.84541 14.984 4.92014C15.0054 4.99494 15.0317 5.06706 15.0425 5.08043C15.0533 5.0938 15.0701 5.14848 15.0799 5.20195C15.0896 5.25542 15.1176 5.34656 15.142 5.40447C15.1664 5.46237 15.1864 5.54543 15.1864 5.58893C15.1864 5.6325 15.2065 5.74916 15.2311 5.8482C15.308 6.1579 15.311 6.21307 15.3312 7.66883C15.3463 8.75681 15.3592 9.13054 15.386 9.26075L15.421 9.43088L15.4229 9.30936C15.424 9.24253 15.4092 9.0566 15.3901 8.89619C15.3661 8.69416 15.3549 8.33203 15.3538 7.71744C15.3517 6.57654 15.3255 5.95064 15.2755 5.84905C15.255 5.80749 15.2309 5.69958 15.2221 5.60923C15.2132 5.51888 15.187 5.40671 15.1638 5.35993C15.1406 5.31314 15.1138 5.23112 15.1043 5.17765C15.0947 5.12418 15.0722 5.0574 15.0544 5.02927C15.0365 5.0012 15.0141 4.93643 15.0047 4.88539C14.9896 4.80373 14.8815 4.56676 14.8279 4.49768C14.8173 4.484 14.7959 4.43266 14.7803 4.38363C14.7647 4.33459 14.7373 4.28216 14.7195 4.26721C14.7017 4.2522 14.6797 4.2104 14.6708 4.17431C14.6619 4.13822 14.6388 4.09216 14.6195 4.07199C14.6002 4.05182 14.526 3.94239 14.4546 3.82876C14.2383 3.48462 14.0561 3.26339 13.7104 2.92519C13.421 2.64211 13.2314 2.48024 13.0828 2.38941C12.9659 2.31795 12.9211 2.28733 12.8507 2.23076C12.8134 2.20069 12.7673 2.17608 12.7486 2.17608C12.7298 2.17608 12.7144 2.16617 12.7144 2.15414C12.7144 2.12905 12.3907 1.95734 12.3434 1.95734C12.3263 1.95734 12.2993 1.94148 12.2834 1.9221C12.2675 1.90278 12.2152 1.87379 12.1672 1.85769C12.1191 1.84165 12.0662 1.81473 12.0496 1.7979C12.0329 1.78107 11.9741 1.75963 11.9189 1.75015C11.8636 1.74067 11.7852 1.71241 11.7444 1.68726C11.7037 1.6621 11.6393 1.64151 11.6013 1.64145C11.5632 1.64145 11.4984 1.62054 11.4573 1.59502C11.4145 1.56853 11.3103 1.54125 11.2144 1.53135C11.122 1.52187 11.0087 1.49793 10.9625 1.47812C10.808 1.41201 10.0081 1.38461 9.36649 1.4235ZM3.38413 5.68804C3.36733 5.76824 3.34237 5.89401 3.32863 5.96753C3.31483 6.0413 3.29485 6.72728 3.284 7.4987C3.2633 8.96764 3.23588 9.32631 3.12776 9.538C3.10736 9.57798 3.09062 9.63054 3.09062 9.65466C3.09062 9.67885 3.06362 9.75 3.03062 9.81276C2.99762 9.87553 2.97062 9.93744 2.97062 9.95026C2.97062 9.97232 2.74917 10.321 2.69547 10.3834C2.68179 10.3993 2.64363 10.453 2.61063 10.5027C2.53251 10.6204 2.39865 10.7589 2.19064 10.9373C2.09824 11.0164 2.00416 11.0982 1.9816 11.1189C1.93384 11.1626 1.88728 11.1993 1.67465 11.3609C1.386 11.5802 0.786669 12.2359 0.786669 12.3324C0.786669 12.344 0.771249 12.3665 0.752469 12.3823C0.73363 12.3982 0.69721 12.4515 0.671471 12.5007C0.503055 12.8235 0.374777 13.0884 0.351498 13.1616C0.336618 13.2084 0.315379 13.2583 0.304339 13.2725C0.293239 13.2867 0.26834 13.3633 0.2489 13.4427C0.22946 13.522 0.197181 13.6306 0.177202 13.6841C0.157162 13.7376 0.140302 13.8235 0.139762 13.875C0.139162 13.9266 0.120083 14.036 0.0973432 14.1181C0.062244 14.2449 0.0559443 14.3848 0.0553443 15.0458C0.0546243 15.8669 0.0509643 15.8322 0.165502 16.0902C0.327798 16.4559 0.747909 16.7551 1.12266 16.7719L1.27866 16.7789L1.14666 16.7582C1.07406 16.7469 0.971465 16.7209 0.918666 16.7006C0.865867 16.6802 0.808028 16.663 0.790148 16.6625C0.772269 16.6619 0.72709 16.6368 0.689771 16.6067C0.652511 16.5766 0.582793 16.5247 0.534914 16.4913C0.407417 16.4023 0.385757 16.3779 0.25166 16.1728C0.202761 16.0979 0.162682 16.0241 0.162682 16.0088C0.162682 15.9936 0.139942 15.9146 0.112223 15.8334C0.0548042 15.6653 0.0530043 14.4222 0.110003 14.2674C0.124763 14.2273 0.147262 14.0961 0.159982 13.9758C0.172702 13.8555 0.199821 13.7245 0.220221 13.6848C0.24062 13.645 0.26456 13.5638 0.27338 13.5041C0.282199 13.4445 0.308299 13.3623 0.331398 13.3212C0.354498 13.2802 0.380237 13.2067 0.388637 13.1579C0.397037 13.1091 0.419176 13.0565 0.437776 13.0408C0.456376 13.0252 0.478815 12.9792 0.487635 12.9385C0.496395 12.8979 0.529514 12.8261 0.561134 12.7788C0.592813 12.7316 0.618672 12.6781 0.618672 12.6599C0.618672 12.6418 0.627312 12.6269 0.637872 12.6269C0.648432 12.6269 0.680831 12.5804 0.70975 12.5236C0.782529 12.3809 0.806348 12.3445 0.936365 12.1774C0.998884 12.0972 1.06908 12.0055 1.09236 11.974C1.12758 11.926 1.27512 11.7742 1.59149 11.4602C1.61837 11.4335 1.64921 11.4117 1.66001 11.4117C1.67087 11.4117 1.71365 11.3835 1.75517 11.349C1.79669 11.3145 1.86041 11.2626 1.89676 11.2335C1.93312 11.2045 2.0122 11.1343 2.0725 11.0775C2.13274 11.0207 2.19022 10.9742 2.20012 10.9742C2.25154 10.9742 2.68155 10.5079 2.68233 10.4514C2.68251 10.4379 2.70423 10.4133 2.73063 10.3966C2.75703 10.3798 2.77863 10.3512 2.77863 10.3329C2.77863 10.3146 2.79651 10.2846 2.81834 10.2663C2.84018 10.2479 2.8727 10.1974 2.89064 10.1539C2.90858 10.1105 2.93348 10.0749 2.94596 10.0749C2.9585 10.0749 2.98226 10.0285 2.99882 9.97165C3.01532 9.91484 3.04238 9.85432 3.05882 9.83719C3.07526 9.82005 3.0962 9.76537 3.10532 9.71567C3.1145 9.66597 3.1409 9.58704 3.164 9.54025C3.18716 9.49347 3.21332 9.38957 3.22214 9.30936C3.23102 9.22916 3.25364 9.11669 3.27242 9.05939C3.29971 8.97627 3.30697 8.7483 3.30841 7.92925C3.31075 6.63499 3.33487 6.01973 3.38935 5.86649C3.41149 5.80427 3.42619 5.70584 3.42211 5.64775L3.41461 5.54221L3.38413 5.68804ZM15.428 9.5188C15.4271 9.56711 15.4466 9.66007 15.4712 9.72539C15.496 9.79065 15.5275 9.8878 15.5414 9.94127C15.5836 10.104 15.662 10.3157 15.7012 10.3724C15.7217 10.4019 15.7383 10.444 15.7383 10.4659C15.7383 10.4879 15.7583 10.5319 15.7827 10.5638C15.807 10.5957 15.8336 10.6491 15.8417 10.6825C15.8498 10.716 15.873 10.7652 15.8934 10.7919C15.9584 10.8771 16.0734 11.0587 16.0739 11.0768C16.0767 11.1908 16.9955 12.164 17.1016 12.1653C17.1108 12.1654 17.1561 12.2013 17.2023 12.2449C17.2485 12.2885 17.3997 12.4213 17.5383 12.5399C17.6769 12.6585 17.8002 12.7731 17.8123 12.7945C17.8243 12.8159 17.8409 12.8389 17.8492 12.8456C17.8574 12.8523 17.9117 12.9289 17.9698 13.0158C18.0279 13.1026 18.1085 13.2229 18.1488 13.2831C18.2652 13.4567 18.3959 13.7618 18.4507 13.9879C18.5502 14.3989 18.5583 14.4687 18.5583 14.9236V15.3854L10.0283 15.3916C2.25274 15.3971 1.49315 15.3942 1.43987 15.3589L1.38144 15.3201L1.39554 14.976C1.40334 14.7868 1.41462 14.55 1.42067 14.4497C1.43153 14.2693 1.43141 14.2689 1.41108 14.4132C1.39974 14.4934 1.3788 14.5899 1.36458 14.6275C1.30494 14.785 1.33188 15.34 1.4019 15.3958L1.46513 15.4462H10.0049H18.5446L18.5712 15.3957C18.6037 15.3343 18.6021 14.4843 18.5693 14.3403C18.5571 14.2869 18.528 14.1544 18.5047 14.046C18.4814 13.9376 18.4493 13.8333 18.4336 13.8141C18.4177 13.7951 18.3944 13.7326 18.3817 13.6754C18.369 13.6181 18.3415 13.552 18.3205 13.5286C18.2995 13.5051 18.2821 13.4703 18.2819 13.4513C18.2814 13.4156 18.1699 13.2301 18.1039 13.1555C18.0832 13.1321 18.0663 13.1048 18.0663 13.0947C18.0662 13.0847 18.0392 13.0447 18.0063 13.0059C17.9733 12.9671 17.9463 12.9275 17.9463 12.9181C17.9463 12.8681 17.6367 12.5595 17.3986 12.3723C17.3812 12.3586 17.3442 12.3228 17.3163 12.2927C17.2885 12.2626 17.2518 12.238 17.2348 12.238C17.2179 12.238 17.1924 12.2161 17.1783 12.1894C17.1642 12.1627 17.1365 12.1408 17.1167 12.1408C17.097 12.1408 17.0745 12.124 17.0667 12.1034C17.0589 12.0829 17.0241 12.0511 16.9894 12.0327C16.9032 11.9871 16.4667 11.5503 16.3508 11.3934C16.2989 11.3233 16.2492 11.2659 16.2403 11.2659C16.2314 11.2659 16.2107 11.233 16.1943 11.1929C16.178 11.1528 16.1564 11.12 16.1463 11.12C16.1363 11.12 16.1151 11.088 16.0991 11.0489C16.083 11.0097 16.0493 10.9588 16.0241 10.9357C15.999 10.9126 15.9783 10.8753 15.9783 10.8527C15.9783 10.8301 15.9573 10.7923 15.9317 10.7689C15.906 10.7454 15.8784 10.6952 15.8702 10.6574C15.8619 10.6196 15.8397 10.5757 15.8208 10.5598C15.8018 10.5438 15.7863 10.5178 15.7863 10.5021C15.7863 10.4863 15.7601 10.4193 15.7281 10.3532C15.6961 10.287 15.6572 10.1837 15.6416 10.1236C15.6261 10.0634 15.6053 10.0087 15.5954 10.002C15.5855 9.99535 15.5602 9.91879 15.5392 9.8319C15.4597 9.50222 15.4298 9.41837 15.428 9.5188ZM7.8427 18.921C7.75246 18.9789 7.91296 19.6768 8.07759 19.9425C8.10663 19.9892 8.13039 20.0356 8.13045 20.0454C8.13069 20.0971 8.48024 20.4815 8.6705 20.6392C8.81066 20.7554 9.23269 20.9875 9.30373 20.9875C9.33067 20.9875 9.40981 21.0084 9.47958 21.0339C9.55764 21.0624 9.69888 21.0849 9.84647 21.0924L10.0865 21.1046L9.85548 21.0737C9.7284 21.0567 9.61422 21.0363 9.60168 21.0285C9.5892 21.0207 9.5022 20.998 9.40836 20.9782C9.31453 20.9584 9.21277 20.9262 9.18217 20.9067C9.15151 20.8871 9.10111 20.8634 9.07015 20.854C9.03913 20.8446 8.99323 20.8161 8.96815 20.7907C8.94302 20.7653 8.90102 20.7445 8.87468 20.7445C8.8484 20.7445 8.81342 20.7226 8.79692 20.6959C8.78042 20.6691 8.75642 20.6473 8.74358 20.6473C8.73074 20.6473 8.69822 20.6264 8.67134 20.6009C8.53586 20.4724 8.35251 20.2817 8.30439 20.2192C8.27463 20.1806 8.22333 20.1146 8.19039 20.0726C8.15745 20.0306 8.13051 19.9856 8.13051 19.9726C8.13051 19.9596 8.10993 19.9225 8.08485 19.8902C8.05971 19.8578 8.02641 19.7835 8.01087 19.7251C7.99533 19.6666 7.96738 19.5952 7.94878 19.5665C7.93018 19.5377 7.90372 19.4 7.89004 19.2604C7.87636 19.1209 7.86076 18.994 7.85536 18.9784C7.83658 18.9241 7.93024 18.9217 10.0165 18.9217H12.1144L12.1133 19.0979C12.1128 19.1953 12.0958 19.3176 12.0755 19.3713C12.0552 19.4248 12.0278 19.5232 12.0145 19.59C12.0013 19.6569 11.9762 19.728 11.9588 19.748C11.9415 19.7681 11.9095 19.8228 11.8879 19.8695C11.825 20.006 11.7762 20.0903 11.7339 20.1359C11.7122 20.1594 11.6674 20.2145 11.6344 20.2584C11.5528 20.3671 11.4208 20.501 11.3229 20.5744C11.2783 20.6078 11.2141 20.6574 11.1802 20.6847C11.1462 20.7119 11.0914 20.7474 11.0584 20.7635C11.0254 20.7796 10.9823 20.8032 10.9625 20.8159C10.8564 20.8842 10.6633 20.9619 10.5618 20.977C10.4984 20.9864 10.4195 21.0048 10.3865 21.0177C10.3535 21.0307 10.2725 21.0498 10.2065 21.06L10.0865 21.0787L10.2193 21.0817C10.2979 21.0835 10.4079 21.0649 10.4887 21.0361C10.5638 21.0094 10.6422 20.9875 10.6629 20.9875C10.7471 20.9875 11.2506 20.7039 11.3584 20.5957C11.3848 20.5693 11.4444 20.5126 11.4908 20.4698C11.6513 20.322 11.7975 20.1245 11.9172 19.8938C11.9415 19.8471 11.9728 19.7869 11.9869 19.7602C12.0715 19.5994 12.1404 19.2908 12.1335 19.1032L12.1264 18.9095L10.0025 18.9038C8.69594 18.9002 7.86472 18.9069 7.8427 18.921Z" fill="#878A8C"/>
</svg>
