<svg width="18" height="19" viewBox="0 0 18 19" fill="none" xmlns="http://www.w3.org/2000/svg">
<path fill-rule="evenodd" clip-rule="evenodd" d="M3.13601 0.0146306C1.84652 0.158199 0.631457 1.13672 0.197371 2.38115C0.144851 2.53166 0.13465 2.56902 0.0534521 2.90541L0 3.12692V7.49868V11.8704L0.0533938 12.1036C0.397539 13.6067 1.39459 14.6154 2.87953 14.9627C3.09218 15.0125 3.156 15.015 4.47919 15.0246C5.23714 15.0301 5.87192 15.0436 5.88981 15.0546C5.91686 15.0713 5.9242 15.3486 5.93394 16.7251L5.9456 18.3756L6.03886 18.514C6.20161 18.7556 6.42462 18.8689 6.69492 18.8474C6.95786 18.8266 6.82793 18.9303 8.90674 17.0818C9.40687 16.6371 10.1129 16.0092 10.4758 15.6863C10.8386 15.3635 11.1586 15.0845 11.1869 15.0663C11.23 15.0384 11.535 15.0316 13.0687 15.0244C15.0541 15.015 15.0394 15.016 15.4469 14.8762C15.5046 14.8565 15.599 14.8266 15.6567 14.81C15.7917 14.7711 16.2582 14.5293 16.4335 14.4074C17.2228 13.8586 17.7221 13.106 17.9465 12.1269L18 11.8938V7.51034V3.12692L17.9465 2.89376C17.8818 2.61117 17.7855 2.29733 17.7248 2.17096C17.7002 2.11966 17.6575 2.0306 17.6301 1.973C17.19 1.04841 16.2789 0.342629 15.1554 0.0560749L14.9456 0.00256454L9.11658 0.000174618C5.91062 -0.00116606 3.21937 0.00536251 3.13601 0.0146306ZM14.6335 1.22759C14.7025 1.24088 14.834 1.26146 14.9257 1.27329C15.0173 1.28518 15.1432 1.31747 15.2055 1.3451C15.2677 1.37279 15.3501 1.40963 15.3886 1.427C15.4271 1.44437 15.4875 1.46914 15.523 1.48203C15.5874 1.50552 15.9653 1.77896 16.0781 1.88376C16.2114 2.00763 16.4726 2.38891 16.5543 2.57899C16.6013 2.68799 16.6536 2.80865 16.6705 2.84712C16.795 3.12884 16.7995 3.29176 16.7993 7.52374C16.7992 11.6384 16.803 11.4568 16.7078 12.0103C16.5966 12.657 15.954 13.3873 15.2604 13.6551C14.8727 13.8047 14.9528 13.7996 12.7398 13.815L10.7206 13.829L10.4315 14.0848C10.2726 14.2254 10.0218 14.4471 9.87435 14.5774C9.72688 14.7077 9.40617 14.9913 9.1617 15.2076C8.91723 15.424 8.4614 15.8266 8.14873 16.1023C7.83612 16.378 7.50626 16.6691 7.41579 16.7492C7.31938 16.8344 7.22979 16.8948 7.19936 16.8949L7.14736 16.8951L7.14107 15.3814C7.13757 14.5489 7.12597 13.8591 7.1153 13.8484C7.10464 13.8377 6.23903 13.8232 5.19173 13.8162C3.47485 13.8047 3.2692 13.7993 3.10104 13.7616C2.74611 13.682 2.49633 13.5661 2.19171 13.3396C1.91431 13.1332 1.89804 13.1173 1.71466 12.873C1.52271 12.6173 1.54545 12.6581 1.36411 12.2435C1.33391 12.1745 1.29025 11.9745 1.25714 11.7539L1.20124 11.3808L1.20148 7.49868C1.20165 5.06349 1.21028 3.56007 1.22473 3.465C1.23738 3.38164 1.25866 3.22951 1.27201 3.12692C1.28536 3.02433 1.31625 2.89317 1.34067 2.83547C1.3651 2.77776 1.41849 2.65209 1.45935 2.5562C1.5314 2.38692 1.79948 2.00565 1.93844 1.87484C2.03934 1.77983 2.44446 1.48418 2.47453 1.4836C2.50321 1.48308 2.73672 1.38392 2.83733 1.32954C2.87178 1.31089 2.98655 1.28477 3.09235 1.27154C3.19815 1.25825 3.32207 1.23855 3.36771 1.22771C3.49321 1.19798 14.4792 1.1978 14.6335 1.22759Z" fill="#878A8C"/>
</svg>
