<svg width="19" height="19" viewBox="0 0 19 19" fill="none" xmlns="http://www.w3.org/2000/svg">
<path fill-rule="evenodd" clip-rule="evenodd" d="M5.15265 0.0256635C4.47841 0.0958191 3.653 0.576578 3.31763 1.09446C3.11528 1.40695 3.07711 1.46969 3.02335 1.57889C2.68279 2.26994 2.69341 3.19253 3.05003 3.89899C3.17843 4.15329 3.19302 4.14465 2.60791 4.16099C1.68765 4.18667 1.19114 4.51066 0.929949 5.25594L0.868607 5.43103V11.1859C0.868607 16.7152 0.870299 16.9458 0.911622 17.0692C1.08584 17.5891 1.45431 17.9733 1.94254 18.1443L2.10596 18.2015H9.86861H17.6313L17.7872 18.1476C18.2879 17.9745 18.6363 17.625 18.8153 17.1159L18.8686 16.9641V11.1976V5.43103L18.8116 5.25594C18.5789 4.54183 18.0466 4.18481 17.1877 4.16666C16.5335 4.15282 16.5585 4.16695 16.6955 3.88878C17.8018 1.64304 15.3865 -0.834181 13.1695 0.272376C12.64 0.536656 12.4323 0.721091 11.7772 1.50885C11.5209 1.81703 11.223 2.17422 11.1152 2.30263C11.0075 2.43103 10.696 2.80399 10.423 3.13142C10.1008 3.5178 9.90917 3.72926 9.87684 3.73387C9.83761 3.73948 9.76612 3.66763 9.54006 3.39535C9.38219 3.20525 9.20505 2.99321 9.14645 2.92417C9.08779 2.85512 8.9295 2.66537 8.79468 2.50253C7.50993 0.950469 7.02112 0.423251 6.86686 0.423251C6.86061 0.423251 6.78112 0.381111 6.69012 0.329574C6.24783 0.0788931 5.6937 -0.0306011 5.15265 0.0256635ZM5.72137 1.27545C6.22775 1.36376 6.32108 1.44535 7.3601 2.70862C7.56485 2.95755 7.89806 3.36203 8.10059 3.60745C8.34648 3.90547 8.46666 4.06913 8.46246 4.10029C8.45621 4.14646 8.43847 4.14699 6.85693 4.14699H5.25771L5.06382 4.09294C3.30129 3.60191 3.91763 0.960916 5.72137 1.27545ZM14.6202 1.2835C16.0587 1.59652 16.1099 3.67259 14.6896 4.09562C14.5089 4.14944 11.3719 4.1879 11.2941 4.13724C11.232 4.09685 11.1844 4.15953 12.2966 2.81508C12.4956 2.5745 12.69 2.33864 12.7285 2.29101C13.4906 1.348 13.9042 1.12773 14.6202 1.2835ZM17.4583 5.42625C17.5314 5.46424 17.5764 5.50965 17.6137 5.5829L17.6663 5.68609L17.6659 11.1967L17.6655 16.7073L17.6129 16.8002C17.5834 16.8523 17.5194 16.9162 17.4674 16.9457L17.3744 16.9984H9.86861H2.36277L2.27114 16.9462C2.214 16.9137 2.15907 16.8553 2.12522 16.7912L2.07094 16.6883V11.1931V5.69794L2.1268 5.58769C2.16783 5.50679 2.20973 5.4636 2.28438 5.42537L2.38612 5.37331L9.87077 5.37302L17.3554 5.37267L17.4583 5.42625ZM9.28962 7.26839C9.26837 7.28963 9.2616 7.68605 9.2616 8.90963C9.2616 10.1332 9.25483 10.5296 9.23359 10.5509C9.21234 10.5721 8.81592 10.5789 7.59234 10.5789C6.36876 10.5789 5.97234 10.5857 5.9511 10.6069C5.91129 10.6467 5.91129 11.7251 5.9511 11.7649C5.97234 11.7861 6.36684 11.7929 7.58364 11.7929C9.01121 11.7929 9.19226 11.7969 9.22489 11.8296C9.25757 11.8622 9.2616 12.0435 9.2616 13.4727C9.2616 14.8067 9.26703 15.0835 9.2937 15.1056C9.31623 15.1244 9.49466 15.1304 9.89487 15.126L10.4639 15.1197L10.4756 13.4788C10.4858 12.0542 10.4919 11.835 10.5223 11.8157C10.5435 11.8024 11.1965 11.7935 12.1746 11.7932L13.792 11.7929L13.8162 11.7289C13.8569 11.6221 13.8344 10.6293 13.7908 10.6017C13.7697 10.5883 13.1205 10.5795 12.1524 10.5792C10.7262 10.5789 10.5449 10.5749 10.5123 10.5422C10.4796 10.5096 10.4756 10.3285 10.4756 8.90093C10.4756 7.68413 10.4688 7.28963 10.4476 7.26839C10.4078 7.22858 9.32942 7.22858 9.28962 7.26839Z" fill="#878A8C"/>
</svg>
