<svg width="27" height="31" viewBox="0 0 27 31" fill="none" xmlns="http://www.w3.org/2000/svg">
<path fill-rule="evenodd" clip-rule="evenodd" d="M13.2034 0.0864767C13.0223 0.166098 12.8827 0.239836 12.5444 0.434457C12.4581 0.484113 12.3452 0.546633 12.2934 0.573383C12.1953 0.624058 12.0502 0.709563 11.8016 0.863157C11.721 0.91297 11.5411 1.02279 11.4018 1.10712C11.2626 1.19145 11.1327 1.2797 11.1131 1.30323C11.0937 1.32677 11.065 1.34598 11.0494 1.34598C11.0338 1.34598 10.9402 1.40278 10.8414 1.4722C10.7426 1.54163 10.5011 1.70754 10.3047 1.84089C9.89983 2.11576 9.87465 2.13357 9.49505 2.41126C9.16072 2.65577 8.7219 3.0007 8.33768 3.32099C8.18118 3.45144 8.00539 3.59342 7.94703 3.63657C7.71114 3.81087 7.25852 4.19337 7.02193 4.41835C6.88387 4.54966 6.57424 4.84046 6.33381 5.06457C5.77246 5.58804 5.5969 5.76336 5.3276 6.06969C5.2068 6.20696 5.0572 6.37586 4.99515 6.44489C4.66608 6.81091 4.50362 6.9889 4.41058 7.08523C4.35387 7.14406 4.26452 7.24996 4.21212 7.32056C4.15964 7.39116 4.0368 7.55488 3.93913 7.68431C3.33848 8.48013 2.97701 8.98085 2.77023 9.30341C2.64079 9.50541 2.50438 9.71674 2.46704 9.77306C2.40483 9.86696 2.24433 10.1537 2.05552 10.5083C2.01418 10.586 1.94115 10.7201 1.89314 10.8064C1.75366 11.0574 1.60187 11.3686 1.38795 11.8419C1.1898 12.2803 1.1276 12.4347 0.99581 12.8146C0.965923 12.9009 0.920738 13.0209 0.895479 13.0813C0.831468 13.2341 0.676854 13.711 0.622256 13.9238C0.597311 14.0213 0.533379 14.2564 0.480272 14.4462C0.427164 14.6361 0.369037 14.8761 0.351152 14.9797C0.333266 15.0832 0.290279 15.2929 0.255606 15.4457C0.220933 15.5985 0.178966 15.8597 0.162414 16.0262C0.145784 16.1927 0.109856 16.4489 0.0824788 16.5956C-0.0853144 17.4962 0.0148594 19.6122 0.274903 20.6591C0.300633 20.7626 0.344876 20.9532 0.373195 21.0827C0.401592 21.2121 0.456817 21.4098 0.496039 21.522C0.647751 21.9561 0.694269 22.0798 0.727294 22.1371C0.746199 22.1698 0.781656 22.2531 0.806209 22.3221C0.967177 22.7749 1.02758 22.8987 1.43949 23.6193C1.47558 23.6825 1.54022 23.7976 1.58328 23.8753C1.80363 24.2733 1.82764 24.3085 2.34545 24.9942C2.87927 25.7012 3.849 26.6826 4.49515 27.17C4.55233 27.2131 4.71181 27.3371 4.84948 27.4454C4.98723 27.5538 5.17934 27.6933 5.27646 27.7556C5.37357 27.8178 5.48881 27.8932 5.53242 27.9231C5.57611 27.953 5.66789 28.0085 5.73638 28.0465C5.80494 28.0844 5.91743 28.1493 5.98646 28.1907C6.26815 28.3594 6.35687 28.4117 6.44191 28.4593C6.49101 28.4867 6.56389 28.5303 6.60397 28.5562C6.64398 28.5821 6.87445 28.6919 7.11606 28.8001C7.35767 28.9085 7.63301 29.0318 7.72793 29.0743C7.82285 29.1168 7.95699 29.1774 8.02602 29.2091C8.18228 29.2804 8.50861 29.3955 8.85753 29.502C9.00422 29.5468 9.19484 29.6064 9.28113 29.6342C9.61044 29.7407 9.97804 29.8421 10.144 29.8724C10.3664 29.913 10.8063 29.9917 11.0069 30.0268C12.6652 30.3173 14.5283 30.3008 16.2784 29.9802C16.5027 29.9391 16.771 29.891 16.8746 29.8733C17.111 29.833 17.5157 29.7237 17.5889 29.6804C17.6193 29.6625 17.7382 29.6259 17.853 29.5993C17.9678 29.5726 18.0987 29.5318 18.1438 29.5084C18.189 29.485 18.282 29.4558 18.3504 29.4434C18.4827 29.4194 18.8006 29.3065 19.0083 29.2097C19.3855 29.0339 19.5558 28.9585 19.5758 28.9585C19.5968 28.9585 19.6604 28.9299 20.0913 28.7265C20.1864 28.6815 20.2733 28.6447 20.2843 28.6447C20.2952 28.6447 20.3938 28.5887 20.5034 28.5202C20.613 28.4518 20.8015 28.3379 20.9223 28.2673C21.3258 28.0313 21.3872 27.9939 21.7381 27.769C21.8673 27.6863 22.1025 27.5136 22.1304 27.4812C22.139 27.471 22.2731 27.3668 22.4285 27.2495C22.9085 26.8869 23.037 26.7716 23.6527 26.1514C24.1632 25.6372 24.4633 25.2938 24.672 24.9849C24.6979 24.9465 24.8038 24.8049 24.9073 24.67C25.1656 24.3336 25.2722 24.1701 25.4668 23.8125C25.54 23.6779 25.6219 23.5323 25.7405 23.3262C25.9906 22.8911 26.0488 22.7662 26.2091 22.3221C26.2402 22.2358 26.2882 22.1228 26.3159 22.0711C26.3434 22.0193 26.3661 21.9555 26.3662 21.9294C26.3663 21.9033 26.3938 21.8309 26.4272 21.7684C26.5126 21.609 26.5747 21.384 26.7589 20.5649C26.9691 19.6308 27.004 19.2579 26.9997 17.9919C26.9972 17.3017 26.9832 16.9669 26.9469 16.7368C26.9197 16.5642 26.8774 16.2465 26.8532 16.0308C26.8289 15.8151 26.7878 15.5695 26.7619 15.4849C26.7361 15.4004 26.7061 15.2522 26.6954 15.1555C26.6742 14.9652 26.5676 14.5325 26.4433 14.1325C26.4004 13.9944 26.3655 13.8601 26.3658 13.834C26.3661 13.8079 26.309 13.6244 26.2387 13.4261C26.1685 13.2278 26.0906 13.0024 26.0655 12.9252C26.0404 12.8479 25.992 12.727 25.9578 12.6564C25.9236 12.5858 25.8957 12.5027 25.8957 12.4716C25.8957 12.4406 25.8689 12.3639 25.8362 12.3011C25.8034 12.2384 25.7402 12.1057 25.6955 12.0064C25.4086 11.367 25.2193 10.9796 25.0172 10.6181C24.9304 10.4628 24.8307 10.2793 24.7957 10.2102C24.7313 10.0832 24.6429 9.93395 24.5336 9.76788C24.4775 9.68261 24.4383 9.62048 24.2536 9.32381C24.1467 9.15225 23.8343 8.69076 23.7365 8.55999C22.8546 7.38073 22.7667 7.27185 22.0537 6.47462C21.3485 5.68609 20.1771 4.54323 19.5251 4.00769C18.1888 2.90986 17.8744 2.66205 17.3609 2.30207C17.3005 2.25971 17.1523 2.15428 17.0315 2.06767C16.6182 1.77155 15.4961 1.03221 15.4599 1.03221C15.4491 1.03221 15.3983 0.996905 15.347 0.953761C15.2957 0.910616 15.2354 0.875316 15.213 0.875316C15.1905 0.875316 15.1556 0.855391 15.1354 0.830916C15.1151 0.80652 15.0392 0.756629 14.9668 0.720074C14.8943 0.683519 14.7644 0.613154 14.6781 0.563734C14.5918 0.514314 14.4648 0.44442 14.3957 0.408414C14.3267 0.372486 14.1804 0.293178 14.0707 0.232227C13.9609 0.171275 13.8089 0.105774 13.7328 0.0866335C13.6568 0.0674145 13.5869 0.0394099 13.5775 0.0242701C13.5477 -0.0238949 13.3975 0.00105044 13.2034 0.0864767ZM13.6518 2.21962C13.732 2.27422 13.8783 2.36741 14.129 2.52344C14.1894 2.56101 14.3447 2.66095 14.4742 2.74552C14.6036 2.83 14.7325 2.90868 14.7606 2.92029C14.7886 2.9319 14.906 3.00603 15.0214 3.08502C15.1368 3.16402 15.2375 3.22866 15.2453 3.22866C15.2575 3.22866 15.4271 3.34405 15.7294 3.55812C15.7781 3.59264 15.9281 3.7056 16.0626 3.80915C16.1972 3.91269 16.3431 4.02134 16.387 4.05052C16.4308 4.07978 16.5867 4.19549 16.7334 4.30774C16.8801 4.41992 17.0903 4.57955 17.2006 4.66247C17.4005 4.81285 18.0215 5.32415 18.0512 5.3629C18.0642 5.37977 18.5297 5.78125 18.8322 6.0365C19.0997 6.26219 20.424 7.61614 20.72 7.96671C20.9168 8.19969 21.0993 8.41149 21.1256 8.43738C21.2665 8.57623 21.5661 8.96594 22.0519 9.64253C22.1727 9.81071 22.3386 10.0395 22.4204 10.1511C22.5023 10.2626 22.591 10.3921 22.6177 10.4389C22.6443 10.4857 22.7069 10.5875 22.7569 10.6652C22.8442 10.8008 23.0042 11.0654 23.0987 11.23C23.1605 11.3379 23.3029 11.6026 23.47 11.9203C23.5471 12.067 23.6225 12.2082 23.6374 12.2341C23.6524 12.26 23.7164 12.4012 23.7796 12.5479C23.8427 12.6946 23.926 12.8852 23.9648 12.9715C24.0675 13.2004 24.1528 13.4131 24.2419 13.6618C24.2851 13.7826 24.3566 13.9803 24.4008 14.1011C24.4449 14.2219 24.4898 14.3702 24.5006 14.4306C24.5113 14.491 24.5472 14.6151 24.5804 14.7063C24.6135 14.7975 24.6406 14.8999 24.6406 14.9336C24.6406 14.9674 24.6685 15.0764 24.7027 15.1756C24.7368 15.2749 24.7796 15.4614 24.7976 15.59C24.8157 15.7187 24.8525 15.909 24.8795 16.013C24.9064 16.1171 24.9494 16.4072 24.9751 16.6578C25.0007 16.9084 25.0339 17.2263 25.0488 17.3644C25.0913 17.7572 25.0844 18.4799 25.0349 18.8158C25.0102 18.984 24.9799 19.2557 24.9678 19.4196C24.9556 19.5836 24.9123 19.8297 24.8716 19.9664C24.8308 20.1032 24.7975 20.2444 24.7975 20.2802C24.7975 20.316 24.762 20.4724 24.7186 20.6277C24.6368 20.9204 24.6212 20.967 24.4953 21.2943C24.4539 21.4021 24.3865 21.5813 24.3456 21.6926C24.2675 21.9055 24.0512 22.3498 23.871 22.6672C23.8122 22.7708 23.7363 22.912 23.7021 22.981C23.6238 23.1393 23.5399 23.2641 23.1501 23.8023C22.7285 24.3843 22.0934 25.0595 21.5969 25.4534C21.4503 25.5699 21.2455 25.7322 21.142 25.8141C21.0384 25.896 20.8902 26.0038 20.8125 26.0537C20.7348 26.1035 20.6355 26.1685 20.5919 26.198C20.5482 26.2275 20.4564 26.2822 20.388 26.3195C20.3194 26.3569 20.2017 26.422 20.1261 26.4644C19.979 26.5469 19.9339 26.5427 19.9339 26.4469C19.9339 26.3863 20.1013 26.0346 20.1722 25.9462C20.193 25.9203 20.2548 25.7791 20.3097 25.6325C20.3645 25.4858 20.4378 25.2951 20.4724 25.2089C20.5517 25.0118 20.6979 24.4625 20.7479 24.1734C20.7687 24.0526 20.7978 23.8902 20.8125 23.8125C20.9372 23.1525 20.8389 21.5005 20.6268 20.6924C20.5909 20.5554 20.5612 20.4 20.5608 20.3472C20.5605 20.2944 20.5252 20.1523 20.4825 20.0315C20.4398 19.9107 20.4044 19.7907 20.4037 19.7648C20.4031 19.7389 20.3679 19.6471 20.3254 19.5608C20.283 19.4745 20.2482 19.3806 20.248 19.3522C20.2479 19.3237 20.2126 19.2249 20.1696 19.1325C20.1266 19.0402 20.0913 18.9403 20.0911 18.9105C20.0908 18.861 19.9397 18.4953 19.8736 18.3842C19.8582 18.3583 19.7278 18.1048 19.5839 17.8209C19.3135 17.2874 19.2977 17.2604 18.9021 16.6584C18.6409 16.2608 18.6154 16.2265 18.1444 15.6386C17.8526 15.2744 17.6857 15.079 17.5085 14.8943C17.4775 14.862 17.3645 14.7405 17.2575 14.6243C16.366 13.6569 14.6517 12.3055 13.775 11.879C13.4359 11.714 13.3865 11.7057 13.2733 11.7948C13.2293 11.8293 13.1839 11.8576 13.1721 11.8576C13.1605 11.8576 13.0921 11.898 13.0202 11.9473C12.838 12.0725 12.5326 12.2751 12.4694 12.3125C12.4403 12.3298 12.3345 12.4004 12.2342 12.4694C12.1339 12.5385 12.0209 12.6161 11.9831 12.642C11.9233 12.683 11.7761 12.7932 11.6194 12.9142C10.8525 13.5065 9.75008 14.5572 9.13797 15.2791C8.51379 16.0152 8.19036 16.4571 7.85274 17.0349C7.81744 17.0953 7.74754 17.2083 7.69742 17.2859C7.55669 17.504 6.91211 18.8125 6.91211 18.8802C6.91211 18.9001 6.87539 19.012 6.83052 19.1288C6.61684 19.6852 6.48521 20.1044 6.4441 20.3593C6.42653 20.4688 6.39115 20.6234 6.36558 20.7028C6.34009 20.7823 6.29624 21.0097 6.26815 21.2082C6.24007 21.4066 6.20336 21.632 6.18649 21.709C6.1286 21.9732 6.14829 23.1292 6.21748 23.5301C6.25176 23.7286 6.28949 23.9672 6.30141 24.0605C6.31334 24.1538 6.34142 24.2739 6.36386 24.3274C6.38621 24.381 6.42081 24.5145 6.44065 24.624C6.4605 24.7334 6.50278 24.8816 6.53455 24.9532C6.56632 25.0247 6.63065 25.1892 6.6774 25.3187C6.80785 25.6798 7.04625 26.1836 7.16729 26.3541C7.25122 26.4725 7.27421 26.6006 7.21545 26.6232C7.16297 26.6434 7.15371 26.6391 6.71866 26.3915C6.27106 26.1368 6.2236 26.1056 5.97077 25.9003C5.84134 25.7951 5.65072 25.6463 5.54717 25.5694C4.86509 25.0634 3.76208 23.7815 3.31354 22.9735C3.2729 22.9004 3.20199 22.7733 3.15602 22.6911C3.11005 22.609 3.04016 22.4802 3.0007 22.4048C2.96116 22.3295 2.91566 22.2519 2.89943 22.2323C2.86687 22.1929 2.7645 21.9443 2.6728 21.6822C2.64025 21.5892 2.60087 21.4974 2.58533 21.4783C2.5698 21.4591 2.54274 21.3941 2.52525 21.3337C2.50767 21.2733 2.46531 21.1533 2.43103 21.067C2.35769 20.8822 2.27862 20.5886 2.21994 20.2825C2.19672 20.1617 2.15491 19.9993 2.12698 19.9217C2.09906 19.844 2.06266 19.611 2.04618 19.4039C2.02971 19.1969 1.9988 18.9498 1.97747 18.8548C1.92907 18.6393 1.93189 17.4125 1.98147 17.1447C2.00061 17.0412 2.03073 16.7897 2.04838 16.5857C2.06611 16.3819 2.10761 16.1065 2.14063 15.9739C2.17373 15.8413 2.21005 15.6504 2.22135 15.5497C2.23273 15.4491 2.26905 15.288 2.30215 15.1918C2.33525 15.0956 2.36232 14.991 2.36232 14.9593C2.36232 14.9277 2.39565 14.7992 2.43645 14.674C2.47724 14.5488 2.52564 14.3898 2.54391 14.3207C2.56219 14.2517 2.62142 14.0752 2.67547 13.9285C2.72952 13.7818 2.79925 13.5841 2.83039 13.4892C2.88531 13.3222 2.93339 13.2035 3.0531 12.9401C3.08448 12.8711 3.16143 12.6946 3.22419 12.5479C3.28686 12.4012 3.35119 12.26 3.36703 12.2341C3.38296 12.2082 3.4614 12.06 3.5415 11.9046C3.82947 11.3458 3.93529 11.1497 4.01107 11.0339C4.11461 10.8758 4.22051 10.7071 4.31119 10.5559C4.44581 10.3313 4.4571 10.3145 4.69204 9.9858C4.73087 9.93136 4.8545 9.75721 4.96668 9.59883C5.07885 9.44037 5.21299 9.25627 5.26477 9.18974C5.31654 9.12314 5.3942 9.0174 5.43735 8.95472C5.48049 8.89197 5.53752 8.81698 5.56403 8.78811C5.59055 8.75916 5.70343 8.62957 5.81498 8.50014C5.92653 8.3707 6.0256 8.25774 6.03517 8.24911C6.04474 8.24049 6.21607 8.0428 6.41602 7.80982C6.90183 7.24361 7.97142 6.19488 8.59082 5.67738C8.86695 5.44668 9.10699 5.24241 9.12424 5.22343C9.18245 5.15941 9.92862 4.56339 10.1289 4.42101C10.2381 4.34335 10.4114 4.21627 10.5142 4.13861C10.6169 4.06095 10.7345 3.97333 10.7755 3.94391C10.8703 3.8759 11.3418 3.52172 11.3835 3.48737C11.4007 3.47309 11.4995 3.4068 11.6031 3.34013C12.1416 2.99316 12.2395 2.93049 12.3405 2.86812C12.5727 2.72457 12.7376 2.61906 12.8633 2.53324C12.9352 2.48429 13.0002 2.44421 13.0077 2.44421C13.0153 2.44421 13.1183 2.38067 13.2365 2.30301C13.4753 2.14612 13.5281 2.13553 13.6518 2.21962ZM13.7709 14.1542C13.873 14.2266 13.9635 14.2937 13.9721 14.3032C13.9975 14.3316 14.2322 14.5066 14.3173 14.5607C14.9461 14.9606 16.4883 16.5788 17.1413 17.5239C17.5124 18.0611 17.8687 18.6652 18.0373 19.0431C18.0643 19.1035 18.1124 19.2094 18.1441 19.2784C18.3102 19.6389 18.4757 20.075 18.5251 20.2825C18.5457 20.3688 18.5812 20.4769 18.6042 20.5227C18.6271 20.5685 18.6619 20.7085 18.6812 20.8338C18.7007 20.9591 18.7369 21.1193 18.7618 21.1897C18.8249 21.3687 18.9362 22.5179 18.9214 22.8398C18.8973 23.3697 18.8293 23.957 18.7743 24.1106C18.7434 24.1969 18.6726 24.4158 18.617 24.597C18.5034 24.9667 18.417 25.1572 18.2003 25.5159C18.1183 25.6516 18.051 25.7722 18.0507 25.7838C18.0493 25.8355 17.836 26.1144 17.5555 26.4313C17.1702 26.8665 17.1662 26.8705 16.9047 27.0692C16.3783 27.4693 16.2557 27.5449 15.7764 27.7646C15.6555 27.8199 15.4861 27.8988 15.3998 27.9399C15.2557 28.0085 14.9632 28.086 14.3487 28.2183C14.0797 28.2763 13.0458 28.2882 12.8195 28.236C12.7465 28.2192 12.5884 28.1914 12.4682 28.1744C12.2201 28.1391 11.775 28.016 11.6345 27.9437C11.5827 27.917 11.4415 27.8518 11.3207 27.7988C10.5111 27.4433 9.61954 26.6691 9.17751 25.9377C9.09648 25.8035 8.99222 25.634 8.94594 25.5611C8.77054 25.2846 8.67107 25.1015 8.64965 25.0155C8.63742 24.9665 8.59459 24.8558 8.5545 24.7696C8.51442 24.6833 8.48147 24.5873 8.48131 24.5563C8.48116 24.5252 8.45299 24.4418 8.41871 24.3709C8.27351 24.0703 8.11317 23.052 8.13082 22.5417C8.1571 21.7789 8.19366 21.34 8.23821 21.2534C8.26426 21.2026 8.30191 21.082 8.32183 20.9852C8.34176 20.8886 8.38569 20.7366 8.4195 20.6476C8.45331 20.5586 8.48147 20.4612 8.48202 20.4313C8.48249 20.4012 8.51771 20.3061 8.56015 20.2198C8.60259 20.1335 8.63742 20.0448 8.63757 20.0226C8.63773 20.0004 8.67319 19.9127 8.71633 19.8275C8.75948 19.7424 8.79478 19.6572 8.79478 19.6384C8.79478 19.5757 9.43896 18.2364 9.48862 18.1959C9.49921 18.1873 9.60848 18.0178 9.73156 17.8194C9.85456 17.6209 9.96988 17.4373 9.98769 17.4114C10.0056 17.3856 10.0445 17.3266 10.0742 17.2803C10.5672 16.5145 11.7077 15.3089 12.5705 14.6416C13.4437 13.9664 13.4833 13.9503 13.7709 14.1542Z" fill="#888D8D"/>
</svg>
