<svg width="26" height="31" viewBox="0 0 26 31" fill="none" xmlns="http://www.w3.org/2000/svg">
<path fill-rule="evenodd" clip-rule="evenodd" d="M12.8957 0.00927653C12.8874 0.0176851 12.7867 0.0480045 12.6721 0.0767878C12.5573 0.10549 12.4053 0.166776 12.3342 0.212862C12.2067 0.295492 3.586 8.88236 3.586 8.92675C3.586 8.93928 3.5518 9 3.51 9.06153C3.17139 9.56055 3.40271 10.3144 3.99471 10.6415L4.18431 10.7463L5.97922 10.7557C7.24698 10.7623 7.79547 10.7759 7.8469 10.8021L7.91966 10.8391V13.8375C7.91966 16.5865 7.91522 16.8394 7.86622 16.8801C7.82191 16.9168 7.24843 16.9272 4.53852 16.9406C1.57805 16.9553 1.25844 16.9618 1.20427 17.0093C1.17128 17.0382 1.08606 17.0804 1.01491 17.1031C0.714953 17.199 0.357588 17.5587 0.149152 17.9746C-0.00430499 18.2807 -0.0064069 18.3627 0.00329533 23.7653L0.0123507 28.8259L0.0826917 28.9714C0.121339 29.0514 0.173893 29.1679 0.199361 29.2301C0.252723 29.3604 0.638548 29.7879 0.766779 29.8591C0.81432 29.8854 0.904147 29.9298 0.966403 29.9578C1.02866 29.9857 1.14509 30.0408 1.22513 30.0802L1.37066 30.1518H12.9972H24.6237L24.7713 30.0791C24.8525 30.039 24.9333 30.0063 24.9509 30.0063C25.0619 30.0063 25.6747 29.4947 25.6747 29.4021C25.6747 29.3853 25.7017 29.3427 25.7347 29.3072C25.7902 29.2477 25.8959 28.9991 25.9685 28.7572C26.0319 28.5464 25.9902 18.297 25.9255 18.1857C25.8946 18.1324 25.8691 18.0654 25.8689 18.037C25.8689 18.0085 25.8254 17.9212 25.7723 17.8429C25.7193 17.7647 25.6756 17.6877 25.6753 17.6719C25.6738 17.6 25.1551 17.1576 25.0279 17.1197C24.9834 17.1065 24.8961 17.0644 24.8339 17.0263L24.7207 16.9568L21.3864 16.9406C18.6257 16.9272 18.043 16.9169 17.9987 16.8801C17.9121 16.8081 17.9171 10.8456 18.0038 10.7992C18.0389 10.7804 18.8048 10.7637 19.92 10.7576L21.7777 10.7472L21.9393 10.6567C22.5023 10.3412 22.7745 9.70924 22.5377 9.26746C22.5021 9.20108 22.473 9.12993 22.473 9.1094C22.473 9.08878 22.4257 9.00857 22.3679 8.93112C22.2507 8.77394 13.8107 0.317484 13.7711 0.317484C13.7572 0.317484 13.7027 0.2811 13.6498 0.236551C13.5258 0.132252 12.9472 -0.0421453 12.8957 0.00927653ZM16.2137 5.51011C17.9665 7.26331 19.4006 8.71775 19.4006 8.74233C19.4006 8.83224 19.29 8.83959 17.6866 8.85544L16.0534 8.87161L16.0372 18.5156C16.024 26.3688 16.0132 28.1675 15.979 28.2017C15.9149 28.2657 9.99085 28.2634 9.91363 28.1994C9.86423 28.1583 9.85962 27.4326 9.8521 18.5134L9.84394 8.87161L8.25609 8.85544C6.51187 8.83765 6.50378 8.83676 6.61399 8.66495C6.64374 8.61855 8.05283 7.19499 9.7453 5.50154C12.3207 2.92463 12.9382 2.32528 13.02 2.32277C13.0237 2.32269 14.4608 3.757 16.2137 5.51011ZM7.90309 18.9244C7.97181 19.0294 7.96276 28.1328 7.89379 28.2017C7.82975 28.2657 2.06736 28.2634 1.99007 28.1993C1.90493 28.1287 1.908 18.9333 1.99322 18.8837C2.03049 18.862 3.0409 18.8503 4.95167 18.8497L7.85353 18.8487L7.90309 18.9244ZM24.0334 18.8938C24.1187 18.9584 24.1217 28.1287 24.0366 28.1993C23.992 28.2363 23.4836 28.2437 21.0177 28.2437C18.5518 28.2437 18.0433 28.2363 17.9987 28.1993C17.9136 28.1287 17.9167 18.9333 18.0019 18.8837C18.0954 18.8292 23.9614 18.839 24.0334 18.8938Z" fill="#848C8C"/>
</svg>
