<svg width="21" height="19" viewBox="0 0 21 19" fill="none" xmlns="http://www.w3.org/2000/svg">
<path d="M5.56062 3.18914C2.99242 4.94704 0.879218 6.41877 0.869107 6.45965C0.858996 6.51075 0.990439 6.75604 1.17244 7.00133L1.48588 7.46124L6.08639 4.34404L10.6869 1.23706L15.2874 4.34404L19.8778 7.45102L20.2014 6.97067C20.4238 6.65384 20.4946 6.45965 20.4339 6.36767C20.3834 6.2859 18.2702 4.8244 15.7424 3.10738C11.3846 0.153704 11.1217 -0.00982141 10.6869 0.000399113C10.2622 0.000399113 9.9488 0.194585 5.56062 3.18914Z" fill="#878A8C"/>
<path d="M2.42621 8.51394L1.78922 8.93297V13.4606C1.78922 18.5299 1.79933 18.581 2.43632 18.8467C2.71943 18.9693 3.37665 19 5.71229 19C8.52316 19 8.64449 18.9898 8.90738 18.7854L9.17026 18.581V15.9952C9.17026 13.5321 9.18037 13.3993 9.40282 12.97C9.91848 11.9378 11.3239 11.8764 11.971 12.8576C12.1935 13.1949 12.2036 13.2664 12.2036 15.8317C12.2036 18.3357 12.2137 18.4788 12.4159 18.7343L12.6181 19H15.7728C19.1903 19 19.1802 19 19.4734 18.4174C19.5543 18.2641 19.5846 16.772 19.5846 13.5526V8.91253L19.0285 8.53438C18.7252 8.32998 18.432 8.16645 18.3713 8.16645C18.3005 8.16645 18.2702 9.79148 18.2702 12.97V17.7736H15.8435H13.4169V15.3922C13.4169 13.0415 13.4169 13.0007 13.154 12.4794C12.6687 11.4881 11.7789 10.9362 10.6768 10.9259C9.5747 10.9259 8.62427 11.5494 8.14905 12.6021C7.98727 12.97 7.95694 13.3073 7.95694 15.3922V17.7736H5.53029H3.10365L3.08343 12.9393L3.05309 8.09491L2.42621 8.51394Z" fill="#878A8C"/>
</svg>
