<svg width="18" height="19" viewBox="0 0 18 19" fill="none" xmlns="http://www.w3.org/2000/svg">
<path fill-rule="evenodd" clip-rule="evenodd" d="M8.6955 0.0515512C8.38272 0.138757 8.28443 0.210623 7.91412 0.622875C7.79872 0.751383 7.49804 1.08498 7.24604 1.36413C6.99398 1.64327 6.70722 1.96177 6.60881 2.07186C6.51033 2.18196 6.32359 2.38812 6.19378 2.53002C6.06398 2.67192 5.90939 2.84291 5.85033 2.91006C5.79121 2.97714 5.59909 3.1905 5.42344 3.38414C5.24779 3.57773 4.99874 3.85404 4.87005 3.99819C4.74137 4.14227 4.39184 4.52951 4.09328 4.85862C3.79473 5.1878 3.46597 5.55309 3.36265 5.67044C3.17048 5.88887 2.70979 6.39706 2.64335 6.46391C2.62305 6.48438 2.53738 6.57938 2.45301 6.67508C2.26679 6.88625 1.88115 7.31626 1.82274 7.37786C1.7697 7.43386 1.73217 7.47539 1.08344 8.19505C0.16553 9.21332 0.136736 9.24984 0.0566697 9.49506C-0.12205 10.0426 0.131603 10.6051 0.68145 10.8805L0.836332 10.9581L2.83464 10.9652C4.42087 10.9709 4.83813 10.9786 4.85802 11.0025C4.87531 11.0234 4.88498 12.1279 4.88935 14.5945L4.89572 18.1564L4.97726 18.3196C5.09851 18.5622 5.26714 18.7312 5.512 18.8554L5.71609 18.9589L8.76347 18.9657C12.0657 18.9731 12.2516 18.968 12.47 18.8631C12.6694 18.7673 12.883 18.5587 12.9938 18.3512L13.0853 18.18L13.0971 14.5997C13.1048 12.2602 13.1171 11.0113 13.1325 10.9959C13.1477 10.9807 13.8687 10.9697 15.1622 10.9649L17.1683 10.9574L17.3217 10.8826C17.9176 10.592 18.1992 9.72676 17.8426 9.28241C17.8217 9.25645 17.7789 9.19804 17.7472 9.15261C17.7026 9.08835 16.9843 8.27636 16.8314 8.11734C16.8143 8.09964 16.485 7.73324 16.0996 7.30311C15.7142 6.87298 15.3289 6.44674 15.2434 6.35588C15.1579 6.26501 14.951 6.03667 14.7836 5.84845C14.6161 5.66023 14.3726 5.38865 14.2424 5.24497C14.1122 5.1013 13.8677 4.83125 13.6989 4.64486C13.5302 4.45853 13.3755 4.28931 13.3552 4.26889C13.3349 4.24848 13.1811 4.07778 13.0133 3.88956C12.282 3.06901 11.6714 2.38912 11.6462 2.36729C11.6312 2.35431 11.4725 2.17907 11.2934 1.97787C11.1144 1.77667 10.9197 1.55895 10.8608 1.49405C10.802 1.42915 10.5774 1.17957 10.3619 0.939425C9.69506 0.19658 9.60827 0.126721 9.24358 0.0396327C9.01116 -0.0158889 8.93104 -0.0141188 8.6955 0.0515512ZM9.21773 1.54674C9.44861 1.80647 10.5828 3.06482 10.9162 3.43129C11.0708 3.6011 11.3632 3.92502 11.5661 4.15112C11.769 4.37722 11.9601 4.58951 11.9909 4.62285C12.0217 4.65624 12.1314 4.77838 12.2347 4.89426C12.338 5.0102 12.4389 5.12195 12.4589 5.14272C12.4789 5.16343 12.559 5.25276 12.6369 5.34121C12.7148 5.42971 12.7975 5.52199 12.8207 5.54642C12.844 5.57079 13.0608 5.81069 13.3026 6.07951C13.5443 6.34832 13.787 6.61608 13.8417 6.67449C13.9432 6.7827 14.0793 6.93393 14.3952 7.2893C14.4925 7.39887 14.6465 7.56832 14.7374 7.66597C14.9415 7.88517 15.6319 8.65091 15.9156 8.97277C16.0314 9.10411 16.2081 9.29958 16.3083 9.40703C16.5171 9.631 16.5438 9.68729 16.4568 9.72033C16.4216 9.73372 15.5256 9.74263 14.2064 9.74263C12.8393 9.74263 11.9917 9.75131 11.954 9.76565L11.8934 9.78866V13.7261C11.8934 16.839 11.8873 17.672 11.8639 17.7037C11.8365 17.7411 11.6426 17.7433 8.97871 17.7377L6.12298 17.7316L6.11118 13.7619C6.10162 10.5489 6.09354 9.78636 6.0687 9.76152C6.04403 9.73685 5.59113 9.72954 3.76169 9.72434C1.51793 9.71797 1.48536 9.7172 1.48536 9.67159C1.48536 9.62451 2.21859 8.78791 3.06664 7.86741C3.15101 7.77584 3.35811 7.54756 3.52686 7.36016C3.69561 7.17271 3.99298 6.84412 4.18769 6.62989C4.3824 6.41571 4.63009 6.13981 4.73812 6.01685C4.84616 5.89383 4.99077 5.73399 5.05951 5.66153C5.12825 5.58908 5.32626 5.37053 5.4995 5.17582C5.80956 4.82735 6.27326 4.31515 6.34565 4.24122C6.38749 4.19844 6.41315 4.16983 6.81933 3.71255C6.98076 3.53083 7.12502 3.37152 7.13989 3.35854C7.15476 3.34556 7.35596 3.12253 7.58707 2.86291C7.81813 2.6033 8.02399 2.37431 8.04452 2.35413C8.06505 2.3339 8.1987 2.18527 8.34148 2.02395C9.01022 1.26819 8.9832 1.28288 9.21773 1.54674Z" fill="#878A8C"/>
</svg>
